<svg width="25" height="24" viewBox="0 0 25 24" fill="none" xmlns="http://www.w3.org/2000/svg">
<path d="M9.14262 6.11729C10.0461 5.61252 11.0941 5.32409 12.2506 5.32409C15.985 5.32409 18.6713 8.37672 18.6713 12.0062C18.6713 13.0638 18.4304 14.0734 18.0208 14.9747L22.1768 19.121C23.6344 17.138 24.4897 14.6863 24.4897 12.0062C24.4776 5.28803 19.2013 0 12.2385 0C9.5522 0 7.13088 0.793205 5.15527 2.13925L9.14262 6.11729Z" fill="#EB6236"/>
<path d="M14.5038 18.2675C13.8051 18.5319 13.0583 18.6761 12.2391 18.6761C8.50473 18.6761 5.81839 15.6235 5.81839 11.994C5.81839 11.2729 5.92681 10.5758 6.1316 9.91484L1.819 5.6123C0.674599 7.4511 0 9.6264 0 11.994C0 18.7122 5.26426 24.0002 12.2391 24.0002C14.5881 24.0002 16.7444 23.3873 18.5755 22.3297L14.5038 18.2675Z" fill="#EB6236"/>
</svg>
