<svg width="25" height="25" viewBox="0 0 25 25" fill="none" xmlns="http://www.w3.org/2000/svg">
<path d="M4.28922 5.25843C6.27044 3.00847 9.17244 1.58887 12.406 1.58887C13.6467 1.58887 14.8386 1.79786 15.9484 2.18257M2.18484 8.86816C1.80242 9.97502 1.59473 11.1634 1.59473 12.4002C1.59473 15.6384 3.01833 18.544 5.2738 20.5255M8.88728 22.6261C9.99034 23.0055 11.1741 23.2116 12.406 23.2116C15.6527 23.2116 18.5651 21.7804 20.5469 19.5146M22.6188 15.9565C23.0065 14.8427 23.2173 13.6461 23.2173 12.4002C23.2173 9.16462 21.7959 6.26099 19.5435 4.27967" stroke="#F97316" stroke-width="0.918623"/>
<path d="M2.91387 2.33635L3.17632 2.07847C3.80539 1.98979 5.37058 1.98826 7.26439 2.93027M2.91387 2.33635C2.91387 2.33635 2.10853 3.19145 1.67527 3.76486C1.24202 4.33828 0.487715 5.47102 0.462891 6.03037C0.761344 6.87843 1.26218 8.13278 2.59307 9.33066C4.10686 10.6461 6.06979 11.4239 6.71775 11.7176C6.5319 12.0596 6.14914 12.7805 6.07679 12.9095L10.8779 11.6966L9.16249 7.16189L8.42055 8.5809C7.64531 8.24258 6.01455 7.30135 4.69277 5.85231C3.3701 4.40228 2.93936 3.34737 2.91387 2.33635Z" stroke="#F97316" stroke-width="0.918623"/>
<path d="M21.9596 22.5706L21.6915 22.8338C21.0487 22.9244 19.4495 22.9259 17.5145 21.9643M21.9596 22.5706C21.9596 22.5706 22.7825 21.6977 23.2251 21.1123C23.6678 20.527 24.4385 19.3706 24.4639 18.7996C24.1589 17.9339 23.6472 16.6534 22.2874 15.4306C20.7407 14.0877 18.7351 13.2937 18.073 12.9939C18.2629 12.6448 18.654 11.9089 18.7279 11.7772L13.8224 13.0154L15.5751 17.6445L16.3332 16.1959C17.1253 16.5413 18.7915 17.5022 20.142 18.9814C21.4935 20.4616 21.9336 21.5385 21.9596 22.5706Z" stroke="#F97316" stroke-width="0.918623"/>
<path d="M22.584 2.89954L22.8432 3.16034C22.9318 3.78501 22.932 5.33903 21.9825 7.21847M22.584 2.89954C22.584 2.89954 21.7244 2.09916 21.1478 1.66847C20.5713 1.23778 19.4323 0.487826 18.8696 0.462669C18.0161 0.758219 16.7536 1.25434 15.5472 2.57464C14.2223 4.07643 13.438 6.02464 13.142 6.66771C12.798 6.48288 12.0731 6.10219 11.9434 6.03024L13.1594 10.7982L17.7233 9.09917L16.2963 8.36123C16.6374 7.59183 17.5858 5.97356 19.0449 4.66253C20.505 3.35062 21.5667 2.92392 22.584 2.89954Z" stroke="#F97316" stroke-width="0.918623"/>
<path d="M2.27932 21.7875L2.02011 21.5267C1.93145 20.902 1.93132 19.348 2.88079 17.4685M2.27932 21.7875C2.27932 21.7875 3.13892 22.5879 3.71545 23.0185C4.29198 23.4492 5.43096 24.1992 5.99371 24.2243C6.84722 23.9288 8.10968 23.4327 9.31608 22.1124C10.6409 20.6106 11.4253 18.6624 11.7213 18.0193C12.0652 18.2041 12.7902 18.5848 12.9199 18.6568L11.7039 13.8888L7.13998 15.5878L8.56699 16.3258C8.2259 17.0952 7.27746 18.7135 5.81837 20.0245C4.35829 21.3364 3.29655 21.7631 2.27932 21.7875Z" stroke="#F97316" stroke-width="0.918623"/>
</svg>
