<svg width="24" height="24" viewBox="0 0 24 24" fill="none" xmlns="http://www.w3.org/2000/svg">
<path fill-rule="evenodd" clip-rule="evenodd" d="M10 2L15.71 7.71L11.41 12L15.71 16.29L10 22H9V14.41L4.41 19L3 17.59L8.59 12L3 6.41L4.41 5L9 9.59V2H10ZM19.53 6.71L18.27 7.97C18.9 9.18 19.25 10.54 19.25 11.99C19.25 13.44 18.89 14.81 18.27 16.01L19.47 17.21C20.44 15.67 21.01 13.85 21.01 11.9C21 10.01 20.46 8.23 19.53 6.71ZM14.24 12.01L16.56 14.33C16.84 13.61 17 12.82 17 12C17 11.18 16.84 10.41 16.57 9.69L14.24 12.01ZM11 5.83L12.88 7.71L11 9.59V5.83ZM11 18.17L12.88 16.29L11 14.41V18.17Z" fill="#F4F4F5"/>
</svg>
