<svg width="24" height="24" viewBox="0 0 24 24" fill="none" xmlns="http://www.w3.org/2000/svg">
<path d="M14.8284 7.75735L16.2426 9.17157L13.4142 12L16.2426 14.8284L14.8284 16.2426L12 13.4142L9.17157 16.2426L7.75736 14.8284L10.5858 12L7.75736 9.17156L9.17157 7.75735L12 10.5858L14.8284 7.75735Z" fill="#F4F4F5"/>
<path fill-rule="evenodd" clip-rule="evenodd" d="M2 12C2 6.48 6.48 2 12 2C17.52 2 22 6.48 22 12C22 17.52 17.52 22 12 22C6.48 22 2 17.52 2 12ZM12 20C7.59 20 4 16.41 4 12C4 7.59 7.59 4 12 4C16.41 4 20 7.59 20 12C20 16.41 16.41 20 12 20Z" fill="#F4F4F5"/>
</svg>
