<svg width="24" height="24" viewBox="0 0 24 24" fill="none" xmlns="http://www.w3.org/2000/svg">
<path fill-rule="evenodd" clip-rule="evenodd" d="M2 3H22C23.1 3 24 3.9 24 5L23.99 19C23.99 20.1 23.1 21 22 21H2C0.9 21 0 20.1 0 19V5C0 3.9 0.9 3 2 3ZM11 9C11 7.34 9.66 6 8 6C6.34 6 5 7.34 5 9C5 10.66 6.34 12 8 12C9.66 12 11 10.66 11 9ZM2 18V17C2 15 6 13.9 8 13.9C10 13.9 14 15 14 17V18H2ZM19.49 14H17.85C17.63 13.37 17.5 12.7 17.5 12C17.5 11.3 17.63 10.63 17.85 10H19.49L21 8L19.01 6.01C17.7 6.99 16.73 8.38 16.28 10C16.1 10.64 16 11.31 16 12C16 12.69 16.1 13.36 16.28 14C16.73 15.61 17.7 17.01 19.01 17.99L21 16L19.49 14Z" fill="#F4F4F5"/>
</svg>
