<svg width="24" height="24" viewBox="0 0 24 24" fill="none" xmlns="http://www.w3.org/2000/svg">
<path fill-rule="evenodd" clip-rule="evenodd" d="M4 4H20C21.11 4 22 4.89 22 6V18C22 19.11 21.11 20 20 20H4C2.89 20 2 19.11 2 18L2.01 6C2.01 4.89 2.89 4 4 4ZM7.3 15H8.5V9H7.25V12.5L4.75 9H3.5V15H4.75V11.5L7.3 15ZM13.5 10.26H11V11.38H13.5V12.64H11V13.75H13.5V15H9.5V9H13.5V10.26ZM19.5 15C20.05 15 20.5 14.55 20.5 14V9H19.25V13.5H18.13V9.99H16.88V13.51H15.75V9H14.5V14C14.5 14.55 14.95 15 15.5 15H19.5Z" fill="#F4F4F5"/>
</svg>
