<svg width="24" height="24" viewBox="0 0 24 24" fill="none" xmlns="http://www.w3.org/2000/svg">
<path fill-rule="evenodd" clip-rule="evenodd" d="M0 2.44801L1.41 1.09441L22.87 21.696L21.46 23.0496L19.45 21.12H4C2.9 21.12 2 20.256 2 19.2V4.36801L0 2.44801ZM8 3.84001V4.69441L10 6.61441V3.84001H14V7.68001H11.11L13.11 9.60001H14V10.4544L16 12.3744V9.60001H20V13.44H17.11L19.11 15.36H20V16.2144L22 18.1344V3.84001C22 2.78401 21.1 1.92001 20 1.92001H5.11L7.11 3.84001H8ZM16 3.84001H20V7.68001H16V3.84001ZM10 12.048L11.45 13.44H10V12.048ZM5.45 7.68001L4 6.28801V7.68001H5.45ZM8 19.2H4V15.36H8V19.2ZM4 13.44H8V10.128L7.45 9.60001H4V13.44ZM14 19.2H10V15.36H13.45L14 15.888V19.2ZM16 17.808V19.2H17.45L16 17.808Z" fill="#F4F4F5"/>
</svg>
