<svg width="24" height="24" viewBox="0 0 24 24" fill="none" xmlns="http://www.w3.org/2000/svg">
<path fill-rule="evenodd" clip-rule="evenodd" d="M4.40625 10.6867L6.80312 5.89992C6.93766 5.62919 7.14505 5.40135 7.40197 5.24202C7.6589 5.0827 7.95518 4.99821 8.2575 4.99805H15.9925C16.2948 4.99821 16.5911 5.0827 16.848 5.24202C17.105 5.40135 17.3123 5.62919 17.4469 5.89992L19.8437 10.6867H4.40625ZM3.99609 16.3711V11.4961H20.2461V16.3711C20.2461 16.8021 20.0749 17.2154 19.7701 17.5201C19.4654 17.8249 19.0521 17.9961 18.6211 17.9961H5.62109C5.19012 17.9961 4.77679 17.8249 4.47205 17.5201C4.1673 17.2154 3.99609 16.8021 3.99609 16.3711ZM7.43359 13.9336C6.88131 13.9336 6.43359 14.3813 6.43359 14.9336C6.43359 15.4859 6.88131 15.9336 7.43359 15.9336H7.44359C7.99588 15.9336 8.44359 15.4859 8.44359 14.9336C8.44359 14.3813 7.99588 13.9336 7.44359 13.9336H7.43359ZM9.67969 14.9336C9.67969 14.3813 10.1274 13.9336 10.6797 13.9336H10.6897C11.242 13.9336 11.6897 14.3813 11.6897 14.9336C11.6897 15.4859 11.242 15.9336 10.6897 15.9336H10.6797C10.1274 15.9336 9.67969 15.4859 9.67969 14.9336Z" fill="#F4F4F5"/>
</svg>
