<svg width="24" height="24" viewBox="0 0 24 24" fill="none" xmlns="http://www.w3.org/2000/svg">
<path fill-rule="evenodd" clip-rule="evenodd" d="M19 2H5C3.89 2 3 2.9 3 4V18C3 19.1 3.89 20 5 20H9L12 23L15 20H19C20.1 20 21 19.1 21 18V4C21 2.9 20.1 2 19 2ZM13 16V18H11V16H13ZM14.17 11.17L15.07 10.25C15.64 9.68 16 8.88 16 8C16 5.79 14.21 4 12 4C9.79 4 8 5.79 8 8H10C10 6.9 10.9 6 12 6C13.1 6 14 6.9 14 8C14 8.55 13.78 9.05 13.41 9.41L12.17 10.67C11.45 11.4 11 12.4 11 13.5V14H13C13 12.5 13.45 11.9 14.17 11.17Z" fill="#F4F4F5"/>
</svg>
