<svg width="24" height="24" viewBox="0 0 24 24" fill="none" xmlns="http://www.w3.org/2000/svg">
<path fill-rule="evenodd" clip-rule="evenodd" d="M0 3.11999L4 7.11999V9.99999H1V12H4V15H6V12H8.88L11.39 14.51C9.19 15.11 7 16.3 7 18V20H16.88L20.88 24L22.29 22.59L1.41 1.70999L0 3.11999ZM14.6036 11.9657C14.5623 11.9603 14.5211 11.9548 14.48 11.95L11.05 8.51999C11.0452 8.47889 11.0397 8.43779 11.0343 8.39654C11.0173 8.26724 11 8.13642 11 7.99999C11 5.78999 12.79 3.99999 15 3.99999C17.21 3.99999 19 5.78999 19 7.99999C19 10.21 17.21 12 15 12C14.8636 12 14.7329 11.9828 14.6036 11.9657ZM22.53 20L16.69 14.16C19.44 14.5 23 15.86 23 18V20H22.53ZM6 9.99999H6.88L6 9.11999V9.99999Z" fill="#F4F4F5"/>
</svg>
