<svg width="24" height="24" viewBox="0 0 24 24" fill="none" xmlns="http://www.w3.org/2000/svg">
<path fill-rule="evenodd" clip-rule="evenodd" d="M1.41 1.60001L0 3.01001L5 8.01001C3.34 8.01001 2 9.34001 2 11V17H6V21H18L20.95 23.96L22.36 22.55L1.41 1.60001ZM9.65 7.00001H18V3.01001H6V3.36001L9.65 7.00001ZM10.66 8.01001L19.66 17H22V11.01C22 9.35001 20.66 8.01001 19 8.01001H10.66ZM20 11C20 10.45 19.55 10 19 10C18.45 10 18 10.45 18 11C18 11.55 18.45 12 19 12C19.55 12 20 11.55 20 11ZM8 15V19.01L16 19L12 15H8Z" fill="#F4F4F5"/>
</svg>
