<svg width="24" height="24" viewBox="0 0 24 24" fill="none" xmlns="http://www.w3.org/2000/svg">
<path fill-rule="evenodd" clip-rule="evenodd" d="M2 5H14C14.55 5 15 5.45 15 6V18C15 18.55 14.55 19 14 19H2C1.45 19 1 18.55 1 18V6C1 5.45 1.45 5 2 5ZM17 19H19V5H17V19ZM21 5V19H23V5H21ZM8 7.75C9.24 7.75 10.25 8.76 10.25 10C10.25 11.24 9.24 12.25 8 12.25C6.76 12.25 5.75 11.24 5.75 10C5.75 8.76 6.76 7.75 8 7.75ZM3.5 16.25V17H12.5V16.25C12.5 14.75 9.5 14 8 14C6.5 14 3.5 14.75 3.5 16.25Z" fill="#F4F4F5"/>
</svg>
