<svg width="24" height="24" viewBox="0 0 24 24" fill="none" xmlns="http://www.w3.org/2000/svg">
<path fill-rule="evenodd" clip-rule="evenodd" d="M13 2H11V7H13V2ZM19.75 4.85L21.16 6.26C21.05 6.29 17.6 9.81 17.6 9.81L16.19 8.4L19.75 4.85ZM12 12C16.54 12 20.66 13.78 23.71 16.67C23.89 16.85 24 17.1 24 17.37C24 17.65 23.89 17.9 23.71 18.08L21.23 20.56C21.05 20.74 20.8 20.85 20.52 20.85C20.25 20.85 20 20.75 19.82 20.57C19.03 19.84 18.14 19.21 17.16 18.72C16.83 18.56 16.6 18.21 16.6 17.82V14.72C15.15 14.25 13.6 14 12 14C10.4 14 8.85 14.25 7.4 14.73V17.83C7.4 18.23 7.17 18.57 6.84 18.73C5.87 19.22 4.97 19.84 4.18 20.58C4 20.75 3.75 20.86 3.48 20.86C3.2 20.86 2.95 20.75 2.77 20.57L0.29 18.09C0.11 17.91 0 17.66 0 17.38C0 17.1 0.11 16.85 0.29 16.67C3.34 13.78 7.46 12 12 12ZM7.81 8.4L6.4 9.81C6.4 9.81 2.95 6.29 2.84 6.26L4.26 4.84L7.81 8.4Z" fill="#F4F4F5"/>
</svg>
