<svg width="24" height="24" viewBox="0 0 24 24" fill="none" xmlns="http://www.w3.org/2000/svg">
<path fill-rule="evenodd" clip-rule="evenodd" d="M21 5.1L20.2 5.9C19 4.8 17.5 4.2 16 4.2C14.5 4.2 13 4.8 11.8 5.9L11 5.1C12.4 3.7 14.2 3 16 3C17.8 3 19.6 3.7 21 5.1ZM16 5.3C17.2 5.3 18.4 5.8 19.3 6.7L18.5 7.5C17.8 6.8 16.9 6.5 16 6.5C15.1 6.5 14.2 6.8 13.5 7.5L12.7 6.7C13.6 5.8 14.8 5.3 16 5.3ZM19 13H17V9H15V13H5C3.9 13 3 13.9 3 15V19C3 20.1 3.9 21 5 21H19C20.1 21 21 20.1 21 19V15C21 13.9 20.1 13 19 13ZM6 18H8V16H6V18ZM11.5 18H9.5V16H11.5V18ZM13 18H15V16H13V18Z" fill="#F4F4F5"/>
</svg>
