<svg width="24" height="24" viewBox="0 0 24 24" fill="none" xmlns="http://www.w3.org/2000/svg">
<path fill-rule="evenodd" clip-rule="evenodd" d="M20.05 10C20.6 10 21.05 9.55 21.05 9V5C21.05 4.45 20.6 4 20.05 4V3.5C20.05 2.12 18.93 1 17.55 1C16.17 1 15.05 2.12 15.05 3.5V4C14.5 4 14.05 4.45 14.05 5V9C14.05 9.55 14.5 10 15.05 10H20.05ZM19.73 11.2L22.3 13.77C22.89 14.35 22.89 15.3 22.3 15.89L15.94 22.25C15.36 22.84 14.41 22.84 13.82 22.25L1.8 10.23C1.21 9.65 1.21 8.7 1.8 8.11L8.16 1.75C8.74 1.16 9.69 1.16 10.28 1.75L12.73 4.2L11.32 5.61L9.22 3.51L3.56 9.17L14.88 20.49L20.54 14.83L18.32 12.61L19.73 11.2ZM1.55 13C1.91 16.76 4.25 19.94 7.52 21.48L8.85 20.15L12.66 23.97L12 24C5.71 24 0.560003 19.16 0.0500031 13H1.55ZM17.55 1.8C16.61 1.8 15.85 2.56 15.85 3.5V4H19.25V3.5C19.25 2.56 18.49 1.8 17.55 1.8Z" fill="#F4F4F5"/>
</svg>
