<svg width="24" height="24" viewBox="0 0 24 24" fill="none" xmlns="http://www.w3.org/2000/svg">
<path d="M11.9691 14.0309C11.4191 14.0309 10.9483 13.8351 10.5566 13.4434C10.1649 13.0518 9.96912 12.5809 9.96912 12.0309C9.96912 11.4809 10.1649 11.0101 10.5566 10.6184C10.9483 10.2268 11.4191 10.0309 11.9691 10.0309C12.5191 10.0309 12.9899 10.2268 13.3816 10.6184C13.7733 11.0101 13.9691 11.4809 13.9691 12.0309C13.9691 12.5809 13.7733 13.0518 13.3816 13.4434C12.9899 13.8351 12.5191 14.0309 11.9691 14.0309ZM11.9691 21.0309C9.65245 21.0309 7.64412 20.2684 5.94412 18.7434C4.24412 17.2184 3.26912 15.3143 3.01912 13.0309H5.06912C5.30245 14.7643 6.07328 16.1976 7.38162 17.3309C8.68995 18.4643 10.2191 19.0309 11.9691 19.0309C13.9191 19.0309 15.5733 18.3518 16.9316 16.9934C18.2899 15.6351 18.9691 13.9809 18.9691 12.0309C18.9691 10.0809 18.2899 8.42676 16.9316 7.06843C15.5733 5.7101 13.9191 5.03093 11.9691 5.03093C10.8191 5.03093 9.74412 5.2976 8.74412 5.83093C7.74412 6.36426 6.90245 7.0976 6.21912 8.03093H8.96912V10.0309H2.96912V4.03093H4.96912V6.38093C5.81912 5.31426 6.85662 4.48926 8.08162 3.90593C9.30662 3.3226 10.6024 3.03093 11.9691 3.03093C13.2191 3.03093 14.3899 3.26843 15.4816 3.74343C16.5733 4.21843 17.5233 4.8601 18.3316 5.66843C19.1399 6.47676 19.7816 7.42676 20.2566 8.51843C20.7316 9.6101 20.9691 10.7809 20.9691 12.0309C20.9691 13.2809 20.7316 14.4518 20.2566 15.5434C19.7816 16.6351 19.1399 17.5851 18.3316 18.3934C17.5233 19.2018 16.5733 19.8434 15.4816 20.3184C14.3899 20.7934 13.2191 21.0309 11.9691 21.0309Z" fill="#F4F4F5"/>
</svg>
