<svg width="24" height="24" viewBox="0 0 24 24" fill="none" xmlns="http://www.w3.org/2000/svg">
<path fill-rule="evenodd" clip-rule="evenodd" d="M8.66339 1.81039H6.66335V5.75253C4.44145 7.39146 3 10.0276 3 13C3 17.97 7.03 22 12 22C16.97 22 21 17.97 21 13C21 8.02999 16.97 3.99999 12 3.99999C10.8212 3.99999 9.69522 4.22672 8.66339 4.63893V1.81039ZM8.66339 6.84751V4.63893C7.9467 4.92525 7.27541 5.30105 6.66335 5.75253V7.81051H7.30682C5.89084 9.09227 5 10.944 5 13C5 16.86 8.14 20 12 20C15.86 20 19 16.86 19 13C19 9.13999 15.86 5.99999 12 5.99999C10.7927 5.99999 9.65579 6.30718 8.66339 6.84751ZM8.66339 6.84751V7.81051H7.30682C7.71776 7.43852 8.17293 7.11454 8.66339 6.84751ZM17.3365 1.81104H23.3366V3.81108H17.3365V1.81104ZM9 11H12.63L9 15.2V17H15V15H11.37L15 10.8V8.99999H9V11Z" fill="#F4F4F5"/>
</svg>
