<svg width="24" height="24" viewBox="0 0 24 24" fill="none" xmlns="http://www.w3.org/2000/svg">
<path fill-rule="evenodd" clip-rule="evenodd" d="M1.11 2.98001L2.66 4.54001C2.66 4.54001 2 5.11001 2 6.01001V16L2.01 16.01C2.01 17.1 2.89 18 3.98 18.01L0 18V20H18.13L20.84 22.71L22.25 21.3L2.52 1.57001L1.11 2.98001ZM13 7.00001V9.13001C12.98 9.13001 12.96 9.14001 12.94 9.15001L7.8 4.02001H20C21.1 4.02001 22 4.90001 22 6.00001V16C22 16.61 21.73 17.14 21.3 17.51L15.72 11.93L17 10.74L13 7.00001ZM23.79 20L21.79 18H24V20H23.79ZM10.67 12.54L9.08 10.95C7.94 12.07 7.31 13.52 7 15C7.96 13.71 9.13 12.92 10.67 12.54Z" fill="#F4F4F5"/>
</svg>
