<svg width="24" height="24" viewBox="0 0 24 24" fill="none" xmlns="http://www.w3.org/2000/svg">
<path fill-rule="evenodd" clip-rule="evenodd" d="M13.55 17C13.5447 16.9548 13.5387 16.9103 13.5327 16.8662C13.5162 16.7442 13.5 16.6248 13.5 16.5C13.5 13.74 15.74 11.5 18.5 11.5C19.42 11.5 20.25 11.76 20.99 12.19V5C20.99 3.9 20.1 3 19 3H5C3.9 3 3 3.9 3 5V15C3 16.1 3.9 17 5 17H13.55ZM15 16.5C15 14.57 16.57 13 18.5 13C20.43 13 22 14.57 22 16.5C22 18.43 20.43 20 18.5 20C16.57 20 15 18.43 15 16.5ZM5 7L12 10.5L19 7V5L12 8.5L5 5V7ZM16.5 17H20.5V16H16.5V17Z" fill="#F4F4F5"/>
</svg>
