<svg width="24" height="24" viewBox="0 0 24 24" fill="none" xmlns="http://www.w3.org/2000/svg">
<path fill-rule="evenodd" clip-rule="evenodd" d="M3 6H21C22.1 6 23 6.9 23 8V16C23 17.1 22.1 18 21 18H3C1.9 18 1 17.1 1 16V8C1 6.9 1.9 6 3 6ZM8 13H11V11H8V8H6V11H3V13H6V16H8V13ZM15.5 15C14.67 15 14 14.33 14 13.5C14 12.67 14.67 12 15.5 12C16.33 12 17 12.67 17 13.5C17 14.33 16.33 15 15.5 15ZM18 10.5C18 11.33 18.67 12 19.5 12C20.33 12 21 11.33 21 10.5C21 9.67 20.33 9 19.5 9C18.67 9 18 9.67 18 10.5Z" fill="#F4F4F5"/>
</svg>
