<svg width="24" height="24" viewBox="0 0 24 24" fill="none" xmlns="http://www.w3.org/2000/svg">
<path d="M12 16.05C13.125 16.05 14.0812 15.6562 14.8687 14.8688C15.6562 14.0813 16.05 13.125 16.05 12C16.05 10.875 15.6562 9.91875 14.8687 9.13125C14.0812 8.34375 13.125 7.95 12 7.95C10.875 7.95 9.91873 8.34375 9.13123 9.13125C8.34373 9.91875 7.94998 10.875 7.94998 12C7.94998 13.125 8.34373 14.0813 9.13123 14.8688C9.91873 15.6562 10.875 16.05 12 16.05ZM12.003 14.35C11.351 14.35 10.7958 14.1218 10.3375 13.6655C9.87914 13.2092 9.64998 12.655 9.64998 12.003C9.64998 11.351 9.87814 10.7958 10.3345 10.3375C10.7908 9.87917 11.345 9.65 11.997 9.65C12.649 9.65 13.2041 9.87817 13.6625 10.3345C14.1208 10.7908 14.35 11.345 14.35 11.997C14.35 12.649 14.1218 13.2042 13.6655 13.6625C13.2091 14.1208 12.655 14.35 12.003 14.35ZM12 19C9.68164 19 7.57498 18.3604 5.67998 17.0813C3.78498 15.8021 2.38331 14.1083 1.47498 12C2.38331 9.89167 3.78498 8.19792 5.67998 6.91875C7.57498 5.63958 9.68164 5 12 5C14.3183 5 16.425 5.63958 18.32 6.91875C20.215 8.19792 21.6166 9.89167 22.525 12C21.6166 14.1083 20.215 15.8021 18.32 17.0813C16.425 18.3604 14.3183 19 12 19ZM12 17.325C13.8333 17.325 15.5333 16.85 17.1 15.9C18.6666 14.95 19.8666 13.65 20.7 12C19.8666 10.35 18.6666 9.05 17.1 8.1C15.5333 7.15 13.8333 6.675 12 6.675C10.1666 6.675 8.46664 7.15 6.89998 8.1C5.33331 9.05 4.13331 10.35 3.29998 12C4.13331 13.65 5.33331 14.95 6.89998 15.9C8.46664 16.85 10.1666 17.325 12 17.325Z" fill="#F4F4F5"/>
</svg>
