<svg width="24" height="24" viewBox="0 0 24 24" fill="none" xmlns="http://www.w3.org/2000/svg">
<path fill-rule="evenodd" clip-rule="evenodd" d="M2.92999 4.34L4.33999 2.93L21.07 19.65L19.66 21.06L17.61 19.01C16.57 19.84 15.34 20.46 14 20.76V18.7C14.8 18.47 15.53 18.08 16.18 17.59L12 13.41V20L6.99999 15H2.99999V9H6.99999L7.28999 8.7L2.92999 4.34ZM18.59 14.34C18.85 13.61 19 12.82 19 12C19 8.83 16.89 6.15 14 5.29V3.23C18.01 4.14 21 7.72 21 12C21 13.39 20.68 14.7 20.12 15.87L18.59 14.34ZM12 4L10.12 5.88L12 7.76V4ZM14 7.97C15.48 8.71 16.5 10.23 16.5 12C16.5 12.08 16.49 12.16 16.48 12.24L14 9.76V7.97Z" fill="#F4F4F5"/>
</svg>
