<svg width="24" height="24" viewBox="0 0 24 24" fill="none" xmlns="http://www.w3.org/2000/svg">
<path fill-rule="evenodd" clip-rule="evenodd" d="M14.17 2.24L9.4 10.5L9.34 10.6L5.68 4.25C7.4 2.85 9.6 2 12 2C12.75 2 13.47 2.09 14.17 2.24ZM15.54 2.66C18.39 3.74 20.62 6.08 21.54 9H11.88L15.54 2.66ZM21.8 10H14.31L14.6 10.5L19.36 18.75C21 16.97 22 14.61 22 12C22 11.31 21.93 10.65 21.8 10ZM4.64 5.25L8.54 12L9.69 14H2.2C2.07 13.35 2 12.69 2 12C2 9.39 3.01 7.03 4.64 5.25ZM2.46 15C3.38 17.92 5.61 20.26 8.46 21.34L12.12 15H2.46ZM9.83 21.76L13.73 15L14.66 13.4L18.32 19.75C16.6 21.15 14.4 22 12 22C11.25 22 10.53 21.91 9.83 21.76Z" fill="#F4F4F5"/>
</svg>
