<svg width="24" height="24" viewBox="0 0 24 24" fill="none" xmlns="http://www.w3.org/2000/svg">
<path d="M15.3 8.825L14.225 7.75C14.125 7.65 14.0083 7.60417 13.875 7.6125C13.7417 7.62083 13.625 7.675 13.525 7.775C13.425 7.875 13.375 7.99167 13.375 8.125C13.375 8.25833 13.425 8.375 13.525 8.475L14.775 9.725C14.925 9.875 15.1 9.95 15.3 9.95C15.5 9.95 15.675 9.875 15.825 9.725L18.475 7.05C18.575 6.95 18.625 6.83333 18.625 6.7C18.625 6.56667 18.575 6.45 18.475 6.35C18.375 6.25 18.2583 6.2 18.125 6.2C17.9917 6.2 17.875 6.25 17.775 6.35L15.3 8.825ZM3.75 20C3.5375 20 3.35938 19.9277 3.21563 19.7831C3.07187 19.6385 3 19.4594 3 19.2456C3 19.0319 3.07187 18.8542 3.21563 18.7125C3.35938 18.5708 3.5375 18.5 3.75 18.5H14.25C14.4625 18.5 14.6406 18.5723 14.7844 18.7169C14.9281 18.8615 15 19.0406 15 19.2544C15 19.4681 14.9281 19.6458 14.7844 19.7875C14.6406 19.9292 14.4625 20 14.25 20H3.75ZM15.9973 12.75C14.6824 12.75 13.5625 12.2866 12.6375 11.3599C11.7125 10.4331 11.25 9.31225 11.25 7.99735C11.25 6.68245 11.7134 5.5625 12.6402 4.6375C13.5669 3.7125 14.6878 3.25 16.0027 3.25C17.3176 3.25 18.4375 3.71338 19.3625 4.64015C20.2875 5.56692 20.75 6.68775 20.75 8.00265C20.75 9.31755 20.2866 10.4375 19.3598 11.3625C18.4331 12.2875 17.3123 12.75 15.9973 12.75ZM3.75 11.5C3.5375 11.5 3.35938 11.4277 3.21563 11.2831C3.07187 11.1385 3 10.9594 3 10.7456C3 10.5319 3.07187 10.3542 3.21563 10.2125C3.35938 10.0708 3.5375 10 3.75 10H9.075C9.2875 10 9.46563 10.075 9.60938 10.225C9.75313 10.375 9.825 10.553 9.825 10.7591C9.825 10.953 9.75313 11.125 9.60938 11.275C9.46563 11.425 9.2875 11.5 9.075 11.5H3.75ZM3.75 15.75C3.5375 15.75 3.35938 15.6777 3.21563 15.5331C3.07187 15.3885 3 15.2094 3 14.9956C3 14.7819 3.07187 14.6042 3.21563 14.4625C3.35938 14.3208 3.5375 14.25 3.75 14.25H13.025C13.2375 14.25 13.4156 14.325 13.5594 14.475C13.7031 14.625 13.775 14.803 13.775 15.0091C13.775 15.203 13.7063 15.375 13.5688 15.525C13.4313 15.675 13.25 15.75 13.025 15.75H3.75Z" fill="#F4F4F5"/>
</svg>
