<svg width="24" height="24" viewBox="0 0 24 24" fill="none" xmlns="http://www.w3.org/2000/svg">
<path fill-rule="evenodd" clip-rule="evenodd" d="M21 3H3C1.89 3 1 3.89 1 5V19C1 20.1 1.89 21 3 21H21C22.11 21 23 20.1 23 19V5C23 3.89 22.11 3 21 3ZM6.5 10.5H4.5V13.5H6.5V10.5ZM19.5 10.5H17.5V11.5H19.5V10.5ZM6.5 15C7.35 15 8 14.35 8 13.5V10.5C8 9.65 7.35 9 6.5 9H3V15H6.5ZM11.12 15L9.37 9H10.87L11.87 12.43L12.87 9H14.37L12.62 15H11.12ZM20.1 12.9C20.6 12.65 21 12.1 21 11.5V10.5C21 9.65 20.35 9 19.5 9H16V15H17.5V13H18.65L19.5 15H21L20.1 12.9Z" fill="#F4F4F5"/>
</svg>
