<svg width="24" height="24" viewBox="0 0 24 24" fill="none" xmlns="http://www.w3.org/2000/svg">
<path fill-rule="evenodd" clip-rule="evenodd" d="M17.84 12C18.13 12.11 18.42 12.24 18.7 12.4C20.62 13.51 21.69 15.52 21.7 17.59C19.9 18.62 17.62 18.7 15.7 17.59C15.42 17.43 15.16 17.25 14.92 17.05C14.97 17.36 15 17.68 15 18C15 20.22 13.79 22.15 12 23.19C10.21 22.15 8.99999 20.22 8.99999 18C8.99999 17.68 9.02999 17.36 9.07999 17.04C8.83999 17.23 8.57999 17.42 8.29999 17.58C6.36999 18.69 4.08999 18.61 2.29999 17.58C2.30999 15.51 3.37999 13.5 5.29999 12.39C5.57999 12.23 5.86999 12.1 6.15999 11.99C5.86999 11.88 5.57999 11.75 5.29999 11.59C3.36999 10.48 2.29999 8.47 2.29999 6.4C4.09999 5.37 6.37999 5.29 8.29999 6.4C8.57999 6.56 8.83999 6.75 9.07999 6.95C9.02999 6.64 8.99999 6.32 8.99999 6C8.99999 3.78 10.21 1.85 12 0.809998C13.79 1.85 15 3.78 15 6C15 6.32 14.97 6.64 14.92 6.95C15.16 6.76 15.42 6.57 15.7 6.41C17.63 5.3 19.91 5.38 21.7 6.41C21.69 8.48 20.62 10.49 18.7 11.6C18.42 11.76 18.13 11.89 17.84 12ZM7.99999 12C7.99999 14.21 9.78999 16 12 16C14.21 16 16 14.21 16 12C16 9.79 14.21 8 12 8C9.78999 8 7.99999 9.79 7.99999 12Z" fill="#F4F4F5"/>
</svg>
