<svg width="24" height="24" viewBox="0 0 24 24" fill="none" xmlns="http://www.w3.org/2000/svg">
<path fill-rule="evenodd" clip-rule="evenodd" d="M1.45001 3.55001L2.51001 2.49001L21.56 21.54L20.5 22.6L12.9 15H9.50001V11.6L8.00001 10.1V15H6.50001V12.5H4.50001V15H3.00001V9.00001H4.50001V11H6.50001V9.00001H6.90001L1.45001 3.55001ZM13 10.5V10.86L14.5 12.36V10.5C14.5 9.70001 13.8 9.00001 13 9.00001H11.14L12.64 10.5H13ZM17.5 13V15H17.14L16 13.86V9.00001H19.5C20.3 9.00001 21 9.70001 21 10.5V11.5C21 12.1 20.6 12.6 20.1 12.9L21 15H19.5L18.6 13H17.5ZM19.5 10.5H17.5V11.5H19.5V10.5Z" fill="#F4F4F5"/>
</svg>
