<svg width="24" height="24" viewBox="0 0 24 24" fill="none" xmlns="http://www.w3.org/2000/svg">
<path fill-rule="evenodd" clip-rule="evenodd" d="M19.3 8.89C19.74 8.19 20 7.38 20 6.5C20 4.01 17.99 2 15.5 2C13.01 2 11 4.01 11 6.5C11 8.99 13.01 11 15.49 11C16.37 11 17.19 10.74 17.88 10.3L21 13.42L22.42 12L19.3 8.89ZM18 20V13L20 15V20C20 21.1 19.1 22 18 22H4C2.9 22 2 21.1 2 20V6C2 4.9 2.9 4 4 4H9.5C9.24 4.62 9.07 5.29 9.02 6H4V20H18ZM16.5 18L12.96 13.29L10.21 16.83L8.25 14.47L5.5 18H16.5ZM13 6.5C13 7.88 14.12 9 15.5 9C16.88 9 18 7.88 18 6.5C18 5.12 16.88 4 15.5 4C14.12 4 13 5.12 13 6.5Z" fill="#F4F4F5"/>
</svg>
