<svg width="24" height="24" viewBox="0 0 24 24" fill="none" xmlns="http://www.w3.org/2000/svg">
<path fill-rule="evenodd" clip-rule="evenodd" d="M3 4.27L4.41 2.86L21.14 19.59L19.73 21L16.89 18.16C16.33 18.97 16 19.94 16 21H14C14 19.39 14.55 17.91 15.46 16.73L14.03 15.3C12.76 16.86 12 18.84 12 21H10C10 18.29 10.99 15.81 12.62 13.89L10.11 11.38C8.2 13.01 5.72 14 3 14V12C5.16 12 7.14 11.24 8.7 9.97L7.27 8.54C6.09 9.45 4.61 10 3 10V8C4.06 8 5.03 7.67 5.84 7.11L3 4.27ZM10 3H8C8 3.12522 7.98263 3.24609 7.96505 3.36835C7.95596 3.4316 7.94682 3.49522 7.94 3.56L9.62 5.24C9.87 4.54 10 3.78 10 3ZM14 3H12C12 4.35 11.69 5.63 11.16 6.77L12.65 8.26C13.51 6.7 14 4.91 14 3ZM21 12V10C19.09 10 17.3 10.49 15.73 11.35L17.22 12.84C18.37 12.31 19.65 12 21 12ZM21 14V16C20.8919 16 20.787 16.013 20.6817 16.026C20.6019 16.0358 20.5219 16.0457 20.44 16.05L18.76 14.37C19.46 14.13 20.21 14 21 14Z" fill="#F4F4F5"/>
</svg>
