<svg width="24" height="24" viewBox="0 0 24 24" fill="none" xmlns="http://www.w3.org/2000/svg">
<path fill-rule="evenodd" clip-rule="evenodd" d="M20.67 8H22C22 4.69 19.31 2 16 2V3.33C18.58 3.33 20.67 5.42 20.67 8ZM12 17C13.6569 17 15 15.6569 15 14C15 12.3431 13.6569 11 12 11C10.3431 11 9 12.3431 9 14C9 15.6569 10.3431 17 12 17ZM19.33 8H18C18 6.89 17.11 6 16 6V4.67C17.84 4.67 19.33 6.16 19.33 8ZM15 7V4H9L7.17 6H4C2.9 6 2 6.9 2 8V20C2 21.1 2.9 22 4 22H20C21.1 22 22 21.1 22 20V9H17C17 7.89 16.11 7 15 7ZM7 14C7 16.76 9.24 19 12 19C14.76 19 17 16.76 17 14C17 11.24 14.76 9 12 9C9.24 9 7 11.24 7 14Z" fill="#F4F4F5"/>
</svg>
