<svg width="24" height="24" viewBox="0 0 24 24" fill="none" xmlns="http://www.w3.org/2000/svg">
<path fill-rule="evenodd" clip-rule="evenodd" d="M16.83 5H20C21.1 5 22 5.9 22 7V19C22 20.1 21.1 21 20 21H13V18.91C15.83 18.43 18 15.97 18 13H16C16 15.21 14.21 17 12 17C9.79 17 8 15.21 8 13H6C6 15.97 8.17 18.43 11 18.91V21H4C2.9 21 2 20.1 2 19V7C2 5.9 2.9 5 4 5H7.17L8.96 3H14.96L16.83 5ZM12 15C13.1 15 14 14.1 14 13V9C14 7.9 13.1 7 12 7C10.9 7 10 7.9 10 9V13C10 14.1 10.9 15 12 15Z" fill="#F4F4F5"/>
</svg>
