<svg width="24" height="24" viewBox="0 0 24 24" fill="none" xmlns="http://www.w3.org/2000/svg">
<path fill-rule="evenodd" clip-rule="evenodd" d="M13 4C15.3 4 17.61 4.88 19.36 6.64C22.88 10.15 22.88 15.85 19.36 19.36C17.61 21.12 15.3 22 13 22C11.51 22 10.02 21.62 8.66999 20.88L10.16 19.39C11.06 19.79 12.03 20 13 20C14.79 20 16.58 19.32 17.95 17.95C20.68 15.22 20.68 10.78 17.95 8.05C16.58 6.68 14.79 6 13 6V9.24L8.75999 5L13 0.76V4ZM7.33999 6.41L0.859985 12.9L7.34999 19.38L13.84 12.9L7.33999 6.41ZM3.68999 12.9L7.34999 9.24L11 12.9L7.33999 16.56L3.68999 12.9Z" fill="#F4F4F5"/>
</svg>
