<svg width="24" height="24" viewBox="0 0 24 24" fill="none" xmlns="http://www.w3.org/2000/svg">
<path fill-rule="evenodd" clip-rule="evenodd" d="M14.5355 14.5355C16.4882 12.5829 16.4882 9.41709 14.5355 7.46447C12.5829 5.51184 9.41709 5.51184 7.46447 7.46447C5.51184 9.41709 5.51184 12.5829 7.46447 14.5355C9.41709 16.4882 12.5829 16.4882 14.5355 14.5355ZM15.9497 15.9497C18.6834 13.2161 18.6834 8.78392 15.9497 6.05025C13.2161 3.31658 8.78392 3.31658 6.05025 6.05025C3.31658 8.78392 3.31658 13.2161 6.05025 15.9497C8.78392 18.6834 13.2161 18.6834 15.9497 15.9497Z" fill="#F4F4F5"/>
<path d="M14.5355 15.9497L15.9497 14.5355L20.8995 19.4853L19.4853 20.8995L14.5355 15.9497Z" fill="#F4F4F5"/>
</svg>
