<svg width="24" height="24" viewBox="0 0 24 24" fill="none" xmlns="http://www.w3.org/2000/svg">
<path fill-rule="evenodd" clip-rule="evenodd" d="M15 1H9V3H15V1ZM19.03 7.39L20.45 5.97C20.02 5.46 19.55 4.98 19.04 4.56L17.62 5.98C16.07 4.74 14.12 4 12 4C7.03 4 3 8.03 3 13C3 17.97 7.02 22 12 22C16.98 22 21 17.97 21 13C21 10.88 20.26 8.93 19.03 7.39ZM5 13C5 16.87 8.13 20 12 20C15.87 20 19 16.87 19 13C19 9.13 15.87 6 12 6C8.13 6 5 9.13 5 13ZM11.68 15H6.35C6.92 16.62 8.17 17.92 9.76 18.56L9.65 18.5L11.68 15ZM14.31 7.46C15.87 8.11 17.08 9.4 17.65 11H12.26L14.31 7.46ZM10.61 18.83C11.06 18.94 11.52 19 12 19C13.34 19 14.57 18.55 15.57 17.81L13.46 13.91L10.61 18.83ZM6 13C6 11.46 6.59 10.05 7.55 8.99L10.81 14H6.09C6.04 13.67 6 13.34 6 13ZM16.34 17.13C17.37 16.06 18 14.6 18 13C18 12.66 17.96 12.33 17.91 12H13.57L16.34 17.13ZM12 7C12.46 7 12.9 7.06 13.33 7.15L10.61 11.85L8.29 8.29C9.31 7.49 10.6 7 12 7Z" fill="#F4F4F5"/>
</svg>
