<svg width="24" height="24" viewBox="0 0 24 24" fill="none" xmlns="http://www.w3.org/2000/svg">
<path d="M14.7692 13.4375C14.7692 10.7925 16.8369 8.64582 19.3846 8.64582C20.1692 8.64582 20.8985 8.86624 21.5446 9.23041L23.6123 6.55666C23.1692 6.21166 18.7015 2.41666 12 2.41666C5.29846 2.41666 0.830772 6.21166 0.387695 6.55666L12 21.5833L15.8954 16.5425C15.2031 15.7087 14.7692 14.6258 14.7692 13.4375Z" fill="#F4F4F5"/>
<path d="M19.3846 10.0833C17.6031 10.0833 16.1538 11.5879 16.1538 13.4375H17.7692C17.7692 12.5079 18.4892 11.7604 19.3846 11.7604C20.28 11.7604 21 12.5079 21 13.4375C21 13.8975 20.8154 14.3191 20.5292 14.6258L19.5231 15.68C18.9415 16.2837 18.5815 17.1271 18.5815 18.0471V18.4687H20.1969C20.1969 17.2133 20.5569 16.7054 21.1477 16.1016L21.8677 15.335C22.3292 14.8558 22.6246 14.185 22.6246 13.4471C22.6154 11.5879 21.1661 10.0833 19.3846 10.0833Z" fill="#F4F4F5"/>
<path d="M18.5077 21.5354H20.2615V19.7146H18.5077V21.5354Z" fill="#F4F4F5"/>
</svg>
