<svg width="24" height="24" viewBox="0 0 24 24" fill="none" xmlns="http://www.w3.org/2000/svg">
<path fill-rule="evenodd" clip-rule="evenodd" d="M11 2.05V4.07C9.53999 4.25 8.20999 4.83 7.09999 5.69L5.67999 4.26C7.15999 3.05 8.98999 2.25 11 2.05ZM13.05 9.79L9.99999 7.5V16.5L13.05 14.21L16 12L13.05 9.79ZM5.68999 7.1L4.25999 5.68C3.04999 7.16 2.24999 8.99 2.04999 11H4.06999C4.24999 9.54 4.82999 8.21 5.68999 7.1ZM2.04999 13H4.06999C4.24999 14.46 4.82999 15.79 5.68999 16.89L4.25999 18.32C3.04999 16.84 2.24999 15.01 2.04999 13ZM5.67999 19.74C7.15999 20.95 8.99999 21.75 11 21.95V19.93C9.53999 19.75 8.20999 19.17 7.09999 18.31L5.67999 19.74ZM13.05 21.95C18.08 21.42 22 17.16 22 12C22 6.84 18.08 2.58 13.05 2.05V4.07C16.97 4.59 20 7.95 20 12C20 16.05 16.97 19.41 13.05 19.93V21.95Z" fill="#F4F4F5"/>
</svg>
