<svg width="24" height="24" viewBox="0 0 24 24" fill="none" xmlns="http://www.w3.org/2000/svg">
<path fill-rule="evenodd" clip-rule="evenodd" d="M4.25 4.21C6.24 2.23 8.98 1 12 1C15.02 1 17.76 2.23 19.75 4.21L18.34 5.62C16.72 4 14.47 3 12 3C9.53 3 7.28 4 5.66 5.62L4.25 4.21ZM8.43 8.5L7 7.07C8.28 5.79 10.05 5 12 5C13.95 5 15.72 5.79 17 7.07L15.57 8.5C14.66 7.59 13.39 7.02 12 7.02C10.61 7.02 9.34 7.59 8.43 8.5ZM9.14 10C8.51 10 8 10.51 8 11.14V20.85C8 21.48 8.51 21.99 9.14 21.99H14.85C15.48 21.99 15.99 21.48 15.99 20.85V11.14C16 10.51 15.49 10.01 14.86 10.01L9.14 10ZM9 12V20H15V12H9Z" fill="#F4F4F5"/>
</svg>
