<svg width="24" height="24" viewBox="0 0 24 24" fill="none" xmlns="http://www.w3.org/2000/svg">
<path fill-rule="evenodd" clip-rule="evenodd" d="M10.99 12.32C11.25 12.51 11.45 12.73 11.61 12.97C11.77 13.22 11.88 13.48 11.96 13.73C12.03 14.01 12.07 14.3 12.07 14.59C12.07 15.14 11.97 15.64 11.77 16.07C11.57 16.51 11.29 16.87 10.93 17.17C10.58 17.47 10.16 17.7 9.67 17.85C9.18 18 8.66 18.08 8.09 18.08C7.57 18.08 7.08 18.01 6.61 17.87C6.14 17.73 5.73 17.52 5.37 17.24C5.01 16.96 4.72 16.61 4.51 16.19C4.3 15.77 4.19 15.29 4.19 14.74H6.18C6.18 15 6.23 15.24 6.32 15.46C6.41 15.68 6.54 15.86 6.71 16.02C6.88 16.18 7.08 16.3 7.32 16.38C7.56 16.47 7.83 16.51 8.12 16.51C8.73 16.51 9.22 16.35 9.57 16.02C9.92 15.69 10.1 15.22 10.1 14.6C10.1 14.27 10.04 13.97 9.94 13.73C9.84 13.48 9.69 13.28 9.5 13.12C9.31 12.96 9.08 12.85 8.81 12.77C8.54 12.7 8.24 12.66 7.9 12.66H6.72V11.09H7.89C8.23 11.09 8.53 11.05 8.78 10.96C9.03 10.87 9.24 10.75 9.41 10.59C9.58 10.43 9.71 10.24 9.79 10.02C9.87 9.8 9.91 9.55 9.91 9.28C9.91 8.71 9.77 8.27 9.47 7.96C9.17 7.65 8.72 7.49 8.11 7.49C7.84 7.49 7.6 7.53 7.38 7.61C7.16 7.69 6.97 7.8 6.8 7.94C6.64 8.08 6.51 8.26 6.42 8.46C6.33 8.66 6.28 8.89 6.28 9.15H4.3C4.3 8.69 4.39 8.25 4.59 7.86C4.77 7.46 5.04 7.12 5.37 6.83C5.7 6.54 6.1 6.31 6.57 6.14C7.03 5.98 7.54 5.9 8.09 5.9C8.65 5.9 9.17 5.97 9.62 6.1C10.09 6.24 10.49 6.46 10.82 6.74C11.16 7.03 11.42 7.38 11.6 7.8C11.79 8.22 11.88 8.71 11.88 9.26C11.88 9.5 11.85 9.75 11.77 9.99C11.7 10.24 11.58 10.47 11.43 10.7C11.28 10.93 11.09 11.14 10.86 11.34C10.63 11.54 10.36 11.7 10.06 11.84C10.43 11.97 10.74 12.13 10.99 12.32ZM20.24 13.63C20.52 13.84 20.73 14.09 20.87 14.37C21.02 14.65 21.09 14.99 21.11 15.39C21.11 15.78 21.03 16.13 20.86 16.45C20.69 16.77 20.46 17.05 20.15 17.28C19.84 17.51 19.47 17.69 19.04 17.82C18.61 17.95 18.13 18.01 17.6 18.01C17 18.01 16.48 17.93 16.02 17.76C15.56 17.59 15.18 17.37 14.87 17.1C14.56 16.82 14.33 16.51 14.17 16.17C14.01 15.83 13.93 15.48 13.93 15.12H15.82C15.83 15.38 15.89 15.61 16 15.79C16.11 15.97 16.24 16.12 16.41 16.23C16.57 16.34 16.76 16.42 16.97 16.47C17.18 16.53 17.39 16.55 17.61 16.55C18.12 16.55 18.51 16.46 18.78 16.26C19.05 16.06 19.18 15.81 19.18 15.49C19.18 15.35 19.16 15.22 19.11 15.1C19.06 14.98 18.97 14.86 18.84 14.76C18.7 14.66 18.51 14.56 18.27 14.47C18.03 14.38 17.71 14.29 17.32 14.21C16.86 14.11 16.43 13.99 16.05 13.85C15.67 13.7 15.34 13.53 15.07 13.32C14.8 13.11 14.58 12.87 14.43 12.59C14.28 12.31 14.2 11.99 14.2 11.63C14.2 11.27 14.27 10.94 14.43 10.62C14.59 10.3 14.81 10.02 15.1 9.78C15.39 9.54 15.75 9.35 16.16 9.21C16.57 9.07 17.04 9 17.55 9C18.09 9 18.58 9.07 19.01 9.22C19.44 9.37 19.8 9.56 20.1 9.81C20.4 10.06 20.63 10.35 20.79 10.69C20.95 11.03 21.03 11.39 21.03 11.78H19.08C19.08 11.61 19.04 11.45 18.98 11.29C18.91 11.13 18.82 10.99 18.69 10.87C18.56 10.75 18.4 10.65 18.21 10.58C18.02 10.51 17.8 10.47 17.55 10.47C17.31 10.47 17.09 10.5 16.91 10.56C16.73 10.62 16.58 10.7 16.46 10.8C16.34 10.89 16.25 11.01 16.19 11.14C16.13 11.27 16.1 11.4 16.1 11.55C16.1 11.7 16.13 11.83 16.18 11.94C16.23 12.05 16.32 12.15 16.46 12.24C16.6 12.33 16.78 12.41 17.01 12.49C17.24 12.57 17.53 12.65 17.88 12.72C18.38 12.83 18.83 12.96 19.23 13.1C19.63 13.24 19.96 13.42 20.24 13.63Z" fill="#F4F4F5"/>
</svg>
