<svg width="24" height="24" viewBox="0 0 24 24" fill="none" xmlns="http://www.w3.org/2000/svg">
<path fill-rule="evenodd" clip-rule="evenodd" d="M13.6707 7.25625C13.3569 6.87292 12.9784 6.58542 12.5354 6.41292C12.1015 6.24042 11.603 6.15417 11.0677 6.15417C10.5323 6.15417 10.043 6.24042 9.59997 6.41292C9.1569 6.58542 8.77843 6.86333 8.46459 7.25625C8.15074 7.64917 7.91074 8.1475 7.73536 8.78C7.5692 9.40292 7.4769 10.1696 7.4769 11.0704V12.9104C7.4769 13.8113 7.55997 14.5779 7.73536 15.2008C7.91074 15.8333 8.15074 16.3413 8.47382 16.7342C8.78766 17.1271 9.16613 17.4146 9.6092 17.5871C10.0523 17.7596 10.5415 17.8554 11.0769 17.8554C11.6215 17.8554 12.1107 17.7692 12.5446 17.5871C12.9877 17.4146 13.3569 17.1271 13.6707 16.7342C13.9846 16.3413 14.2246 15.8333 14.3907 15.2008C14.5569 14.5779 14.6492 13.8113 14.6492 12.9104V11.0704C14.6492 10.1696 14.5661 9.40292 14.3907 8.78C14.2246 8.1475 13.9846 7.63958 13.6707 7.25625ZM0.913818 9.50833V7.89833L5.29843 6.25H5.5292V17.75H3.68305V8.55L0.913818 9.50833ZM22.2831 13.5621C22.5415 13.7633 22.7354 14.0029 22.8646 14.2712C23.003 14.5396 23.0677 14.8654 23.0861 15.2488C23.0861 15.6225 23.0123 15.9579 22.8554 16.2646C22.6984 16.5712 22.4861 16.8396 22.2 17.06C21.9138 17.2804 21.5723 17.4529 21.1754 17.5775C20.7784 17.7021 20.3354 17.7596 19.8461 17.7596C19.2923 17.7596 18.8123 17.6829 18.3877 17.52C17.963 17.3571 17.6123 17.1463 17.3261 16.8875C17.04 16.6192 16.8277 16.3221 16.68 15.9963C16.5323 15.6704 16.4584 15.335 16.4584 14.99H18.203C18.2123 15.2392 18.2677 15.4596 18.3692 15.6321C18.4707 15.8046 18.5907 15.9483 18.7477 16.0538C18.8954 16.1592 19.0707 16.2358 19.2646 16.2838C19.4584 16.3413 19.6523 16.3604 19.8554 16.3604C20.3261 16.3604 20.6861 16.2742 20.9354 16.0825C21.1846 15.8908 21.3046 15.6513 21.3046 15.3446C21.3046 15.2104 21.2861 15.0858 21.24 14.9708C21.1938 14.8558 21.1107 14.7408 20.9907 14.645C20.8615 14.5492 20.6861 14.4533 20.4646 14.3671C20.243 14.2808 19.9477 14.1946 19.5877 14.1179C19.163 14.0221 18.7661 13.9071 18.4154 13.7729C18.0646 13.6292 17.76 13.4663 17.5107 13.265C17.2523 13.0638 17.0584 12.8338 16.92 12.5654C16.7815 12.3067 16.7077 11.9904 16.7077 11.6454C16.7077 11.3004 16.7723 10.9842 16.92 10.6775C17.0677 10.3708 17.2707 10.1025 17.5384 9.8725C17.8061 9.6425 18.1384 9.46042 18.5169 9.32625C18.8954 9.19208 19.3292 9.125 19.8 9.125C20.2984 9.125 20.7507 9.19208 21.1477 9.33583C21.5446 9.47958 21.8769 9.66167 22.1538 9.90125C22.4307 10.1408 22.643 10.4188 22.7907 10.7446C22.9384 11.0704 23.0123 11.4154 23.0123 11.7892H21.2123C21.2123 11.6263 21.1754 11.4729 21.12 11.3196C21.0554 11.1663 20.9723 11.0321 20.8523 10.9171C20.7323 10.8021 20.5846 10.7063 20.4092 10.6392C20.2338 10.5721 20.0307 10.5338 19.8 10.5338C19.5784 10.5338 19.3754 10.5625 19.2092 10.62C19.043 10.6775 18.9046 10.7542 18.7938 10.85C18.6831 10.9363 18.6 11.0513 18.5446 11.1758C18.4892 11.3004 18.4615 11.4346 18.4615 11.5688C18.4615 11.7125 18.4892 11.8371 18.5354 11.9425C18.5815 12.0479 18.6646 12.1438 18.7938 12.23C18.923 12.3163 19.0892 12.3929 19.3015 12.4696C19.5138 12.5463 19.7815 12.6229 20.1046 12.69C20.5661 12.7954 20.9815 12.92 21.3507 13.0542C21.72 13.1883 22.0246 13.3608 22.2831 13.5621ZM12.7107 14.6354C12.7846 14.2329 12.8215 13.7442 12.8215 13.1692H12.8307V10.7638C12.8307 10.1888 12.7846 9.7 12.7107 9.30708C12.6369 8.91417 12.5169 8.59792 12.3692 8.35833C12.2215 8.10917 12.0369 7.93667 11.8154 7.83125C11.603 7.72583 11.3538 7.66833 11.0677 7.66833C10.7907 7.66833 10.5415 7.72583 10.32 7.83125C10.0984 7.94625 9.91382 8.11875 9.76613 8.35833C9.6092 8.6075 9.49843 8.92375 9.41536 9.31667C9.33228 9.70958 9.29536 10.1983 9.29536 10.7733V13.1692C9.29536 13.7442 9.33228 14.2329 9.41536 14.6354C9.49843 15.0379 9.61843 15.3638 9.76613 15.6129C9.91382 15.8621 10.0984 16.0442 10.32 16.1592C10.5415 16.2742 10.8 16.3317 11.0769 16.3317C11.363 16.3317 11.6215 16.2742 11.8338 16.1592C12.0461 16.0442 12.2307 15.8621 12.3784 15.6129C12.5261 15.3638 12.6369 15.0379 12.7107 14.6354Z" fill="#F4F4F5"/>
</svg>
