<svg width="24" height="24" viewBox="0 0 24 24" fill="none" xmlns="http://www.w3.org/2000/svg">
<path d="M12.003 14.35C11.351 14.35 10.7958 14.1218 10.3375 13.6655C9.87914 13.2092 9.64997 12.655 9.64997 12.003C9.64997 11.351 9.87814 10.7958 10.3345 10.3375C10.7908 9.87917 11.345 9.65 11.997 9.65C12.649 9.65 13.2041 9.87817 13.6625 10.3345C14.1208 10.7908 14.35 11.345 14.35 11.997C14.35 12.649 14.1218 13.2042 13.6655 13.6625C13.2091 14.1208 12.655 14.35 12.003 14.35ZM12 19C9.68164 19 7.57498 18.3604 5.67998 17.0812C3.78498 15.8021 2.38331 14.1083 1.47498 12C2.38331 9.89167 3.78498 8.19792 5.67998 6.91875C7.57498 5.63958 9.68164 5 12 5C14.189 5 16.1841 5.56875 17.9855 6.70625C19.7868 7.84375 21.1833 9.36667 22.175 11.275H20.2875C19.3958 9.84167 18.2173 8.71667 16.752 7.9C15.2868 7.08333 13.7031 6.675 12.0007 6.675C10.1669 6.675 8.46664 7.15 6.89998 8.1C5.33331 9.05 4.13331 10.35 3.29998 12C4.13331 13.65 5.33331 14.95 6.89998 15.9C8.46664 16.85 10.1666 17.325 12 17.325C12.4166 17.325 12.8194 17.3 13.2082 17.25C13.5972 17.2 13.9778 17.125 14.35 17.025V18.75C13.9778 18.8333 13.5972 18.8958 13.2082 18.9375C12.8194 18.9792 12.4166 19 12 19ZM12.0052 16.05C12.4357 16.05 12.8527 15.9844 13.2562 15.8532C13.6597 15.7221 14.0243 15.5418 14.35 15.3125C14.375 14.6042 14.5376 13.983 14.8377 13.449C15.1381 12.915 15.5421 12.4682 16.05 12.1087V12C16.05 10.875 15.6562 9.91875 14.8687 9.13125C14.0812 8.34375 13.125 7.95 12 7.95C10.875 7.95 9.91873 8.34375 9.13123 9.13125C8.34373 9.91875 7.94998 10.875 7.94998 12C7.94998 13.125 8.34422 14.0812 9.13273 14.8687C9.92122 15.6562 10.8787 16.05 12.0052 16.05ZM16.5875 20.175C16.4341 20.175 16.3021 20.1196 16.1912 20.0087C16.0804 19.8979 16.025 19.7658 16.025 19.6125V16.0125C16.025 15.8625 16.0833 15.7271 16.2 15.6062C16.3166 15.4854 16.4583 15.4333 16.625 15.45H17.225V14.2125C17.225 13.7278 17.3983 13.3129 17.745 12.9677C18.0915 12.6226 18.5081 12.45 18.995 12.45C19.4816 12.45 19.8958 12.6226 20.2375 12.9677C20.5791 13.3129 20.75 13.7278 20.75 14.2125V15.45H21.35C21.52 15.45 21.6625 15.5054 21.7775 15.6162C21.8925 15.7271 21.95 15.8592 21.95 16.0125V19.6125C21.95 19.7658 21.8946 19.8979 21.7837 20.0087C21.6729 20.1196 21.5408 20.175 21.3875 20.175H16.5875ZM18.05 15.45H19.925V14.215C19.925 13.95 19.8359 13.7271 19.6577 13.5462C19.4794 13.3654 19.2586 13.275 18.9952 13.275C18.7317 13.275 18.5083 13.3648 18.325 13.5445C18.1416 13.7242 18.05 13.9468 18.05 14.2125V15.45Z" fill="#F4F4F5"/>
</svg>
