<svg width="24" height="24" viewBox="0 0 24 24" fill="none" xmlns="http://www.w3.org/2000/svg">
<path d="M15.7875 13.375L14.325 11.9125C14.4083 11.2125 14.2146 10.6396 13.7437 10.1937C13.2729 9.7479 12.7208 9.56666 12.0875 9.64999L10.625 8.18749C10.8416 8.10416 11.0708 8.04374 11.3125 8.00624C11.5541 7.96874 11.7833 7.94999 12 7.94999C13.1333 7.94999 14.0916 8.34165 14.875 9.12499C15.6583 9.90832 16.05 10.8667 16.05 12C16.05 12.2167 16.0312 12.4479 15.9937 12.6937C15.9562 12.9396 15.8875 13.1667 15.7875 13.375ZM19 16.6125L17.8125 15.4C18.3958 14.95 18.9396 14.4417 19.4437 13.875C19.9479 13.3083 20.3666 12.6833 20.7 12C19.9 10.3417 18.7146 9.03957 17.1437 8.09374C15.5729 7.1479 13.8583 6.67499 12 6.67499C11.5833 6.67499 11.1541 6.70415 10.7125 6.76249C10.2708 6.82082 9.85414 6.90832 9.46248 7.02499L8.09998 5.66249C8.70831 5.42082 9.34581 5.24999 10.0125 5.14999C10.6791 5.04999 11.3416 4.99999 12 4.99999C14.3166 4.99999 16.4375 5.62915 18.3625 6.88749C20.2875 8.14582 21.675 9.84999 22.525 12C22.1583 12.9167 21.6771 13.7562 21.0812 14.5187C20.4854 15.2812 19.7916 15.9792 19 16.6125ZM19.075 21.425L15.9375 18.2875C15.3291 18.5208 14.6937 18.6979 14.0312 18.8187C13.3687 18.9396 12.6916 19 12 19C9.68331 19 7.56248 18.3708 5.63748 17.1125C3.71248 15.8542 2.32498 14.15 1.47498 12C1.84164 11.0667 2.32498 10.2146 2.92498 9.44374C3.52498 8.6729 4.21664 7.97499 4.99998 7.34999L2.54998 4.84999L3.72498 3.67499L20.275 20.25L19.075 21.425ZM6.19998 8.54999C5.61664 8.99999 5.06664 9.51249 4.54998 10.0875C4.03331 10.6625 3.61664 11.3 3.29998 12C4.09998 13.6583 5.28539 14.9604 6.85623 15.9062C8.42706 16.8521 10.1416 17.325 12 17.325C12.4583 17.325 12.9104 17.2958 13.3562 17.2375C13.8021 17.1792 14.225 17.0917 14.625 16.975L13.45 15.8C13.2166 15.8833 12.975 15.9458 12.725 15.9875C12.475 16.0292 12.2333 16.05 12 16.05C10.8666 16.05 9.90831 15.6583 9.12498 14.875C8.34164 14.0917 7.94998 13.1333 7.94998 12C7.94998 11.7667 7.97914 11.5292 8.03748 11.2875C8.09581 11.0458 8.14998 10.8083 8.19998 10.575L6.19998 8.54999Z" fill="white"/>
</svg>
