<svg width="48" height="48" viewBox="0 0 48 48" fill="none" xmlns="http://www.w3.org/2000/svg">
<path fill-rule="evenodd" clip-rule="evenodd" d="M36.4472 0.0190175C37.1665 0.0930594 37.9533 0.413448 38.7 0.807159C39.4635 1.20972 40.2615 1.73052 41.02 2.27656C42.537 3.36876 43.9557 4.60563 44.7199 5.3228L44.9022 5.4938L44.9666 5.73549C45.7362 8.61838 44.8582 11.632 43.5056 14.5756C44.9044 17.4423 45.6896 20.6644 45.6896 24.0703C45.6896 26.2155 45.378 28.2878 44.7979 30.2443C46.1845 31.792 47.2573 33.5845 47.9427 35.6961L48 35.8726L47.9809 36.057C47.9065 36.7776 47.5861 37.5655 47.1925 38.3134C46.7901 39.078 46.2696 39.8771 45.724 40.6366C44.6326 42.1556 43.397 43.5759 42.6805 44.3409L42.5097 44.5234L42.2684 44.5879C39.5496 45.3141 36.7162 44.5671 33.9372 43.3394C30.9827 44.8589 27.6332 45.7165 24.0837 45.7165C21.7564 45.7165 19.5152 45.3479 17.4149 44.6658C15.8171 46.1254 13.9607 47.2459 11.7627 47.9439L11.5862 48L11.4022 47.9795C10.6836 47.8995 9.89947 47.5726 9.156 47.1727C8.39583 46.7638 7.6021 46.2365 6.8482 45.6842C5.34022 44.5795 3.93177 43.3309 3.17353 42.6075L2.99268 42.4349L2.9302 42.1927C2.17668 39.2735 3.10564 36.2307 4.51436 33.2578C3.20764 30.4689 2.47736 27.355 2.47736 24.0703C2.47736 21.9297 2.7875 19.8618 3.36519 17.909C1.89689 16.3149 0.766436 14.4592 0.0569462 12.2581L0 12.0815L0.0194626 11.8971C0.0954071 11.1767 0.417448 10.3894 0.812544 9.64234C1.21652 8.87854 1.7386 8.08051 2.28578 7.32221C3.38024 5.80544 4.61883 4.38764 5.33684 3.62407L5.50808 3.44192L5.74948 3.37797C8.55007 2.63608 11.4686 3.45596 14.3228 4.75364C17.2546 3.26374 20.5712 2.42397 24.0837 2.42396C26.3038 2.42396 28.4456 2.75967 30.4615 3.38278C32.0473 1.90973 33.8946 0.773752 36.087 0.0575339L36.2631 0L36.4472 0.0190175ZM15.5041 30.2421L17.292 31.2026L16.9425 31.953C16.1617 33.6292 14.4033 36.3601 12.1196 38.6583C10.3639 40.4252 8.18593 42.0482 5.81363 42.6278C6.43106 43.1548 7.14454 43.7322 7.87979 44.2708C8.59637 44.7958 9.31874 45.273 9.98264 45.63C10.569 45.9454 11.0569 46.1379 11.4263 46.2124C16.3144 44.5815 19.394 40.5059 21.8421 34.6761L22.2384 33.7322L23.1075 34.2712C23.3074 34.3951 23.4934 34.5088 23.6659 34.6128L21.8324 27.7637L15.5041 30.2421ZM36.544 35.8173C33.4237 39.1381 28.9958 41.2117 24.0842 41.2117C22.8904 41.2117 21.7252 41.0892 20.6003 40.856C20.04 41.7122 19.4405 42.5133 18.7946 43.252C20.4785 43.717 22.2521 43.9656 24.0837 43.9656C29.7557 43.9656 34.8722 41.5831 38.4909 37.7626C38.1633 37.3865 37.8142 37.0176 37.4483 36.658C37.1532 36.368 36.8504 36.0875 36.544 35.8173ZM39.5769 39.1574C38.4533 40.3152 37.2016 41.3475 35.8447 42.2314C37.7587 42.9549 39.519 43.2932 41.1459 43.0379C41.0198 41.7341 40.4418 40.4194 39.5769 39.1574ZM27.7252 25.7589L30.2463 32.0802L31.1917 30.2818L31.9433 30.6264C33.6222 31.3961 36.3611 33.1373 38.672 35.408C40.4487 37.1538 42.0849 39.3235 42.6812 41.6958C43.2026 41.0733 43.7734 40.3542 44.3055 39.6136C44.8242 38.8918 45.2951 38.1645 45.6465 37.4967C45.9569 36.9069 46.1454 36.4167 46.217 36.046C44.5527 31.1612 40.4617 28.1065 34.6245 25.6975L33.6795 25.3074L34.2109 24.4327C34.3332 24.2315 34.4453 24.0444 34.5478 23.8708L27.7252 25.7589ZM5.55589 35.2128C4.66944 37.3389 4.21877 39.2857 4.48561 41.0797C5.90846 40.9523 7.34835 40.2843 8.72093 39.2912C7.51172 38.0663 6.44741 36.6975 5.55589 35.2128ZM24.0842 8.67983C19.7257 8.67983 15.7914 10.4984 12.9955 13.4193C14.0983 14.2536 15.1698 14.9306 16.0386 15.399L17.9724 11.7384L22.5991 23.4086L10.0896 26.8428L10.8681 25.1388L10.8685 25.1379L10.8691 25.1365L10.8707 25.1331L10.8754 25.1231C10.8792 25.115 10.8844 25.1039 10.8911 25.0899C10.9044 25.0619 10.9238 25.022 10.9498 24.97C11.0017 24.866 11.08 24.713 11.1901 24.5085C11.3265 24.255 11.5118 23.922 11.7559 23.504C10.7425 23.057 9.77167 22.5827 8.85076 22.0737C8.76618 22.7272 8.72229 23.3937 8.72229 24.0703C8.72229 28.2614 10.3944 32.0609 13.1066 34.8363C13.8928 33.7896 14.534 32.7778 14.9845 31.9497L11.3413 29.9925L23.0147 25.4207L26.3745 37.9719L24.678 37.1828L24.677 37.1823L24.6723 37.18L24.6623 37.1753C24.6542 37.1714 24.6432 37.1662 24.6293 37.1594C24.6014 37.1458 24.5617 37.1262 24.5099 37.0999C24.4063 37.0474 24.2541 36.9681 24.0505 36.8567C23.7983 36.7186 23.467 36.5312 23.051 36.2844C22.5882 37.3223 22.0969 38.3152 21.5694 39.2553C22.3877 39.3904 23.2277 39.4608 24.0842 39.4608C28.4512 39.4608 32.3923 37.6349 35.1892 34.7038C34.0192 33.8063 32.8736 33.081 31.9546 32.588L30.0284 36.2526L25.3778 24.592L37.8802 21.132L37.1053 22.8376L37.1048 22.8386L37.1026 22.8433L37.098 22.8534C37.0942 22.8615 37.089 22.8726 37.0824 22.8866C37.069 22.9146 37.0497 22.9546 37.0239 23.0066C36.9722 23.1108 36.8942 23.2638 36.7845 23.4686C36.6486 23.7223 36.464 24.0557 36.2208 24.4743C37.3073 24.9508 38.345 25.4589 39.325 26.0075C39.4046 25.373 39.4459 24.7265 39.4459 24.0703C39.4459 19.7899 37.7016 15.9178 34.8864 13.1281C34.0927 14.1982 33.4477 15.2336 32.9973 16.0779L36.6565 18.0049L25.0212 22.6732L21.5579 10.1503L23.2609 10.9253L23.262 10.9258L23.2666 10.928L23.2767 10.9326C23.2849 10.9364 23.2959 10.9416 23.3099 10.9483C23.3379 10.9616 23.3777 10.9809 23.4297 11.0067C23.5337 11.0584 23.6865 11.1365 23.891 11.2462C24.1444 11.3822 24.4773 11.5668 24.8953 11.8102C25.3466 10.7751 25.8264 9.78412 26.3424 8.84505C25.6054 8.73627 24.8514 8.67983 24.0842 8.67983ZM4.80046 19.2969C4.42458 20.8261 4.22507 22.4248 4.22507 24.0703C4.22507 29.5866 6.46582 34.5784 10.0852 38.1821C10.3547 37.939 10.6203 37.6854 10.881 37.423C11.2728 37.0288 11.6477 36.6207 12.0033 36.2081C8.89696 33.1049 6.97458 28.8127 6.97458 24.0703C6.97458 23.0594 7.06191 22.069 7.22944 21.1061C6.36165 20.5457 5.5495 19.9451 4.80046 19.2969ZM37.8867 9.76679C37.6049 10.0237 37.3275 10.2925 37.0554 10.5708C36.6807 10.9542 36.3217 11.3505 35.9807 11.7509C39.1951 14.8673 41.1936 19.235 41.1936 24.0703C41.1936 25.0654 41.1089 26.0406 40.9464 26.9892C41.8139 27.5584 42.6243 28.169 43.3701 28.8289C43.7436 27.3042 43.942 25.7104 43.942 24.0703C43.942 18.4556 41.6205 13.3841 37.8867 9.76679ZM5.33075 6.26918C4.80811 6.8906 4.23577 7.6085 3.70214 8.34803C3.18206 9.06878 2.70963 9.79511 2.35682 10.4622C2.04522 11.0513 1.85578 11.5412 1.78335 11.9117C3.43772 16.7999 7.52247 19.8631 13.3546 22.2841L14.2989 22.676L13.7656 23.5496C13.6429 23.7506 13.5305 23.9376 13.4276 24.1109L20.254 22.2369L17.7459 15.9103L16.7969 17.7068L16.0459 17.3606C14.3686 16.5875 11.6333 14.8407 9.32708 12.5652C7.55402 10.8159 5.92214 8.64271 5.33075 6.26918ZM36.4377 1.7862C31.5633 3.45751 28.5174 7.55854 26.1175 13.4084L25.7288 14.3555L24.8554 13.8238C24.6545 13.7015 24.4676 13.5893 24.2942 13.4867L26.1841 20.3205L32.4917 17.7898L30.696 16.8441L31.0393 16.0908C31.8063 14.4082 33.542 11.6628 35.8067 9.34576C37.5478 7.56444 39.7123 5.92339 42.0797 5.32417C41.4579 4.80231 40.7397 4.23098 40.0001 3.69846C39.2792 3.17945 38.5529 2.70822 37.8861 2.35664C37.2972 2.04613 36.8077 1.85771 36.4377 1.7862ZM43.4204 6.86129C42.015 6.99887 40.5971 7.6647 39.2468 8.6503C40.4597 9.84759 41.5321 11.1874 42.4368 12.6427C43.2816 10.5426 43.6974 8.62379 43.4204 6.86129ZM24.0837 4.17494C18.407 4.17494 13.2867 6.56117 9.66755 10.387C9.94895 10.703 10.2452 11.0137 10.5534 11.3177C10.9043 11.664 11.2661 11.9969 11.6321 12.3148C14.752 8.99892 19.1767 6.92894 24.0842 6.92894C25.1833 6.92894 26.2582 7.03287 27.2997 7.23129C27.8541 6.36765 28.4482 5.55896 29.0896 4.81262C27.4903 4.39653 25.8128 4.17494 24.0837 4.17494ZM12.4206 5.84542C10.4101 5.05115 8.56738 4.66737 6.86886 4.93034C6.99866 6.30142 7.62805 7.68565 8.56531 9.00866C9.72223 7.81248 11.0157 6.74967 12.4206 5.84542Z" fill="#F97316"/>
</svg>
