<svg width="68" height="42" viewBox="0 0 68 42" fill="none" xmlns="http://www.w3.org/2000/svg">
<path d="M47 0.5C58.3218 0.5 67.5 9.67816 67.5 21C67.5 32.3218 58.3218 41.5 47 41.5H21C9.67816 41.5 0.5 32.3218 0.5 21C0.5 9.67816 9.67816 0.5 21 0.5H47Z" fill="#29292E"/>
<path d="M47 0.5C58.3218 0.5 67.5 9.67816 67.5 21C67.5 32.3218 58.3218 41.5 47 41.5H21C9.67816 41.5 0.5 32.3218 0.5 21C0.5 9.67816 9.67816 0.5 21 0.5H47Z" stroke="#3F3F3F"/>
<path d="M19.2197 10.7246V18H18.1211V10.7246H19.2197ZM22.3496 18.1074C21.9069 18.1074 21.513 17.9951 21.168 17.7705C20.8229 17.5426 20.5527 17.2188 20.3574 16.7988C20.1621 16.3757 20.0645 15.8711 20.0645 15.2852C20.0645 14.6927 20.1637 14.1865 20.3623 13.7666C20.5609 13.3467 20.8327 13.026 21.1777 12.8047C21.5228 12.5833 21.9134 12.4727 22.3496 12.4727C22.6914 12.4727 22.9648 12.5296 23.1699 12.6436C23.3783 12.7542 23.5394 12.8844 23.6533 13.0342C23.7705 13.1839 23.86 13.3158 23.9219 13.4297H23.9854V10.7246H25.04V18H24.0098V17.1504H23.9219C23.86 17.2643 23.7689 17.3962 23.6484 17.5459C23.528 17.6956 23.3636 17.8275 23.1553 17.9414C22.9502 18.0521 22.6816 18.1074 22.3496 18.1074ZM22.5791 17.2041C22.8851 17.2041 23.1439 17.1227 23.3555 16.96C23.5671 16.7972 23.7266 16.571 23.834 16.2812C23.9447 15.9915 24 15.6562 24 15.2754C24 14.8945 23.9463 14.5625 23.8389 14.2793C23.7314 13.9928 23.5719 13.7715 23.3604 13.6152C23.1488 13.4557 22.8883 13.376 22.5791 13.376C22.2601 13.376 21.9948 13.459 21.7832 13.625C21.5716 13.791 21.4121 14.0173 21.3047 14.3037C21.1973 14.5902 21.1436 14.9141 21.1436 15.2754C21.1436 15.64 21.1973 15.9688 21.3047 16.2617C21.4121 16.5514 21.5716 16.7809 21.7832 16.9502C21.998 17.1195 22.2633 17.2041 22.5791 17.2041ZM28.4092 18.1123C27.8753 18.1123 27.4131 17.9967 27.0225 17.7656C26.6318 17.5345 26.3307 17.209 26.1191 16.7891C25.9108 16.3659 25.8066 15.8727 25.8066 15.3096C25.8066 14.7497 25.9092 14.2565 26.1143 13.8301C26.3226 13.4036 26.6139 13.0716 26.9883 12.834C27.3659 12.5931 27.8086 12.4727 28.3164 12.4727C28.6257 12.4727 28.9251 12.5231 29.2148 12.624C29.5046 12.7249 29.765 12.8844 29.9961 13.1025C30.2272 13.3206 30.4095 13.6038 30.543 13.9521C30.6797 14.3005 30.748 14.7204 30.748 15.2119V15.5928H26.4072V14.7969H30.2012L29.708 15.0605C29.708 14.7253 29.6559 14.429 29.5518 14.1719C29.4476 13.9147 29.2913 13.7145 29.083 13.5713C28.8779 13.4248 28.6224 13.3516 28.3164 13.3516C28.0104 13.3516 27.7484 13.4248 27.5303 13.5713C27.3154 13.7178 27.151 13.9115 27.0371 14.1523C26.9232 14.3932 26.8662 14.6569 26.8662 14.9434V15.4854C26.8662 15.8597 26.9313 16.1771 27.0615 16.4375C27.1917 16.6979 27.3724 16.8965 27.6035 17.0332C27.8379 17.1699 28.1097 17.2383 28.4189 17.2383C28.6208 17.2383 28.8031 17.209 28.9658 17.1504C29.1318 17.0918 29.2751 17.0039 29.3955 16.8867C29.516 16.7695 29.6071 16.6247 29.6689 16.4521L30.6748 16.6426C30.5934 16.9355 30.4502 17.1927 30.2451 17.4141C30.04 17.6354 29.7812 17.8079 29.4688 17.9316C29.1595 18.0521 28.8063 18.1123 28.4092 18.1123ZM32.5449 14.7627V18H31.4902V12.541H32.5156V13.4395H32.5889C32.7126 13.1432 32.9062 12.9089 33.1699 12.7363C33.4336 12.5605 33.7721 12.4727 34.1855 12.4727C34.5566 12.4727 34.8805 12.5508 35.1572 12.707C35.4372 12.86 35.6536 13.0895 35.8066 13.3955C35.9629 13.7015 36.041 14.0807 36.041 14.5332V18H34.9863V14.6602C34.9863 14.2663 34.8822 13.957 34.6738 13.7324C34.4655 13.5046 34.1823 13.3906 33.8242 13.3906C33.5801 13.3906 33.3604 13.446 33.165 13.5566C32.973 13.6641 32.8216 13.8187 32.7109 14.0205C32.6003 14.2223 32.5449 14.4697 32.5449 14.7627ZM39.5957 12.541V13.3955H36.6172V12.541H39.5957ZM37.4131 11.2422H38.4727V16.3984C38.4727 16.6491 38.5247 16.833 38.6289 16.9502C38.7331 17.0641 38.9007 17.1211 39.1318 17.1211C39.1872 17.1211 39.2458 17.1178 39.3076 17.1113C39.3727 17.1048 39.4378 17.0951 39.5029 17.082L39.7031 17.9609C39.5957 17.9967 39.4785 18.0244 39.3516 18.0439C39.2246 18.0635 39.0977 18.0732 38.9707 18.0732C38.4987 18.0732 38.1211 17.9414 37.8379 17.6777C37.5547 17.4108 37.4131 17.056 37.4131 16.6133V11.2422ZM40.3574 18V12.541H41.4121V18H40.3574ZM40.8896 11.7012C40.7041 11.7012 40.5462 11.6393 40.416 11.5156C40.2858 11.3919 40.2207 11.2438 40.2207 11.0713C40.2207 10.8955 40.2858 10.7458 40.416 10.6221C40.5462 10.4984 40.7041 10.4365 40.8896 10.4365C41.0719 10.4365 41.2282 10.4984 41.3584 10.6221C41.4919 10.7458 41.5586 10.8955 41.5586 11.0713C41.5586 11.2438 41.4919 11.3919 41.3584 11.5156C41.2282 11.6393 41.0719 11.7012 40.8896 11.7012ZM44.9668 12.541V13.3955H41.9883V12.541H44.9668ZM42.7842 11.2422H43.8438V16.3984C43.8438 16.6491 43.8958 16.833 44 16.9502C44.1042 17.0641 44.2718 17.1211 44.5029 17.1211C44.5583 17.1211 44.6169 17.1178 44.6787 17.1113C44.7438 17.1048 44.8089 17.0951 44.874 17.082L45.0742 17.9609C44.9668 17.9967 44.8496 18.0244 44.7227 18.0439C44.5957 18.0635 44.4688 18.0732 44.3418 18.0732C43.8698 18.0732 43.4922 17.9414 43.209 17.6777C42.9258 17.4108 42.7842 17.056 42.7842 16.6133V11.2422ZM46.3926 20.041C46.2331 20.0443 46.0882 20.0329 45.958 20.0068C45.8311 19.984 45.7334 19.9564 45.665 19.9238L45.9238 19.0596L45.9971 19.0791C46.2673 19.1475 46.4951 19.1426 46.6807 19.0645C46.8695 18.9896 47.0273 18.7796 47.1543 18.4346L47.2861 18.0732L45.2939 12.541H46.4316L47.8086 16.7793H47.8672L49.249 12.541H50.3867L48.1406 18.7227C48.0365 19.0091 47.9046 19.25 47.7451 19.4453C47.5856 19.6439 47.3936 19.792 47.1689 19.8896C46.9476 19.9906 46.6888 20.041 46.3926 20.041ZM25.0205 23.7246V31H23.9658V23.7246H25.0205ZM27.6182 31.1172C27.2731 31.1172 26.9606 31.0537 26.6807 30.9268C26.4007 30.7965 26.1794 30.6077 26.0166 30.3604C25.8538 30.113 25.7725 29.8118 25.7725 29.457C25.7725 29.1478 25.8311 28.8955 25.9482 28.7002C26.0687 28.5016 26.2298 28.3438 26.4316 28.2266C26.6335 28.1094 26.8581 28.0215 27.1055 27.9629C27.3529 27.9043 27.6068 27.8587 27.8672 27.8262C28.196 27.7904 28.4613 27.7594 28.6631 27.7334C28.8649 27.7074 29.0114 27.6667 29.1025 27.6113C29.1969 27.5527 29.2441 27.46 29.2441 27.333V27.3086C29.2441 26.9993 29.1562 26.7601 28.9805 26.5908C28.8079 26.4215 28.5508 26.3369 28.209 26.3369C27.8542 26.3369 27.5726 26.415 27.3643 26.5713C27.1592 26.7243 27.0176 26.8984 26.9395 27.0938L25.9385 26.8643C26.0589 26.5322 26.2331 26.2653 26.4609 26.0635C26.6921 25.8584 26.9557 25.7087 27.252 25.6143C27.5514 25.5199 27.8639 25.4727 28.1895 25.4727C28.4076 25.4727 28.6387 25.4987 28.8828 25.5508C29.127 25.5996 29.3564 25.6924 29.5713 25.8291C29.7894 25.9626 29.9668 26.1546 30.1035 26.4053C30.2402 26.6559 30.3086 26.9798 30.3086 27.377V31H29.2686V30.2529H29.2295C29.1644 30.3864 29.0618 30.5199 28.9219 30.6533C28.7852 30.7868 28.6094 30.8975 28.3945 30.9854C28.1797 31.0732 27.9209 31.1172 27.6182 31.1172ZM27.8477 30.2676C28.1439 30.2676 28.3962 30.2106 28.6045 30.0967C28.8128 29.9795 28.9723 29.8265 29.083 29.6377C29.1937 29.4489 29.249 29.2487 29.249 29.0371V28.3291C29.21 28.3649 29.1367 28.3991 29.0293 28.4316C28.9219 28.4642 28.7998 28.4919 28.6631 28.5146C28.5264 28.5374 28.3929 28.5586 28.2627 28.5781C28.1325 28.5944 28.0234 28.6074 27.9355 28.6172C27.7305 28.6465 27.5433 28.6921 27.374 28.7539C27.2048 28.8125 27.068 28.9004 26.9639 29.0176C26.863 29.1315 26.8125 29.2829 26.8125 29.4717C26.8125 29.7354 26.9102 29.9339 27.1055 30.0674C27.3008 30.2008 27.5482 30.2676 27.8477 30.2676ZM31.7979 33.041C31.6383 33.0443 31.4935 33.0329 31.3633 33.0068C31.2363 32.984 31.1387 32.9564 31.0703 32.9238L31.3291 32.0596L31.4023 32.0791C31.6725 32.1475 31.9004 32.1426 32.0859 32.0645C32.2747 31.9896 32.4326 31.7796 32.5596 31.4346L32.6914 31.0732L30.6992 25.541H31.8369L33.2139 29.7793H33.2725L34.6543 25.541H35.792L33.5459 31.7227C33.4417 32.0091 33.3099 32.25 33.1504 32.4453C32.9909 32.6439 32.7988 32.792 32.5742 32.8896C32.3529 32.9906 32.0941 33.041 31.7979 33.041ZM38.541 31.1123C38.0072 31.1123 37.5449 30.9967 37.1543 30.7656C36.7637 30.5345 36.4626 30.209 36.251 29.7891C36.0426 29.3659 35.9385 28.8727 35.9385 28.3096C35.9385 27.7497 36.041 27.2565 36.2461 26.8301C36.4544 26.4036 36.7458 26.0716 37.1201 25.834C37.4977 25.5931 37.9404 25.4727 38.4482 25.4727C38.7575 25.4727 39.057 25.5231 39.3467 25.624C39.6364 25.7249 39.8968 25.8844 40.1279 26.1025C40.359 26.3206 40.5413 26.6038 40.6748 26.9521C40.8115 27.3005 40.8799 27.7204 40.8799 28.2119V28.5928H36.5391V27.7969H40.333L39.8398 28.0605C39.8398 27.7253 39.7878 27.429 39.6836 27.1719C39.5794 26.9147 39.4232 26.7145 39.2148 26.5713C39.0098 26.4248 38.7542 26.3516 38.4482 26.3516C38.1423 26.3516 37.8802 26.4248 37.6621 26.5713C37.4473 26.7178 37.2829 26.9115 37.1689 27.1523C37.055 27.3932 36.998 27.6569 36.998 27.9434V28.4854C36.998 28.8597 37.0632 29.1771 37.1934 29.4375C37.3236 29.6979 37.5042 29.8965 37.7354 30.0332C37.9697 30.1699 38.2415 30.2383 38.5508 30.2383C38.7526 30.2383 38.9349 30.209 39.0977 30.1504C39.2637 30.0918 39.4069 30.0039 39.5273 29.8867C39.6478 29.7695 39.7389 29.6247 39.8008 29.4521L40.8066 29.6426C40.7253 29.9355 40.582 30.1927 40.377 30.4141C40.1719 30.6354 39.9131 30.8079 39.6006 30.9316C39.2913 31.0521 38.9382 31.1123 38.541 31.1123ZM41.6221 31V25.541H42.6426V26.415H42.7012C42.8021 26.1221 42.9779 25.891 43.2285 25.7217C43.4824 25.5492 43.7689 25.4629 44.0879 25.4629C44.153 25.4629 44.2295 25.4661 44.3174 25.4727C44.4085 25.4759 44.4818 25.4808 44.5371 25.4873V26.5029C44.4948 26.4899 44.4183 26.4769 44.3076 26.4639C44.2002 26.4508 44.0911 26.4443 43.9805 26.4443C43.7298 26.4443 43.5052 26.498 43.3066 26.6055C43.1113 26.7096 42.9567 26.8545 42.8428 27.04C42.7321 27.2223 42.6768 27.4339 42.6768 27.6748V31H41.6221Z" fill="#F4F4F5"/>
</svg>
