<svg width="66" height="40" viewBox="0 0 66 40" fill="none" xmlns="http://www.w3.org/2000/svg">
<path d="M20 0.5H46C56.7696 0.5 65.5 9.23045 65.5 20C65.5 30.7696 56.7696 39.5 46 39.5H20C9.23045 39.5 0.5 30.7696 0.5 20C0.5 9.23045 9.23045 0.5 20 0.5Z" fill="#2D1501"/>
<path d="M20 0.5H46C56.7696 0.5 65.5 9.23045 65.5 20C65.5 30.7696 56.7696 39.5 46 39.5H20C9.23045 39.5 0.5 30.7696 0.5 20C0.5 9.23045 9.23045 0.5 20 0.5Z" stroke="#FB923C"/>
<path d="M17.5859 23.5V16.2246H20.1836C20.7467 16.2246 21.2139 16.3288 21.585 16.5371C21.9561 16.7422 22.2344 17.0238 22.4199 17.3818C22.6055 17.7367 22.6982 18.137 22.6982 18.583C22.6982 19.029 22.6055 19.431 22.4199 19.7891C22.2344 20.1439 21.9544 20.4255 21.5801 20.6338C21.209 20.8389 20.7402 20.9414 20.1738 20.9414H18.3965V20.0137H20.0713C20.4326 20.0137 20.724 19.9518 20.9453 19.8281C21.1699 19.7044 21.3327 19.5352 21.4336 19.3203C21.5378 19.1022 21.5898 18.8564 21.5898 18.583C21.5898 18.3063 21.5378 18.0622 21.4336 17.8506C21.3327 17.6357 21.1699 17.4681 20.9453 17.3477C20.7207 17.2272 20.4277 17.167 20.0664 17.167H18.6846V23.5H17.5859ZM24.5293 16.2246V23.5H23.4746V16.2246H24.5293ZM27.127 23.6172C26.7819 23.6172 26.4694 23.5537 26.1895 23.4268C25.9095 23.2965 25.6882 23.1077 25.5254 22.8604C25.3626 22.613 25.2812 22.3118 25.2812 21.957C25.2812 21.6478 25.3398 21.3955 25.457 21.2002C25.5775 21.0016 25.7386 20.8438 25.9404 20.7266C26.1423 20.6094 26.3669 20.5215 26.6143 20.4629C26.8617 20.4043 27.1156 20.3587 27.376 20.3262C27.7048 20.2904 27.9701 20.2594 28.1719 20.2334C28.3737 20.2074 28.5202 20.1667 28.6113 20.1113C28.7057 20.0527 28.7529 19.96 28.7529 19.833V19.8086C28.7529 19.4993 28.665 19.2601 28.4893 19.0908C28.3167 18.9215 28.0596 18.8369 27.7178 18.8369C27.363 18.8369 27.0814 18.915 26.873 19.0713C26.668 19.2243 26.5264 19.3984 26.4482 19.5938L25.4473 19.3643C25.5677 19.0322 25.7419 18.7653 25.9697 18.5635C26.2008 18.3584 26.4645 18.2087 26.7607 18.1143C27.0602 18.0199 27.3727 17.9727 27.6982 17.9727C27.9163 17.9727 28.1475 17.9987 28.3916 18.0508C28.6357 18.0996 28.8652 18.1924 29.0801 18.3291C29.2982 18.4626 29.4756 18.6546 29.6123 18.9053C29.749 19.1559 29.8174 19.4798 29.8174 19.877V23.5H28.7773V22.7529H28.7383C28.6732 22.8864 28.5706 23.0199 28.4307 23.1533C28.2939 23.2868 28.1182 23.3975 27.9033 23.4854C27.6885 23.5732 27.4297 23.6172 27.127 23.6172ZM27.3564 22.7676C27.6527 22.7676 27.9049 22.7106 28.1133 22.5967C28.3216 22.4795 28.4811 22.3265 28.5918 22.1377C28.7025 21.9489 28.7578 21.7487 28.7578 21.5371V20.8291C28.7188 20.8649 28.6455 20.8991 28.5381 20.9316C28.4307 20.9642 28.3086 20.9919 28.1719 21.0146C28.0352 21.0374 27.9017 21.0586 27.7715 21.0781C27.6413 21.0944 27.5322 21.1074 27.4443 21.1172C27.2393 21.1465 27.0521 21.1921 26.8828 21.2539C26.7135 21.3125 26.5768 21.4004 26.4727 21.5176C26.3717 21.6315 26.3213 21.7829 26.3213 21.9717C26.3213 22.2354 26.4189 22.4339 26.6143 22.5674C26.8096 22.7008 27.057 22.7676 27.3564 22.7676ZM31.3066 25.541C31.1471 25.5443 31.0023 25.5329 30.8721 25.5068C30.7451 25.484 30.6475 25.4564 30.5791 25.4238L30.8379 24.5596L30.9111 24.5791C31.1813 24.6475 31.4092 24.6426 31.5947 24.5645C31.7835 24.4896 31.9414 24.2796 32.0684 23.9346L32.2002 23.5732L30.208 18.041H31.3457L32.7227 22.2793H32.7812L34.1631 18.041H35.3008L33.0547 24.2227C32.9505 24.5091 32.8187 24.75 32.6592 24.9453C32.4997 25.1439 32.3076 25.292 32.083 25.3896C31.8617 25.4906 31.6029 25.541 31.3066 25.541ZM38.0498 23.6123C37.516 23.6123 37.0537 23.4967 36.6631 23.2656C36.2725 23.0345 35.9714 22.709 35.7598 22.2891C35.5514 21.8659 35.4473 21.3727 35.4473 20.8096C35.4473 20.2497 35.5498 19.7565 35.7549 19.3301C35.9632 18.9036 36.2546 18.5716 36.6289 18.334C37.0065 18.0931 37.4492 17.9727 37.957 17.9727C38.2663 17.9727 38.5658 18.0231 38.8555 18.124C39.1452 18.2249 39.4056 18.3844 39.6367 18.6025C39.8678 18.8206 40.0501 19.1038 40.1836 19.4521C40.3203 19.8005 40.3887 20.2204 40.3887 20.7119V21.0928H36.0479V20.2969H39.8418L39.3486 20.5605C39.3486 20.2253 39.2965 19.929 39.1924 19.6719C39.0882 19.4147 38.932 19.2145 38.7236 19.0713C38.5186 18.9248 38.263 18.8516 37.957 18.8516C37.651 18.8516 37.389 18.9248 37.1709 19.0713C36.9561 19.2178 36.7917 19.4115 36.6777 19.6523C36.5638 19.8932 36.5068 20.1569 36.5068 20.4434V20.9854C36.5068 21.3597 36.5719 21.6771 36.7021 21.9375C36.8324 22.1979 37.013 22.3965 37.2441 22.5332C37.4785 22.6699 37.7503 22.7383 38.0596 22.7383C38.2614 22.7383 38.4437 22.709 38.6064 22.6504C38.7725 22.5918 38.9157 22.5039 39.0361 22.3867C39.1566 22.2695 39.2477 22.1247 39.3096 21.9521L40.3154 22.1426C40.234 22.4355 40.0908 22.6927 39.8857 22.9141C39.6807 23.1354 39.4219 23.3079 39.1094 23.4316C38.8001 23.5521 38.4469 23.6123 38.0498 23.6123ZM41.1309 23.5V18.041H42.1514V18.915H42.21C42.3109 18.6221 42.4867 18.391 42.7373 18.2217C42.9912 18.0492 43.2777 17.9629 43.5967 17.9629C43.6618 17.9629 43.7383 17.9661 43.8262 17.9727C43.9173 17.9759 43.9906 17.9808 44.0459 17.9873V19.0029C44.0036 18.9899 43.9271 18.9769 43.8164 18.9639C43.709 18.9508 43.5999 18.9443 43.4893 18.9443C43.2386 18.9443 43.014 18.998 42.8154 19.1055C42.6201 19.2096 42.4655 19.3545 42.3516 19.54C42.2409 19.7223 42.1855 19.9339 42.1855 20.1748V23.5H41.1309ZM48.6406 19.3789L47.6787 19.5449C47.6169 19.3626 47.5013 19.195 47.332 19.042C47.166 18.889 46.917 18.8125 46.585 18.8125C46.2855 18.8125 46.0348 18.8809 45.833 19.0176C45.6344 19.151 45.5352 19.3219 45.5352 19.5303C45.5352 19.7126 45.6019 19.8607 45.7354 19.9746C45.8721 20.0885 46.0885 20.1797 46.3848 20.248L47.2588 20.4434C47.7568 20.5573 48.1296 20.7363 48.377 20.9805C48.6243 21.2246 48.748 21.5371 48.748 21.918C48.748 22.2467 48.6536 22.5397 48.4648 22.7969C48.276 23.0508 48.014 23.251 47.6787 23.3975C47.3434 23.5407 46.9561 23.6123 46.5166 23.6123C45.9046 23.6123 45.4066 23.4805 45.0225 23.2168C44.6383 22.9531 44.4023 22.582 44.3145 22.1035L45.335 21.9473C45.4001 22.2142 45.5319 22.416 45.7305 22.5527C45.9323 22.6895 46.1927 22.7578 46.5117 22.7578C46.8568 22.7578 47.1335 22.6846 47.3418 22.5381C47.5534 22.3916 47.6592 22.2142 47.6592 22.0059C47.6592 21.6608 47.402 21.4281 46.8877 21.3076L45.9648 21.1025C45.4538 20.9854 45.0762 20.8014 44.832 20.5508C44.5911 20.2969 44.4707 19.9779 44.4707 19.5938C44.4707 19.2715 44.5602 18.9883 44.7393 18.7441C44.9215 18.5 45.1706 18.3112 45.4863 18.1777C45.8053 18.041 46.1683 17.9727 46.5752 17.9727C47.1676 17.9727 47.6315 18.1012 47.9668 18.3584C48.3053 18.6156 48.5299 18.9557 48.6406 19.3789Z" fill="#FB923C"/>
</svg>
