<svg width="68" height="42" viewBox="0 0 68 42" fill="none" xmlns="http://www.w3.org/2000/svg">
<path d="M47 0.5C58.3218 0.5 67.5 9.67816 67.5 21C67.5 32.3218 58.3218 41.5 47 41.5H21C9.67816 41.5 0.5 32.3218 0.5 21C0.5 9.67816 9.67816 0.5 21 0.5H47Z" fill="#29292E"/>
<path d="M47 0.5C58.3218 0.5 67.5 9.67816 67.5 21C67.5 32.3218 58.3218 41.5 47 41.5H21C9.67816 41.5 0.5 32.3218 0.5 21C0.5 9.67816 9.67816 0.5 21 0.5H47Z" stroke="#3F3F3F"/>
<path d="M19.8008 24.5977C19.1758 24.5977 18.6159 24.4479 18.1211 24.1484C17.6263 23.849 17.2373 23.4209 16.9541 22.8643C16.6709 22.3044 16.5293 21.6387 16.5293 20.8672C16.5293 20.0892 16.6709 19.4219 16.9541 18.8652C17.2406 18.3053 17.6296 17.8757 18.1211 17.5762C18.6159 17.2767 19.1758 17.127 19.8008 17.127C20.1849 17.127 20.5446 17.1823 20.8799 17.293C21.2184 17.4036 21.5212 17.5648 21.7881 17.7764C22.055 17.988 22.2747 18.2467 22.4473 18.5527C22.623 18.8587 22.7402 19.2054 22.7988 19.5928H21.6953C21.653 19.3551 21.5732 19.1468 21.4561 18.9678C21.3421 18.7855 21.2005 18.6325 21.0312 18.5088C20.8652 18.3818 20.6781 18.2874 20.4697 18.2256C20.2646 18.1605 20.0465 18.1279 19.8154 18.1279C19.3988 18.1279 19.0228 18.2337 18.6875 18.4453C18.3555 18.6536 18.0934 18.9629 17.9014 19.373C17.7126 19.7799 17.6182 20.278 17.6182 20.8672C17.6182 21.4596 17.7142 21.9593 17.9062 22.3662C18.0983 22.7699 18.3604 23.0758 18.6924 23.2842C19.0244 23.4925 19.3971 23.5967 19.8105 23.5967C20.0417 23.5967 20.2598 23.5658 20.4648 23.5039C20.6699 23.4421 20.8571 23.3493 21.0264 23.2256C21.1956 23.1019 21.3372 22.9521 21.4512 22.7764C21.5684 22.5973 21.6497 22.3906 21.6953 22.1562H22.7988C22.7435 22.5176 22.6312 22.848 22.4619 23.1475C22.2926 23.4437 22.0762 23.7008 21.8125 23.9189C21.5488 24.1338 21.2477 24.3014 20.9092 24.4219C20.5706 24.5391 20.2012 24.5977 19.8008 24.5977ZM25.9092 24.6123C25.3981 24.6123 24.9505 24.4951 24.5664 24.2607C24.1855 24.0264 23.8893 23.6976 23.6777 23.2744C23.4694 22.8512 23.3652 22.3597 23.3652 21.7998C23.3652 21.2334 23.4694 20.7386 23.6777 20.3154C23.8893 19.889 24.1855 19.5586 24.5664 19.3242C24.9505 19.0898 25.3981 18.9727 25.9092 18.9727C26.4235 18.9727 26.8711 19.0898 27.252 19.3242C27.6328 19.5586 27.929 19.889 28.1406 20.3154C28.3522 20.7386 28.458 21.2334 28.458 21.7998C28.458 22.3597 28.3522 22.8512 28.1406 23.2744C27.929 23.6976 27.6328 24.0264 27.252 24.2607C26.8711 24.4951 26.4235 24.6123 25.9092 24.6123ZM25.9092 23.7188C26.2445 23.7188 26.5212 23.6309 26.7393 23.4551C26.9574 23.2793 27.1185 23.0465 27.2227 22.7568C27.3301 22.4639 27.3838 22.1449 27.3838 21.7998C27.3838 21.4482 27.3301 21.126 27.2227 20.833C27.1185 20.54 26.9574 20.3057 26.7393 20.1299C26.5212 19.9541 26.2445 19.8662 25.9092 19.8662C25.5771 19.8662 25.3021 19.9541 25.084 20.1299C24.8691 20.3057 24.708 20.54 24.6006 20.833C24.4932 21.126 24.4395 21.4482 24.4395 21.7998C24.4395 22.1449 24.4932 22.4639 24.6006 22.7568C24.708 23.0465 24.8691 23.2793 25.084 23.4551C25.3021 23.6309 25.5771 23.7188 25.9092 23.7188ZM30.2793 21.2627V24.5H29.2246V19.041H30.25V19.9395H30.3232C30.4469 19.6432 30.6406 19.4089 30.9043 19.2363C31.168 19.0605 31.5065 18.9727 31.9199 18.9727C32.291 18.9727 32.6149 19.0508 32.8916 19.207C33.1715 19.36 33.388 19.5895 33.541 19.8955C33.6973 20.2015 33.7754 20.5807 33.7754 21.0332V24.5H32.7207V21.1602C32.7207 20.7663 32.6165 20.457 32.4082 20.2324C32.1999 20.0046 31.9167 19.8906 31.5586 19.8906C31.3145 19.8906 31.0947 19.946 30.8994 20.0566C30.7074 20.1641 30.556 20.3187 30.4453 20.5205C30.3346 20.7223 30.2793 20.9697 30.2793 21.2627ZM37.3301 19.041V19.8955H34.3516V19.041H37.3301ZM35.1475 17.7422H36.207V22.8984C36.207 23.1491 36.2591 23.333 36.3633 23.4502C36.4674 23.5641 36.6351 23.6211 36.8662 23.6211C36.9215 23.6211 36.9801 23.6178 37.042 23.6113C37.1071 23.6048 37.1722 23.5951 37.2373 23.582L37.4375 24.4609C37.3301 24.4967 37.2129 24.5244 37.0859 24.5439C36.959 24.5635 36.832 24.5732 36.7051 24.5732C36.2331 24.5732 35.8555 24.4414 35.5723 24.1777C35.2891 23.9108 35.1475 23.556 35.1475 23.1133V17.7422ZM40.3818 24.6123C39.848 24.6123 39.3857 24.4967 38.9951 24.2656C38.6045 24.0345 38.3034 23.709 38.0918 23.2891C37.8835 22.8659 37.7793 22.3727 37.7793 21.8096C37.7793 21.2497 37.8818 20.7565 38.0869 20.3301C38.2952 19.9036 38.5866 19.5716 38.9609 19.334C39.3385 19.0931 39.7812 18.9727 40.2891 18.9727C40.5983 18.9727 40.8978 19.0231 41.1875 19.124C41.4772 19.2249 41.7376 19.3844 41.9688 19.6025C42.1999 19.8206 42.3822 20.1038 42.5156 20.4521C42.6523 20.8005 42.7207 21.2204 42.7207 21.7119V22.0928H38.3799V21.2969H42.1738L41.6807 21.5605C41.6807 21.2253 41.6286 20.929 41.5244 20.6719C41.4202 20.4147 41.264 20.2145 41.0557 20.0713C40.8506 19.9248 40.5951 19.8516 40.2891 19.8516C39.9831 19.8516 39.721 19.9248 39.5029 20.0713C39.2881 20.2178 39.1237 20.4115 39.0098 20.6523C38.8958 20.8932 38.8389 21.1569 38.8389 21.4434V21.9854C38.8389 22.3597 38.904 22.6771 39.0342 22.9375C39.1644 23.1979 39.3451 23.3965 39.5762 23.5332C39.8105 23.6699 40.0824 23.7383 40.3916 23.7383C40.5934 23.7383 40.7757 23.709 40.9385 23.6504C41.1045 23.5918 41.2477 23.5039 41.3682 23.3867C41.4886 23.2695 41.5798 23.1247 41.6416 22.9521L42.6475 23.1426C42.5661 23.4355 42.4229 23.6927 42.2178 23.9141C42.0127 24.1354 41.7539 24.3079 41.4414 24.4316C41.1322 24.5521 40.779 24.6123 40.3818 24.6123ZM44.5176 21.2627V24.5H43.4629V19.041H44.4883V19.9395H44.5615C44.6852 19.6432 44.8789 19.4089 45.1426 19.2363C45.4062 19.0605 45.7448 18.9727 46.1582 18.9727C46.5293 18.9727 46.8532 19.0508 47.1299 19.207C47.4098 19.36 47.6263 19.5895 47.7793 19.8955C47.9355 20.2015 48.0137 20.5807 48.0137 21.0332V24.5H46.959V21.1602C46.959 20.7663 46.8548 20.457 46.6465 20.2324C46.4382 20.0046 46.1549 19.8906 45.7969 19.8906C45.5527 19.8906 45.333 19.946 45.1377 20.0566C44.9456 20.1641 44.7943 20.3187 44.6836 20.5205C44.5729 20.7223 44.5176 20.9697 44.5176 21.2627ZM51.5684 19.041V19.8955H48.5898V19.041H51.5684ZM49.3857 17.7422H50.4453V22.8984C50.4453 23.1491 50.4974 23.333 50.6016 23.4502C50.7057 23.5641 50.8734 23.6211 51.1045 23.6211C51.1598 23.6211 51.2184 23.6178 51.2803 23.6113C51.3454 23.6048 51.4105 23.5951 51.4756 23.582L51.6758 24.4609C51.5684 24.4967 51.4512 24.5244 51.3242 24.5439C51.1973 24.5635 51.0703 24.5732 50.9434 24.5732C50.4714 24.5732 50.0938 24.4414 49.8105 24.1777C49.5273 23.9108 49.3857 23.556 49.3857 23.1133V17.7422Z" fill="#F4F4F5"/>
</svg>
