<svg width="66" height="40" viewBox="0 0 66 40" fill="none" xmlns="http://www.w3.org/2000/svg">
<path d="M20 0.5H46C56.7696 0.5 65.5 9.23045 65.5 20C65.5 30.7696 56.7696 39.5 46 39.5H20C9.23045 39.5 0.5 30.7696 0.5 20C0.5 9.23045 9.23045 0.5 20 0.5Z" fill="#2D1501"/>
<path d="M20 0.5H46C56.7696 0.5 65.5 9.23045 65.5 20C65.5 30.7696 56.7696 39.5 46 39.5H20C9.23045 39.5 0.5 30.7696 0.5 20C0.5 9.23045 9.23045 0.5 20 0.5Z" stroke="#FB923C"/>
<path d="M12.5859 23.5V16.2246H13.6846V22.5576H16.9805V23.5H12.5859ZM19.3145 23.6172C18.9694 23.6172 18.6569 23.5537 18.377 23.4268C18.097 23.2965 17.8757 23.1077 17.7129 22.8604C17.5501 22.613 17.4688 22.3118 17.4688 21.957C17.4688 21.6478 17.5273 21.3955 17.6445 21.2002C17.765 21.0016 17.9261 20.8438 18.1279 20.7266C18.3298 20.6094 18.5544 20.5215 18.8018 20.4629C19.0492 20.4043 19.3031 20.3587 19.5635 20.3262C19.8923 20.2904 20.1576 20.2594 20.3594 20.2334C20.5612 20.2074 20.7077 20.1667 20.7988 20.1113C20.8932 20.0527 20.9404 19.96 20.9404 19.833V19.8086C20.9404 19.4993 20.8525 19.2601 20.6768 19.0908C20.5042 18.9215 20.2471 18.8369 19.9053 18.8369C19.5505 18.8369 19.2689 18.915 19.0605 19.0713C18.8555 19.2243 18.7139 19.3984 18.6357 19.5938L17.6348 19.3643C17.7552 19.0322 17.9294 18.7653 18.1572 18.5635C18.3883 18.3584 18.652 18.2087 18.9482 18.1143C19.2477 18.0199 19.5602 17.9727 19.8857 17.9727C20.1038 17.9727 20.335 17.9987 20.5791 18.0508C20.8232 18.0996 21.0527 18.1924 21.2676 18.3291C21.4857 18.4626 21.6631 18.6546 21.7998 18.9053C21.9365 19.1559 22.0049 19.4798 22.0049 19.877V23.5H20.9648V22.7529H20.9258C20.8607 22.8864 20.7581 23.0199 20.6182 23.1533C20.4814 23.2868 20.3057 23.3975 20.0908 23.4854C19.876 23.5732 19.6172 23.6172 19.3145 23.6172ZM19.5439 22.7676C19.8402 22.7676 20.0924 22.7106 20.3008 22.5967C20.5091 22.4795 20.6686 22.3265 20.7793 22.1377C20.89 21.9489 20.9453 21.7487 20.9453 21.5371V20.8291C20.9062 20.8649 20.833 20.8991 20.7256 20.9316C20.6182 20.9642 20.4961 20.9919 20.3594 21.0146C20.2227 21.0374 20.0892 21.0586 19.959 21.0781C19.8288 21.0944 19.7197 21.1074 19.6318 21.1172C19.4268 21.1465 19.2396 21.1921 19.0703 21.2539C18.901 21.3125 18.7643 21.4004 18.6602 21.5176C18.5592 21.6315 18.5088 21.7829 18.5088 21.9717C18.5088 22.2354 18.6064 22.4339 18.8018 22.5674C18.9971 22.7008 19.2445 22.7676 19.5439 22.7676ZM26.4824 21.2441V18.041H27.5371V23.5H26.502V22.5527H26.4434C26.3132 22.8424 26.1113 23.085 25.8379 23.2803C25.5645 23.4756 25.2227 23.5716 24.8125 23.5684C24.4609 23.5684 24.1501 23.4919 23.8799 23.3389C23.613 23.1859 23.403 22.9564 23.25 22.6504C23.1003 22.3444 23.0254 21.9652 23.0254 21.5127V18.041H24.0801V21.3906C24.0801 21.7585 24.1842 22.0531 24.3926 22.2744C24.6009 22.4958 24.8695 22.6048 25.1982 22.6016C25.3968 22.6016 25.5938 22.5527 25.7891 22.4551C25.9876 22.3574 26.152 22.2077 26.2822 22.0059C26.4157 21.804 26.4824 21.5501 26.4824 21.2441ZM29.6074 20.2627V23.5H28.5527V18.041H29.5781V18.9395H29.6514C29.7751 18.6432 29.9688 18.4089 30.2324 18.2363C30.4961 18.0605 30.8346 17.9727 31.248 17.9727C31.6191 17.9727 31.943 18.0508 32.2197 18.207C32.4997 18.36 32.7161 18.5895 32.8691 18.8955C33.0254 19.2015 33.1035 19.5807 33.1035 20.0332V23.5H32.0488V20.1602C32.0488 19.7663 31.9447 19.457 31.7363 19.2324C31.528 19.0046 31.2448 18.8906 30.8867 18.8906C30.6426 18.8906 30.4229 18.946 30.2275 19.0566C30.0355 19.1641 29.8841 19.3187 29.7734 19.5205C29.6628 19.7223 29.6074 19.9697 29.6074 20.2627ZM36.4092 23.6123C35.8851 23.6123 35.4326 23.4919 35.0518 23.251C34.6709 23.0101 34.3779 22.6781 34.1729 22.2549C33.9678 21.8317 33.8652 21.3467 33.8652 20.7998C33.8652 20.2432 33.9694 19.7533 34.1777 19.3301C34.3893 18.9036 34.6839 18.5716 35.0615 18.334C35.4424 18.0931 35.8883 17.9727 36.3994 17.9727C36.8161 17.9727 37.1855 18.0492 37.5078 18.2021C37.8333 18.3519 38.0954 18.5651 38.2939 18.8418C38.4958 19.1185 38.6146 19.4408 38.6504 19.8086H37.6152C37.5794 19.6361 37.5094 19.4782 37.4053 19.335C37.3044 19.1917 37.1709 19.0778 37.0049 18.9932C36.8389 18.9085 36.6419 18.8662 36.4141 18.8662C36.1178 18.8662 35.859 18.9443 35.6377 19.1006C35.4196 19.2536 35.2487 19.4733 35.125 19.7598C35.0013 20.0462 34.9395 20.3848 34.9395 20.7754C34.9395 21.1693 34.9997 21.5127 35.1201 21.8057C35.2406 22.0986 35.4115 22.3249 35.6328 22.4844C35.8574 22.6406 36.1178 22.7188 36.4141 22.7188C36.7201 22.7188 36.9805 22.6341 37.1953 22.4648C37.4134 22.2956 37.5534 22.0645 37.6152 21.7715H38.6504C38.6146 22.1263 38.5007 22.4421 38.3086 22.7188C38.1165 22.9954 37.8594 23.2135 37.5371 23.373C37.2148 23.5326 36.8389 23.6123 36.4092 23.6123ZM40.457 20.2627V23.5H39.4023V16.2246H40.4424V18.9395H40.5156C40.6426 18.6432 40.8363 18.4089 41.0967 18.2363C41.3604 18.0605 41.7038 17.9727 42.127 17.9727C42.5013 17.9727 42.8285 18.0492 43.1084 18.2021C43.3883 18.3551 43.6064 18.5846 43.7627 18.8906C43.9222 19.1966 44.002 19.5775 44.002 20.0332V23.5H42.9375V20.1602C42.9375 19.7565 42.8333 19.444 42.625 19.2227C42.4199 19.0013 42.1335 18.8906 41.7656 18.8906C41.5117 18.8906 41.2871 18.946 41.0918 19.0566C40.8965 19.1641 40.7419 19.3187 40.6279 19.5205C40.514 19.7223 40.457 19.9697 40.457 20.2627ZM47.3662 23.6123C46.8324 23.6123 46.3701 23.4967 45.9795 23.2656C45.5889 23.0345 45.2878 22.709 45.0762 22.2891C44.8678 21.8659 44.7637 21.3727 44.7637 20.8096C44.7637 20.2497 44.8662 19.7565 45.0713 19.3301C45.2796 18.9036 45.571 18.5716 45.9453 18.334C46.3229 18.0931 46.7656 17.9727 47.2734 17.9727C47.5827 17.9727 47.8822 18.0231 48.1719 18.124C48.4616 18.2249 48.722 18.3844 48.9531 18.6025C49.1842 18.8206 49.3665 19.1038 49.5 19.4521C49.6367 19.8005 49.7051 20.2204 49.7051 20.7119V21.0928H45.3643V20.2969H49.1582L48.665 20.5605C48.665 20.2253 48.613 19.929 48.5088 19.6719C48.4046 19.4147 48.2484 19.2145 48.04 19.0713C47.835 18.9248 47.5794 18.8516 47.2734 18.8516C46.9674 18.8516 46.7054 18.9248 46.4873 19.0713C46.2725 19.2178 46.1081 19.4115 45.9941 19.6523C45.8802 19.8932 45.8232 20.1569 45.8232 20.4434V20.9854C45.8232 21.3597 45.8883 21.6771 46.0186 21.9375C46.1488 22.1979 46.3294 22.3965 46.5605 22.5332C46.7949 22.6699 47.0667 22.7383 47.376 22.7383C47.5778 22.7383 47.7601 22.709 47.9229 22.6504C48.0889 22.5918 48.2321 22.5039 48.3525 22.3867C48.473 22.2695 48.5641 22.1247 48.626 21.9521L49.6318 22.1426C49.5505 22.4355 49.4072 22.6927 49.2021 22.9141C48.9971 23.1354 48.7383 23.3079 48.4258 23.4316C48.1165 23.5521 47.7633 23.6123 47.3662 23.6123ZM50.4473 23.5V18.041H51.4678V18.915H51.5264C51.6273 18.6221 51.8031 18.391 52.0537 18.2217C52.3076 18.0492 52.5941 17.9629 52.9131 17.9629C52.9782 17.9629 53.0547 17.9661 53.1426 17.9727C53.2337 17.9759 53.307 17.9808 53.3623 17.9873V19.0029C53.32 18.9899 53.2435 18.9769 53.1328 18.9639C53.0254 18.9508 52.9163 18.9443 52.8057 18.9443C52.555 18.9443 52.3304 18.998 52.1318 19.1055C51.9365 19.2096 51.7819 19.3545 51.668 19.54C51.5573 19.7223 51.502 19.9339 51.502 20.1748V23.5H50.4473Z" fill="#FB923C"/>
</svg>
