<svg width="66" height="40" viewBox="0 0 66 40" fill="none" xmlns="http://www.w3.org/2000/svg">
<path d="M20 0.5H46C56.7696 0.5 65.5 9.23045 65.5 20C65.5 30.7696 56.7696 39.5 46 39.5H20C9.23045 39.5 0.5 30.7696 0.5 20C0.5 9.23045 9.23045 0.5 20 0.5Z" fill="#2D1501"/>
<path d="M20 0.5H46C56.7696 0.5 65.5 9.23045 65.5 20C65.5 30.7696 56.7696 39.5 46 39.5H20C9.23045 39.5 0.5 30.7696 0.5 20C0.5 9.23045 9.23045 0.5 20 0.5Z" stroke="#FB923C"/>
<path d="M17.123 23.5977C16.498 23.5977 15.9382 23.4479 15.4434 23.1484C14.9486 22.849 14.5596 22.4209 14.2764 21.8643C13.9932 21.3044 13.8516 20.6387 13.8516 19.8672C13.8516 19.0892 13.9932 18.4219 14.2764 17.8652C14.5628 17.3053 14.9518 16.8757 15.4434 16.5762C15.9382 16.2767 16.498 16.127 17.123 16.127C17.5072 16.127 17.8669 16.1823 18.2021 16.293C18.5407 16.4036 18.8434 16.5648 19.1104 16.7764C19.3773 16.988 19.597 17.2467 19.7695 17.5527C19.9453 17.8587 20.0625 18.2054 20.1211 18.5928H19.0176C18.9753 18.3551 18.8955 18.1468 18.7783 17.9678C18.6644 17.7855 18.5228 17.6325 18.3535 17.5088C18.1875 17.3818 18.0003 17.2874 17.792 17.2256C17.5869 17.1605 17.3688 17.1279 17.1377 17.1279C16.721 17.1279 16.3451 17.2337 16.0098 17.4453C15.6777 17.6536 15.4157 17.9629 15.2236 18.373C15.0348 18.7799 14.9404 19.278 14.9404 19.8672C14.9404 20.4596 15.0365 20.9593 15.2285 21.3662C15.4206 21.7699 15.6826 22.0758 16.0146 22.2842C16.3467 22.4925 16.7194 22.5967 17.1328 22.5967C17.3639 22.5967 17.582 22.5658 17.7871 22.5039C17.9922 22.4421 18.1794 22.3493 18.3486 22.2256C18.5179 22.1019 18.6595 21.9521 18.7734 21.7764C18.8906 21.5973 18.972 21.3906 19.0176 21.1562H20.1211C20.0658 21.5176 19.9535 21.848 19.7842 22.1475C19.6149 22.4437 19.3984 22.7008 19.1348 22.9189C18.8711 23.1338 18.57 23.3014 18.2314 23.4219C17.8929 23.5391 17.5234 23.5977 17.123 23.5977ZM20.9414 23.5V18.041H21.9619V18.915H22.0205C22.1214 18.6221 22.2972 18.391 22.5479 18.2217C22.8018 18.0492 23.0882 17.9629 23.4072 17.9629C23.4723 17.9629 23.5488 17.9661 23.6367 17.9727C23.7279 17.9759 23.8011 17.9808 23.8564 17.9873V19.0029C23.8141 18.9899 23.7376 18.9769 23.627 18.9639C23.5195 18.9508 23.4105 18.9443 23.2998 18.9443C23.0492 18.9443 22.8245 18.998 22.626 19.1055C22.4307 19.2096 22.276 19.3545 22.1621 19.54C22.0514 19.7223 21.9961 19.9339 21.9961 20.1748V23.5H20.9414ZM26.5225 23.6123C25.9886 23.6123 25.5264 23.4967 25.1357 23.2656C24.7451 23.0345 24.444 22.709 24.2324 22.2891C24.0241 21.8659 23.9199 21.3727 23.9199 20.8096C23.9199 20.2497 24.0225 19.7565 24.2275 19.3301C24.4359 18.9036 24.7272 18.5716 25.1016 18.334C25.4792 18.0931 25.9219 17.9727 26.4297 17.9727C26.7389 17.9727 27.0384 18.0231 27.3281 18.124C27.6178 18.2249 27.8783 18.3844 28.1094 18.6025C28.3405 18.8206 28.5228 19.1038 28.6562 19.4521C28.793 19.8005 28.8613 20.2204 28.8613 20.7119V21.0928H24.5205V20.2969H28.3145L27.8213 20.5605C27.8213 20.2253 27.7692 19.929 27.665 19.6719C27.5609 19.4147 27.4046 19.2145 27.1963 19.0713C26.9912 18.9248 26.7357 18.8516 26.4297 18.8516C26.1237 18.8516 25.8617 18.9248 25.6436 19.0713C25.4287 19.2178 25.2643 19.4115 25.1504 19.6523C25.0365 19.8932 24.9795 20.1569 24.9795 20.4434V20.9854C24.9795 21.3597 25.0446 21.6771 25.1748 21.9375C25.305 22.1979 25.4857 22.3965 25.7168 22.5332C25.9512 22.6699 26.223 22.7383 26.5322 22.7383C26.734 22.7383 26.9163 22.709 27.0791 22.6504C27.2451 22.5918 27.3883 22.5039 27.5088 22.3867C27.6292 22.2695 27.7204 22.1247 27.7822 21.9521L28.7881 22.1426C28.7067 22.4355 28.5635 22.6927 28.3584 22.9141C28.1533 23.1354 27.8945 23.3079 27.582 23.4316C27.2728 23.5521 26.9196 23.6123 26.5225 23.6123ZM31.1855 23.6172C30.8405 23.6172 30.528 23.5537 30.248 23.4268C29.9681 23.2965 29.7467 23.1077 29.584 22.8604C29.4212 22.613 29.3398 22.3118 29.3398 21.957C29.3398 21.6478 29.3984 21.3955 29.5156 21.2002C29.6361 21.0016 29.7972 20.8438 29.999 20.7266C30.2008 20.6094 30.4255 20.5215 30.6729 20.4629C30.9202 20.4043 31.1742 20.3587 31.4346 20.3262C31.7633 20.2904 32.0286 20.2594 32.2305 20.2334C32.4323 20.2074 32.5788 20.1667 32.6699 20.1113C32.7643 20.0527 32.8115 19.96 32.8115 19.833V19.8086C32.8115 19.4993 32.7236 19.2601 32.5479 19.0908C32.3753 18.9215 32.1182 18.8369 31.7764 18.8369C31.4215 18.8369 31.14 18.915 30.9316 19.0713C30.7266 19.2243 30.585 19.3984 30.5068 19.5938L29.5059 19.3643C29.6263 19.0322 29.8005 18.7653 30.0283 18.5635C30.2594 18.3584 30.5231 18.2087 30.8193 18.1143C31.1188 18.0199 31.4313 17.9727 31.7568 17.9727C31.9749 17.9727 32.2061 17.9987 32.4502 18.0508C32.6943 18.0996 32.9238 18.1924 33.1387 18.3291C33.3568 18.4626 33.5342 18.6546 33.6709 18.9053C33.8076 19.1559 33.876 19.4798 33.876 19.877V23.5H32.8359V22.7529H32.7969C32.7318 22.8864 32.6292 23.0199 32.4893 23.1533C32.3525 23.2868 32.1768 23.3975 31.9619 23.4854C31.7471 23.5732 31.4883 23.6172 31.1855 23.6172ZM31.415 22.7676C31.7113 22.7676 31.9635 22.7106 32.1719 22.5967C32.3802 22.4795 32.5397 22.3265 32.6504 22.1377C32.7611 21.9489 32.8164 21.7487 32.8164 21.5371V20.8291C32.7773 20.8649 32.7041 20.8991 32.5967 20.9316C32.4893 20.9642 32.3672 20.9919 32.2305 21.0146C32.0938 21.0374 31.9603 21.0586 31.8301 21.0781C31.6999 21.0944 31.5908 21.1074 31.5029 21.1172C31.2979 21.1465 31.1107 21.1921 30.9414 21.2539C30.7721 21.3125 30.6354 21.4004 30.5312 21.5176C30.4303 21.6315 30.3799 21.7829 30.3799 21.9717C30.3799 22.2354 30.4775 22.4339 30.6729 22.5674C30.8682 22.7008 31.1156 22.7676 31.415 22.7676ZM37.4355 18.041V18.8955H34.457V18.041H37.4355ZM35.2529 16.7422H36.3125V21.8984C36.3125 22.1491 36.3646 22.333 36.4688 22.4502C36.5729 22.5641 36.7406 22.6211 36.9717 22.6211C37.027 22.6211 37.0856 22.6178 37.1475 22.6113C37.2126 22.6048 37.2777 22.5951 37.3428 22.582L37.543 23.4609C37.4355 23.4967 37.3184 23.5244 37.1914 23.5439C37.0645 23.5635 36.9375 23.5732 36.8105 23.5732C36.3385 23.5732 35.9609 23.4414 35.6777 23.1777C35.3945 22.9108 35.2529 22.556 35.2529 22.1133V16.7422ZM40.4287 23.6123C39.9176 23.6123 39.4701 23.4951 39.0859 23.2607C38.7051 23.0264 38.4089 22.6976 38.1973 22.2744C37.9889 21.8512 37.8848 21.3597 37.8848 20.7998C37.8848 20.2334 37.9889 19.7386 38.1973 19.3154C38.4089 18.889 38.7051 18.5586 39.0859 18.3242C39.4701 18.0898 39.9176 17.9727 40.4287 17.9727C40.943 17.9727 41.3906 18.0898 41.7715 18.3242C42.1523 18.5586 42.4486 18.889 42.6602 19.3154C42.8717 19.7386 42.9775 20.2334 42.9775 20.7998C42.9775 21.3597 42.8717 21.8512 42.6602 22.2744C42.4486 22.6976 42.1523 23.0264 41.7715 23.2607C41.3906 23.4951 40.943 23.6123 40.4287 23.6123ZM40.4287 22.7188C40.764 22.7188 41.0407 22.6309 41.2588 22.4551C41.4769 22.2793 41.638 22.0465 41.7422 21.7568C41.8496 21.4639 41.9033 21.1449 41.9033 20.7998C41.9033 20.4482 41.8496 20.126 41.7422 19.833C41.638 19.54 41.4769 19.3057 41.2588 19.1299C41.0407 18.9541 40.764 18.8662 40.4287 18.8662C40.0967 18.8662 39.8216 18.9541 39.6035 19.1299C39.3887 19.3057 39.2275 19.54 39.1201 19.833C39.0127 20.126 38.959 20.4482 38.959 20.7998C38.959 21.1449 39.0127 21.4639 39.1201 21.7568C39.2275 22.0465 39.3887 22.2793 39.6035 22.4551C39.8216 22.6309 40.0967 22.7188 40.4287 22.7188ZM43.7441 23.5V18.041H44.7646V18.915H44.8232C44.9242 18.6221 45.0999 18.391 45.3506 18.2217C45.6045 18.0492 45.891 17.9629 46.21 17.9629C46.2751 17.9629 46.3516 17.9661 46.4395 17.9727C46.5306 17.9759 46.6038 17.9808 46.6592 17.9873V19.0029C46.6169 18.9899 46.5404 18.9769 46.4297 18.9639C46.3223 18.9508 46.2132 18.9443 46.1025 18.9443C45.8519 18.9443 45.6273 18.998 45.4287 19.1055C45.2334 19.2096 45.0788 19.3545 44.9648 19.54C44.8542 19.7223 44.7988 19.9339 44.7988 20.1748V23.5H43.7441ZM51.2539 19.3789L50.292 19.5449C50.2301 19.3626 50.1146 19.195 49.9453 19.042C49.7793 18.889 49.5303 18.8125 49.1982 18.8125C48.8988 18.8125 48.6481 18.8809 48.4463 19.0176C48.2477 19.151 48.1484 19.3219 48.1484 19.5303C48.1484 19.7126 48.2152 19.8607 48.3486 19.9746C48.4854 20.0885 48.7018 20.1797 48.998 20.248L49.8721 20.4434C50.3701 20.5573 50.7428 20.7363 50.9902 20.9805C51.2376 21.2246 51.3613 21.5371 51.3613 21.918C51.3613 22.2467 51.2669 22.5397 51.0781 22.7969C50.8893 23.0508 50.6273 23.251 50.292 23.3975C49.9567 23.5407 49.5693 23.6123 49.1299 23.6123C48.5179 23.6123 48.0199 23.4805 47.6357 23.2168C47.2516 22.9531 47.0156 22.582 46.9277 22.1035L47.9482 21.9473C48.0133 22.2142 48.1452 22.416 48.3438 22.5527C48.5456 22.6895 48.806 22.7578 49.125 22.7578C49.4701 22.7578 49.7467 22.6846 49.9551 22.5381C50.1667 22.3916 50.2725 22.2142 50.2725 22.0059C50.2725 21.6608 50.0153 21.4281 49.501 21.3076L48.5781 21.1025C48.0671 20.9854 47.6895 20.8014 47.4453 20.5508C47.2044 20.2969 47.084 19.9779 47.084 19.5938C47.084 19.2715 47.1735 18.9883 47.3525 18.7441C47.5348 18.5 47.7839 18.3112 48.0996 18.1777C48.4186 18.041 48.7816 17.9727 49.1885 17.9727C49.7809 17.9727 50.2448 18.1012 50.5801 18.3584C50.9186 18.6156 51.1432 18.9557 51.2539 19.3789Z" fill="#FB923C"/>
</svg>
