<svg width="68" height="42" viewBox="0 0 68 42" fill="none" xmlns="http://www.w3.org/2000/svg">
<path d="M47 0.5C58.3218 0.5 67.5 9.67816 67.5 21C67.5 32.3218 58.3218 41.5 47 41.5H21C9.67816 41.5 0.5 32.3218 0.5 21C0.5 9.67816 9.67816 0.5 21 0.5H47Z" fill="#29292E"/>
<path d="M47 0.5C58.3218 0.5 67.5 9.67816 67.5 21C67.5 32.3218 58.3218 41.5 47 41.5H21C9.67816 41.5 0.5 32.3218 0.5 21C0.5 9.67816 9.67816 0.5 21 0.5H47Z" stroke="#3F3F3F"/>
<path d="M24.5518 18.0977C23.8942 18.0977 23.3164 17.9463 22.8184 17.6436C22.3236 17.3408 21.9362 16.9111 21.6562 16.3545C21.3796 15.7946 21.2412 15.1322 21.2412 14.3672C21.2412 13.5924 21.3812 12.9268 21.6611 12.3701C21.9443 11.8102 22.3317 11.3805 22.8232 11.0811C23.3148 10.7783 23.8747 10.627 24.5029 10.627C24.8936 10.627 25.2581 10.6855 25.5967 10.8027C25.9385 10.9167 26.2412 11.0811 26.5049 11.2959C26.7718 11.5107 26.9915 11.7646 27.1641 12.0576C27.3398 12.3473 27.4587 12.6696 27.5205 13.0244H26.3975C26.3291 12.8063 26.238 12.6126 26.124 12.4434C26.0101 12.2708 25.8734 12.1243 25.7139 12.0039C25.5544 11.8802 25.3737 11.7874 25.1719 11.7256C24.9733 11.6605 24.752 11.6279 24.5078 11.6279C24.0977 11.6279 23.7282 11.7337 23.3994 11.9453C23.0706 12.1536 22.8102 12.4613 22.6182 12.8682C22.4261 13.2751 22.3301 13.7731 22.3301 14.3623C22.3301 14.9515 22.4261 15.4495 22.6182 15.8564C22.8102 16.2633 23.0739 16.5726 23.4092 16.7842C23.7445 16.9925 24.1253 17.0967 24.5518 17.0967C24.9456 17.0967 25.2891 17.0169 25.582 16.8574C25.875 16.6947 26.1029 16.4668 26.2656 16.1738C26.4284 15.8809 26.5098 15.5342 26.5098 15.1338L26.7979 15.1875H24.7178V14.2793H27.5791V15.1094C27.5791 15.7214 27.4489 16.2503 27.1885 16.6963C26.9313 17.1423 26.5732 17.4873 26.1143 17.7314C25.6585 17.9756 25.1377 18.0977 24.5518 18.0977ZM30.0498 18.1172C29.7048 18.1172 29.3923 18.0537 29.1123 17.9268C28.8324 17.7965 28.611 17.6077 28.4482 17.3604C28.2855 17.113 28.2041 16.8118 28.2041 16.457C28.2041 16.1478 28.2627 15.8955 28.3799 15.7002C28.5003 15.5016 28.6615 15.3438 28.8633 15.2266C29.0651 15.1094 29.2897 15.0215 29.5371 14.9629C29.7845 14.9043 30.0384 14.8587 30.2988 14.8262C30.6276 14.7904 30.8929 14.7594 31.0947 14.7334C31.2965 14.7074 31.443 14.6667 31.5342 14.6113C31.6286 14.5527 31.6758 14.46 31.6758 14.333V14.3086C31.6758 13.9993 31.5879 13.7601 31.4121 13.5908C31.2396 13.4215 30.9824 13.3369 30.6406 13.3369C30.2858 13.3369 30.0042 13.415 29.7959 13.5713C29.5908 13.7243 29.4492 13.8984 29.3711 14.0938L28.3701 13.8643C28.4906 13.5322 28.6647 13.2653 28.8926 13.0635C29.1237 12.8584 29.3874 12.7087 29.6836 12.6143C29.9831 12.5199 30.2956 12.4727 30.6211 12.4727C30.8392 12.4727 31.0703 12.4987 31.3145 12.5508C31.5586 12.5996 31.7881 12.6924 32.0029 12.8291C32.221 12.9626 32.3984 13.1546 32.5352 13.4053C32.6719 13.6559 32.7402 13.9798 32.7402 14.377V18H31.7002V17.2529H31.6611C31.596 17.3864 31.4935 17.5199 31.3535 17.6533C31.2168 17.7868 31.041 17.8975 30.8262 17.9854C30.6113 18.0732 30.3525 18.1172 30.0498 18.1172ZM30.2793 17.2676C30.5755 17.2676 30.8278 17.2106 31.0361 17.0967C31.2445 16.9795 31.404 16.8265 31.5146 16.6377C31.6253 16.4489 31.6807 16.2487 31.6807 16.0371V15.3291C31.6416 15.3649 31.5684 15.3991 31.4609 15.4316C31.3535 15.4642 31.2314 15.4919 31.0947 15.5146C30.958 15.5374 30.8245 15.5586 30.6943 15.5781C30.5641 15.5944 30.4551 15.6074 30.3672 15.6172C30.1621 15.6465 29.9749 15.6921 29.8057 15.7539C29.6364 15.8125 29.4997 15.9004 29.3955 16.0176C29.2946 16.1315 29.2441 16.2829 29.2441 16.4717C29.2441 16.7354 29.3418 16.9339 29.5371 17.0674C29.7324 17.2008 29.9798 17.2676 30.2793 17.2676ZM33.7607 18V12.541H34.7715V13.4395H34.8447C34.9587 13.1367 35.1442 12.9007 35.4014 12.7314C35.6618 12.5589 35.971 12.4727 36.3291 12.4727C36.6937 12.4727 36.998 12.5589 37.2422 12.7314C37.4896 12.9007 37.6735 13.1367 37.7939 13.4395H37.8525C37.9827 13.1432 38.1895 12.9089 38.4727 12.7363C38.7559 12.5605 39.0928 12.4727 39.4834 12.4727C39.9782 12.4727 40.3835 12.6289 40.6992 12.9414C41.015 13.2507 41.1729 13.7178 41.1729 14.3428V18H40.1084V14.4404C40.1084 14.0693 40.0075 13.8024 39.8057 13.6396C39.6038 13.4736 39.363 13.3906 39.083 13.3906C38.738 13.3906 38.4694 13.498 38.2773 13.7129C38.0885 13.9245 37.9941 14.193 37.9941 14.5186V18H36.9297V14.3721C36.9297 14.0758 36.8385 13.8382 36.6562 13.6592C36.474 13.4801 36.2347 13.3906 35.9385 13.3906C35.7367 13.3906 35.5495 13.4443 35.377 13.5518C35.2077 13.6559 35.071 13.8024 34.9668 13.9912C34.8659 14.1768 34.8154 14.3916 34.8154 14.6357V18H33.7607ZM44.5371 18.1123C44.0033 18.1123 43.541 17.9967 43.1504 17.7656C42.7598 17.5345 42.4587 17.209 42.2471 16.7891C42.0387 16.3659 41.9346 15.8727 41.9346 15.3096C41.9346 14.7497 42.0371 14.2565 42.2422 13.8301C42.4505 13.4036 42.7419 13.0716 43.1162 12.834C43.4938 12.5931 43.9365 12.4727 44.4443 12.4727C44.7536 12.4727 45.0531 12.5231 45.3428 12.624C45.6325 12.7249 45.8929 12.8844 46.124 13.1025C46.3551 13.3206 46.5374 13.6038 46.6709 13.9521C46.8076 14.3005 46.876 14.7204 46.876 15.2119V15.5928H42.5352V14.7969H46.3291L45.8359 15.0605C45.8359 14.7253 45.7839 14.429 45.6797 14.1719C45.5755 13.9147 45.4193 13.7145 45.2109 13.5713C45.0059 13.4248 44.7503 13.3516 44.4443 13.3516C44.1383 13.3516 43.8763 13.4248 43.6582 13.5713C43.4434 13.7178 43.279 13.9115 43.165 14.1523C43.0511 14.3932 42.9941 14.6569 42.9941 14.9434V15.4854C42.9941 15.8597 43.0592 16.1771 43.1895 16.4375C43.3197 16.6979 43.5003 16.8965 43.7314 17.0332C43.9658 17.1699 44.2376 17.2383 44.5469 17.2383C44.7487 17.2383 44.931 17.209 45.0938 17.1504C45.2598 17.0918 45.403 17.0039 45.5234 16.8867C45.6439 16.7695 45.735 16.6247 45.7969 16.4521L46.8027 16.6426C46.7214 16.9355 46.5781 17.1927 46.373 17.4141C46.168 17.6354 45.9092 17.8079 45.5967 17.9316C45.2874 18.0521 44.9342 18.1123 44.5371 18.1123ZM22.1885 26.8789L21.2266 27.0449C21.1647 26.8626 21.0492 26.695 20.8799 26.542C20.7139 26.389 20.4648 26.3125 20.1328 26.3125C19.8333 26.3125 19.5827 26.3809 19.3809 26.5176C19.1823 26.651 19.083 26.8219 19.083 27.0303C19.083 27.2126 19.1497 27.3607 19.2832 27.4746C19.4199 27.5885 19.6364 27.6797 19.9326 27.748L20.8066 27.9434C21.3047 28.0573 21.6774 28.2363 21.9248 28.4805C22.1722 28.7246 22.2959 29.0371 22.2959 29.418C22.2959 29.7467 22.2015 30.0397 22.0127 30.2969C21.8239 30.5508 21.5618 30.751 21.2266 30.8975C20.8913 31.0407 20.5039 31.1123 20.0645 31.1123C19.4525 31.1123 18.9544 30.9805 18.5703 30.7168C18.1862 30.4531 17.9502 30.082 17.8623 29.6035L18.8828 29.4473C18.9479 29.7142 19.0798 29.916 19.2783 30.0527C19.4801 30.1895 19.7406 30.2578 20.0596 30.2578C20.4046 30.2578 20.6813 30.1846 20.8896 30.0381C21.1012 29.8916 21.207 29.7142 21.207 29.5059C21.207 29.1608 20.9499 28.9281 20.4355 28.8076L19.5127 28.6025C19.0016 28.4854 18.624 28.3014 18.3799 28.0508C18.139 27.7969 18.0186 27.4779 18.0186 27.0938C18.0186 26.7715 18.1081 26.4883 18.2871 26.2441C18.4694 26 18.7184 25.8112 19.0342 25.6777C19.3532 25.541 19.7161 25.4727 20.123 25.4727C20.7155 25.4727 21.1794 25.6012 21.5146 25.8584C21.8532 26.1156 22.0778 26.4557 22.1885 26.8789ZM25.3867 31.1123C24.8529 31.1123 24.3906 30.9967 24 30.7656C23.6094 30.5345 23.3083 30.209 23.0967 29.7891C22.8883 29.3659 22.7842 28.8727 22.7842 28.3096C22.7842 27.7497 22.8867 27.2565 23.0918 26.8301C23.3001 26.4036 23.5915 26.0716 23.9658 25.834C24.3434 25.5931 24.7861 25.4727 25.2939 25.4727C25.6032 25.4727 25.9027 25.5231 26.1924 25.624C26.4821 25.7249 26.7425 25.8844 26.9736 26.1025C27.2048 26.3206 27.387 26.6038 27.5205 26.9521C27.6572 27.3005 27.7256 27.7204 27.7256 28.2119V28.5928H23.3848V27.7969H27.1787L26.6855 28.0605C26.6855 27.7253 26.6335 27.429 26.5293 27.1719C26.4251 26.9147 26.2689 26.7145 26.0605 26.5713C25.8555 26.4248 25.5999 26.3516 25.2939 26.3516C24.988 26.3516 24.7259 26.4248 24.5078 26.5713C24.293 26.7178 24.1286 26.9115 24.0146 27.1523C23.9007 27.3932 23.8438 27.6569 23.8438 27.9434V28.4854C23.8438 28.8597 23.9089 29.1771 24.0391 29.4375C24.1693 29.6979 24.3499 29.8965 24.5811 30.0332C24.8154 30.1699 25.0872 30.2383 25.3965 30.2383C25.5983 30.2383 25.7806 30.209 25.9434 30.1504C26.1094 30.0918 26.2526 30.0039 26.373 29.8867C26.4935 29.7695 26.5846 29.6247 26.6465 29.4521L27.6523 29.6426C27.571 29.9355 27.4277 30.1927 27.2227 30.4141C27.0176 30.6354 26.7588 30.8079 26.4463 30.9316C26.137 31.0521 25.7839 31.1123 25.3867 31.1123ZM28.4678 31V25.541H29.4883V26.415H29.5469C29.6478 26.1221 29.8236 25.891 30.0742 25.7217C30.3281 25.5492 30.6146 25.4629 30.9336 25.4629C30.9987 25.4629 31.0752 25.4661 31.1631 25.4727C31.2542 25.4759 31.3275 25.4808 31.3828 25.4873V26.5029C31.3405 26.4899 31.264 26.4769 31.1533 26.4639C31.0459 26.4508 30.9368 26.4443 30.8262 26.4443C30.5755 26.4443 30.3509 26.498 30.1523 26.6055C29.957 26.7096 29.8024 26.8545 29.6885 27.04C29.5778 27.2223 29.5225 27.4339 29.5225 27.6748V31H28.4678ZM36.7197 25.541L34.7471 31H33.6045L31.627 25.541H32.7646L34.1514 29.75H34.21L35.5869 25.541H36.7197ZM39.4688 31.1123C38.9349 31.1123 38.4727 30.9967 38.082 30.7656C37.6914 30.5345 37.3903 30.209 37.1787 29.7891C36.9704 29.3659 36.8662 28.8727 36.8662 28.3096C36.8662 27.7497 36.9688 27.2565 37.1738 26.8301C37.3822 26.4036 37.6735 26.0716 38.0479 25.834C38.4255 25.5931 38.8682 25.4727 39.376 25.4727C39.6852 25.4727 39.9847 25.5231 40.2744 25.624C40.5641 25.7249 40.8245 25.8844 41.0557 26.1025C41.2868 26.3206 41.4691 26.6038 41.6025 26.9521C41.7393 27.3005 41.8076 27.7204 41.8076 28.2119V28.5928H37.4668V27.7969H41.2607L40.7676 28.0605C40.7676 27.7253 40.7155 27.429 40.6113 27.1719C40.5072 26.9147 40.3509 26.7145 40.1426 26.5713C39.9375 26.4248 39.682 26.3516 39.376 26.3516C39.07 26.3516 38.8079 26.4248 38.5898 26.5713C38.375 26.7178 38.2106 26.9115 38.0967 27.1523C37.9827 27.3932 37.9258 27.6569 37.9258 27.9434V28.4854C37.9258 28.8597 37.9909 29.1771 38.1211 29.4375C38.2513 29.6979 38.432 29.8965 38.6631 30.0332C38.8975 30.1699 39.1693 30.2383 39.4785 30.2383C39.6803 30.2383 39.8626 30.209 40.0254 30.1504C40.1914 30.0918 40.3346 30.0039 40.4551 29.8867C40.5755 29.7695 40.6667 29.6247 40.7285 29.4521L41.7344 29.6426C41.653 29.9355 41.5098 30.1927 41.3047 30.4141C41.0996 30.6354 40.8408 30.8079 40.5283 30.9316C40.2191 31.0521 39.8659 31.1123 39.4688 31.1123ZM42.5498 31V25.541H43.5703V26.415H43.6289C43.7298 26.1221 43.9056 25.891 44.1562 25.7217C44.4102 25.5492 44.6966 25.4629 45.0156 25.4629C45.0807 25.4629 45.1572 25.4661 45.2451 25.4727C45.3363 25.4759 45.4095 25.4808 45.4648 25.4873V26.5029C45.4225 26.4899 45.346 26.4769 45.2354 26.4639C45.1279 26.4508 45.0189 26.4443 44.9082 26.4443C44.6576 26.4443 44.4329 26.498 44.2344 26.6055C44.0391 26.7096 43.8844 26.8545 43.7705 27.04C43.6598 27.2223 43.6045 27.4339 43.6045 27.6748V31H42.5498ZM50.0596 26.8789L49.0977 27.0449C49.0358 26.8626 48.9202 26.695 48.751 26.542C48.585 26.389 48.3359 26.3125 48.0039 26.3125C47.7044 26.3125 47.4538 26.3809 47.252 26.5176C47.0534 26.651 46.9541 26.8219 46.9541 27.0303C46.9541 27.2126 47.0208 27.3607 47.1543 27.4746C47.291 27.5885 47.5075 27.6797 47.8037 27.748L48.6777 27.9434C49.1758 28.0573 49.5485 28.2363 49.7959 28.4805C50.0433 28.7246 50.167 29.0371 50.167 29.418C50.167 29.7467 50.0726 30.0397 49.8838 30.2969C49.695 30.5508 49.4329 30.751 49.0977 30.8975C48.7624 31.0407 48.375 31.1123 47.9355 31.1123C47.3236 31.1123 46.8255 30.9805 46.4414 30.7168C46.0573 30.4531 45.8213 30.082 45.7334 29.6035L46.7539 29.4473C46.819 29.7142 46.9508 29.916 47.1494 30.0527C47.3512 30.1895 47.6117 30.2578 47.9307 30.2578C48.2757 30.2578 48.5524 30.1846 48.7607 30.0381C48.9723 29.8916 49.0781 29.7142 49.0781 29.5059C49.0781 29.1608 48.821 28.9281 48.3066 28.8076L47.3838 28.6025C46.8727 28.4854 46.4951 28.3014 46.251 28.0508C46.0101 27.7969 45.8896 27.4779 45.8896 27.0938C45.8896 26.7715 45.9792 26.4883 46.1582 26.2441C46.3405 26 46.5895 25.8112 46.9053 25.6777C47.2243 25.541 47.5872 25.4727 47.9941 25.4727C48.5866 25.4727 49.0505 25.6012 49.3857 25.8584C49.7243 26.1156 49.9489 26.4557 50.0596 26.8789Z" fill="#F4F4F5"/>
</svg>
