<svg width="68" height="42" viewBox="0 0 68 42" fill="none" xmlns="http://www.w3.org/2000/svg">
<path d="M47 0.5C58.3218 0.5 67.5 9.67816 67.5 21C67.5 32.3218 58.3218 41.5 47 41.5H21C9.67816 41.5 0.5 32.3218 0.5 21C0.5 9.67816 9.67816 0.5 21 0.5H47Z" fill="#29292E"/>
<path d="M47 0.5C58.3218 0.5 67.5 9.67816 67.5 21C67.5 32.3218 58.3218 41.5 47 41.5H21C9.67816 41.5 0.5 32.3218 0.5 21C0.5 9.67816 9.67816 0.5 21 0.5H47Z" stroke="#3F3F3F"/>
<path d="M11.7295 24.5V17.2246H14.3271C14.8903 17.2246 15.3574 17.3288 15.7285 17.5371C16.0996 17.7422 16.3779 18.0238 16.5635 18.3818C16.749 18.7367 16.8418 19.137 16.8418 19.583C16.8418 20.029 16.749 20.431 16.5635 20.7891C16.3779 21.1439 16.098 21.4255 15.7236 21.6338C15.3525 21.8389 14.8838 21.9414 14.3174 21.9414H12.54V21.0137H14.2148C14.5762 21.0137 14.8675 20.9518 15.0889 20.8281C15.3135 20.7044 15.4762 20.5352 15.5771 20.3203C15.6813 20.1022 15.7334 19.8564 15.7334 19.583C15.7334 19.3063 15.6813 19.0622 15.5771 18.8506C15.4762 18.6357 15.3135 18.4681 15.0889 18.3477C14.8643 18.2272 14.5713 18.167 14.21 18.167H12.8281V24.5H11.7295ZM21.0752 22.2441V19.041H22.1299V24.5H21.0947V23.5527H21.0361C20.9059 23.8424 20.7041 24.085 20.4307 24.2803C20.1572 24.4756 19.8154 24.5716 19.4053 24.5684C19.0537 24.5684 18.7428 24.4919 18.4727 24.3389C18.2057 24.1859 17.9958 23.9564 17.8428 23.6504C17.693 23.3444 17.6182 22.9652 17.6182 22.5127V19.041H18.6729V22.3906C18.6729 22.7585 18.777 23.0531 18.9854 23.2744C19.1937 23.4958 19.4622 23.6048 19.791 23.6016C19.9896 23.6016 20.1865 23.5527 20.3818 23.4551C20.5804 23.3574 20.7448 23.2077 20.875 23.0059C21.0085 22.804 21.0752 22.5501 21.0752 22.2441ZM25.8359 24.6074C25.5072 24.6074 25.237 24.5521 25.0254 24.4414C24.8171 24.3275 24.6527 24.1956 24.5322 24.0459C24.415 23.8962 24.3239 23.7643 24.2588 23.6504H24.1709V24.5H23.1455V17.2246H24.2002V19.9297H24.2588C24.3239 19.8158 24.4134 19.6839 24.5273 19.5342C24.6445 19.3844 24.8073 19.2542 25.0156 19.1436C25.224 19.0296 25.4958 18.9727 25.8311 18.9727C26.2705 18.9727 26.6611 19.0833 27.0029 19.3047C27.348 19.526 27.6198 19.8467 27.8184 20.2666C28.0169 20.6865 28.1162 21.1927 28.1162 21.7852C28.1162 22.3711 28.0186 22.8757 27.8232 23.2988C27.6279 23.7188 27.3577 24.0426 27.0127 24.2705C26.6709 24.4951 26.2786 24.6074 25.8359 24.6074ZM25.6064 23.7041C25.9222 23.7041 26.1859 23.6195 26.3975 23.4502C26.609 23.2809 26.7686 23.0514 26.876 22.7617C26.9867 22.4688 27.042 22.14 27.042 21.7754C27.042 21.4141 26.9883 21.0902 26.8809 20.8037C26.7734 20.5173 26.6139 20.291 26.4023 20.125C26.1908 19.959 25.9255 19.876 25.6064 19.876C25.2972 19.876 25.0368 19.9557 24.8252 20.1152C24.6136 20.2715 24.4525 20.4928 24.3418 20.7793C24.2344 21.0625 24.1807 21.3945 24.1807 21.7754C24.1807 22.1562 24.236 22.4915 24.3467 22.7812C24.4574 23.071 24.6185 23.2972 24.8301 23.46C25.0449 23.6227 25.3037 23.7041 25.6064 23.7041ZM29.9424 17.2246V24.5H28.8877V17.2246H29.9424ZM30.958 24.5V19.041H32.0127V24.5H30.958ZM31.4902 18.2012C31.3047 18.2012 31.1468 18.1393 31.0166 18.0156C30.8864 17.8919 30.8213 17.7438 30.8213 17.5713C30.8213 17.3955 30.8864 17.2458 31.0166 17.1221C31.1468 16.9984 31.3047 16.9365 31.4902 16.9365C31.6725 16.9365 31.8288 16.9984 31.959 17.1221C32.0924 17.2458 32.1592 17.3955 32.1592 17.5713C32.1592 17.7438 32.0924 17.8919 31.959 18.0156C31.8288 18.1393 31.6725 18.2012 31.4902 18.2012ZM37.1104 20.3789L36.1484 20.5449C36.0866 20.3626 35.971 20.195 35.8018 20.042C35.6357 19.889 35.3867 19.8125 35.0547 19.8125C34.7552 19.8125 34.5046 19.8809 34.3027 20.0176C34.1042 20.151 34.0049 20.3219 34.0049 20.5303C34.0049 20.7126 34.0716 20.8607 34.2051 20.9746C34.3418 21.0885 34.5583 21.1797 34.8545 21.248L35.7285 21.4434C36.2266 21.5573 36.5993 21.7363 36.8467 21.9805C37.0941 22.2246 37.2178 22.5371 37.2178 22.918C37.2178 23.2467 37.1234 23.5397 36.9346 23.7969C36.7458 24.0508 36.4837 24.251 36.1484 24.3975C35.8132 24.5407 35.4258 24.6123 34.9863 24.6123C34.3743 24.6123 33.8763 24.4805 33.4922 24.2168C33.1081 23.9531 32.8721 23.582 32.7842 23.1035L33.8047 22.9473C33.8698 23.2142 34.0016 23.416 34.2002 23.5527C34.402 23.6895 34.6624 23.7578 34.9814 23.7578C35.3265 23.7578 35.6032 23.6846 35.8115 23.5381C36.0231 23.3916 36.1289 23.2142 36.1289 23.0059C36.1289 22.6608 35.8717 22.4281 35.3574 22.3076L34.4346 22.1025C33.9235 21.9854 33.5459 21.8014 33.3018 21.5508C33.0609 21.2969 32.9404 20.9779 32.9404 20.5938C32.9404 20.2715 33.0299 19.9883 33.209 19.7441C33.3913 19.5 33.6403 19.3112 33.9561 19.1777C34.2751 19.041 34.638 18.9727 35.0449 18.9727C35.6374 18.9727 36.1012 19.1012 36.4365 19.3584C36.7751 19.6156 36.9997 19.9557 37.1104 20.3789ZM39.0146 21.2627V24.5H37.96V17.2246H39V19.9395H39.0732C39.2002 19.6432 39.3939 19.4089 39.6543 19.2363C39.918 19.0605 40.2614 18.9727 40.6846 18.9727C41.0589 18.9727 41.3861 19.0492 41.666 19.2021C41.946 19.3551 42.1641 19.5846 42.3203 19.8906C42.4798 20.1966 42.5596 20.5775 42.5596 21.0332V24.5H41.4951V21.1602C41.4951 20.7565 41.391 20.444 41.1826 20.2227C40.9775 20.0013 40.6911 19.8906 40.3232 19.8906C40.0693 19.8906 39.8447 19.946 39.6494 20.0566C39.4541 20.1641 39.2995 20.3187 39.1855 20.5205C39.0716 20.7223 39.0146 20.9697 39.0146 21.2627ZM45.9238 24.6123C45.39 24.6123 44.9277 24.4967 44.5371 24.2656C44.1465 24.0345 43.8454 23.709 43.6338 23.2891C43.4255 22.8659 43.3213 22.3727 43.3213 21.8096C43.3213 21.2497 43.4238 20.7565 43.6289 20.3301C43.8372 19.9036 44.1286 19.5716 44.5029 19.334C44.8805 19.0931 45.3232 18.9727 45.8311 18.9727C46.1403 18.9727 46.4398 19.0231 46.7295 19.124C47.0192 19.2249 47.2796 19.3844 47.5107 19.6025C47.7419 19.8206 47.9242 20.1038 48.0576 20.4521C48.1943 20.8005 48.2627 21.2204 48.2627 21.7119V22.0928H43.9219V21.2969H47.7158L47.2227 21.5605C47.2227 21.2253 47.1706 20.929 47.0664 20.6719C46.9622 20.4147 46.806 20.2145 46.5977 20.0713C46.3926 19.9248 46.137 19.8516 45.8311 19.8516C45.5251 19.8516 45.263 19.9248 45.0449 20.0713C44.8301 20.2178 44.6657 20.4115 44.5518 20.6523C44.4378 20.8932 44.3809 21.1569 44.3809 21.4434V21.9854C44.3809 22.3597 44.446 22.6771 44.5762 22.9375C44.7064 23.1979 44.887 23.3965 45.1182 23.5332C45.3525 23.6699 45.6243 23.7383 45.9336 23.7383C46.1354 23.7383 46.3177 23.709 46.4805 23.6504C46.6465 23.5918 46.7897 23.5039 46.9102 23.3867C47.0306 23.2695 47.1217 23.1247 47.1836 22.9521L48.1895 23.1426C48.1081 23.4355 47.9648 23.6927 47.7598 23.9141C47.5547 24.1354 47.2959 24.3079 46.9834 24.4316C46.6742 24.5521 46.321 24.6123 45.9238 24.6123ZM49.0049 24.5V19.041H50.0254V19.915H50.084C50.1849 19.6221 50.3607 19.391 50.6113 19.2217C50.8652 19.0492 51.1517 18.9629 51.4707 18.9629C51.5358 18.9629 51.6123 18.9661 51.7002 18.9727C51.7913 18.9759 51.8646 18.9808 51.9199 18.9873V20.0029C51.8776 19.9899 51.8011 19.9769 51.6904 19.9639C51.583 19.9508 51.474 19.9443 51.3633 19.9443C51.1126 19.9443 50.888 19.998 50.6895 20.1055C50.4941 20.2096 50.3395 20.3545 50.2256 20.54C50.1149 20.7223 50.0596 20.9339 50.0596 21.1748V24.5H49.0049ZM56.5146 20.3789L55.5527 20.5449C55.4909 20.3626 55.3753 20.195 55.2061 20.042C55.04 19.889 54.791 19.8125 54.459 19.8125C54.1595 19.8125 53.9089 19.8809 53.707 20.0176C53.5085 20.151 53.4092 20.3219 53.4092 20.5303C53.4092 20.7126 53.4759 20.8607 53.6094 20.9746C53.7461 21.0885 53.9626 21.1797 54.2588 21.248L55.1328 21.4434C55.6309 21.5573 56.0036 21.7363 56.251 21.9805C56.4984 22.2246 56.6221 22.5371 56.6221 22.918C56.6221 23.2467 56.5277 23.5397 56.3389 23.7969C56.1501 24.0508 55.888 24.251 55.5527 24.3975C55.2174 24.5407 54.8301 24.6123 54.3906 24.6123C53.7786 24.6123 53.2806 24.4805 52.8965 24.2168C52.5124 23.9531 52.2764 23.582 52.1885 23.1035L53.209 22.9473C53.2741 23.2142 53.4059 23.416 53.6045 23.5527C53.8063 23.6895 54.0667 23.7578 54.3857 23.7578C54.7308 23.7578 55.0075 23.6846 55.2158 23.5381C55.4274 23.3916 55.5332 23.2142 55.5332 23.0059C55.5332 22.6608 55.276 22.4281 54.7617 22.3076L53.8389 22.1025C53.3278 21.9854 52.9502 21.8014 52.7061 21.5508C52.4652 21.2969 52.3447 20.9779 52.3447 20.5938C52.3447 20.2715 52.4342 19.9883 52.6133 19.7441C52.7956 19.5 53.0446 19.3112 53.3604 19.1777C53.6794 19.041 54.0423 18.9727 54.4492 18.9727C55.0417 18.9727 55.5055 19.1012 55.8408 19.3584C56.1794 19.6156 56.404 19.9557 56.5146 20.3789Z" fill="#F4F4F5"/>
</svg>
