<svg width="66" height="40" viewBox="0 0 66 40" fill="none" xmlns="http://www.w3.org/2000/svg">
<path d="M20 0.5H46C56.7696 0.5 65.5 9.23045 65.5 20C65.5 30.7696 56.7696 39.5 46 39.5H20C9.23045 39.5 0.5 30.7696 0.5 20C0.5 9.23045 9.23045 0.5 20 0.5Z" fill="#2D1501"/>
<path d="M20 0.5H46C56.7696 0.5 65.5 9.23045 65.5 20C65.5 30.7696 56.7696 39.5 46 39.5H20C9.23045 39.5 0.5 30.7696 0.5 20C0.5 9.23045 9.23045 0.5 20 0.5Z" stroke="#FB923C"/>
<path d="M18.1074 16.2246H19.4453L21.7598 21.8789H21.8428L24.1621 16.2246H25.5195V23.5H24.4453V18.2363H24.377L22.2236 23.4902H21.3545L19.2256 18.2314H19.1572V23.5H18.1074V16.2246ZM28.1953 23.6172C27.8503 23.6172 27.5378 23.5537 27.2578 23.4268C26.9779 23.2965 26.7565 23.1077 26.5938 22.8604C26.431 22.613 26.3496 22.3118 26.3496 21.957C26.3496 21.6478 26.4082 21.3955 26.5254 21.2002C26.6458 21.0016 26.807 20.8438 27.0088 20.7266C27.2106 20.6094 27.4352 20.5215 27.6826 20.4629C27.93 20.4043 28.1839 20.3587 28.4443 20.3262C28.7731 20.2904 29.0384 20.2594 29.2402 20.2334C29.4421 20.2074 29.5885 20.1667 29.6797 20.1113C29.7741 20.0527 29.8213 19.96 29.8213 19.833V19.8086C29.8213 19.4993 29.7334 19.2601 29.5576 19.0908C29.3851 18.9215 29.1279 18.8369 28.7861 18.8369C28.4313 18.8369 28.1497 18.915 27.9414 19.0713C27.7363 19.2243 27.5947 19.3984 27.5166 19.5938L26.5156 19.3643C26.6361 19.0322 26.8102 18.7653 27.0381 18.5635C27.2692 18.3584 27.5329 18.2087 27.8291 18.1143C28.1286 18.0199 28.4411 17.9727 28.7666 17.9727C28.9847 17.9727 29.2158 17.9987 29.46 18.0508C29.7041 18.0996 29.9336 18.1924 30.1484 18.3291C30.3665 18.4626 30.5439 18.6546 30.6807 18.9053C30.8174 19.1559 30.8857 19.4798 30.8857 19.877V23.5H29.8457V22.7529H29.8066C29.7415 22.8864 29.639 23.0199 29.499 23.1533C29.3623 23.2868 29.1865 23.3975 28.9717 23.4854C28.7568 23.5732 28.498 23.6172 28.1953 23.6172ZM28.4248 22.7676C28.721 22.7676 28.9733 22.7106 29.1816 22.5967C29.39 22.4795 29.5495 22.3265 29.6602 22.1377C29.7708 21.9489 29.8262 21.7487 29.8262 21.5371V20.8291C29.7871 20.8649 29.7139 20.8991 29.6064 20.9316C29.499 20.9642 29.377 20.9919 29.2402 21.0146C29.1035 21.0374 28.9701 21.0586 28.8398 21.0781C28.7096 21.0944 28.6006 21.1074 28.5127 21.1172C28.3076 21.1465 28.1204 21.1921 27.9512 21.2539C27.7819 21.3125 27.6452 21.4004 27.541 21.5176C27.4401 21.6315 27.3896 21.7829 27.3896 21.9717C27.3896 22.2354 27.4873 22.4339 27.6826 22.5674C27.8779 22.7008 28.1253 22.7676 28.4248 22.7676ZM31.9062 23.5V18.041H32.9268V18.915H32.9854C33.0863 18.6221 33.262 18.391 33.5127 18.2217C33.7666 18.0492 34.0531 17.9629 34.3721 17.9629C34.4372 17.9629 34.5137 17.9661 34.6016 17.9727C34.6927 17.9759 34.766 17.9808 34.8213 17.9873V19.0029C34.779 18.9899 34.7025 18.9769 34.5918 18.9639C34.4844 18.9508 34.3753 18.9443 34.2646 18.9443C34.014 18.9443 33.7894 18.998 33.5908 19.1055C33.3955 19.2096 33.2409 19.3545 33.127 19.54C33.0163 19.7223 32.9609 19.9339 32.9609 20.1748V23.5H31.9062ZM36.3105 21.6494L36.2959 20.3555H36.4863L38.6592 18.041H39.9287L37.4531 20.6777H37.2773L36.3105 21.6494ZM35.334 23.5V16.2246H36.3887V23.5H35.334ZM38.7715 23.5L36.8184 20.9121L37.5508 20.165L40.0801 23.5H38.7715ZM42.6045 23.6123C42.0706 23.6123 41.6084 23.4967 41.2178 23.2656C40.8271 23.0345 40.526 22.709 40.3145 22.2891C40.1061 21.8659 40.002 21.3727 40.002 20.8096C40.002 20.2497 40.1045 19.7565 40.3096 19.3301C40.5179 18.9036 40.8092 18.5716 41.1836 18.334C41.5612 18.0931 42.0039 17.9727 42.5117 17.9727C42.821 17.9727 43.1204 18.0231 43.4102 18.124C43.6999 18.2249 43.9603 18.3844 44.1914 18.6025C44.4225 18.8206 44.6048 19.1038 44.7383 19.4521C44.875 19.8005 44.9434 20.2204 44.9434 20.7119V21.0928H40.6025V20.2969H44.3965L43.9033 20.5605C43.9033 20.2253 43.8512 19.929 43.7471 19.6719C43.6429 19.4147 43.4867 19.2145 43.2783 19.0713C43.0732 18.9248 42.8177 18.8516 42.5117 18.8516C42.2057 18.8516 41.9437 18.9248 41.7256 19.0713C41.5107 19.2178 41.3464 19.4115 41.2324 19.6523C41.1185 19.8932 41.0615 20.1569 41.0615 20.4434V20.9854C41.0615 21.3597 41.1266 21.6771 41.2568 21.9375C41.387 22.1979 41.5677 22.3965 41.7988 22.5332C42.0332 22.6699 42.305 22.7383 42.6143 22.7383C42.8161 22.7383 42.9984 22.709 43.1611 22.6504C43.3271 22.5918 43.4704 22.5039 43.5908 22.3867C43.7113 22.2695 43.8024 22.1247 43.8643 21.9521L44.8701 22.1426C44.7887 22.4355 44.6455 22.6927 44.4404 22.9141C44.2354 23.1354 43.9766 23.3079 43.6641 23.4316C43.3548 23.5521 43.0016 23.6123 42.6045 23.6123ZM48.2246 18.041V18.8955H45.2461V18.041H48.2246ZM46.042 16.7422H47.1016V21.8984C47.1016 22.1491 47.1536 22.333 47.2578 22.4502C47.362 22.5641 47.5296 22.6211 47.7607 22.6211C47.8161 22.6211 47.8747 22.6178 47.9365 22.6113C48.0016 22.6048 48.0667 22.5951 48.1318 22.582L48.332 23.4609C48.2246 23.4967 48.1074 23.5244 47.9805 23.5439C47.8535 23.5635 47.7266 23.5732 47.5996 23.5732C47.1276 23.5732 46.75 23.4414 46.4668 23.1777C46.1836 22.9108 46.042 22.556 46.042 22.1133V16.7422Z" fill="#FB923C"/>
</svg>
