<svg width="557" height="259" viewBox="0 0 557 259" fill="none" xmlns="http://www.w3.org/2000/svg">
<g clip-path="url(#clip0_36_285)">
<g opacity="0.6">
<circle cx="278.5" cy="282.213" r="278.5" fill="url(#paint0_linear_36_285)" fill-opacity="0.4"/>
<circle cx="278.5" cy="282.213" r="278.5" fill="url(#paint1_radial_36_285)" fill-opacity="0.2"/>
<circle cx="278.5" cy="282.213" r="278.064" stroke="url(#paint2_linear_36_285)" stroke-opacity="0.37" stroke-width="0.871576"/>
</g>
<path fill-rule="evenodd" clip-rule="evenodd" d="M253.01 9.95883L257.482 5.61459L258.479 4.65109L251.988 0.656445L246.519 5.96418L247.695 6.68913L253.01 9.95883Z" fill="#4C4C4C"/>
<g opacity="0.6">
<circle cx="278.5" cy="282.213" r="232.083" fill="url(#paint3_linear_36_285)" fill-opacity="0.4"/>
<circle cx="278.5" cy="282.213" r="232.083" fill="url(#paint4_radial_36_285)" fill-opacity="0.06"/>
<circle cx="278.5" cy="282.213" r="231.72" stroke="url(#paint5_linear_36_285)" stroke-opacity="0.55" stroke-width="0.726313"/>
</g>
<g opacity="0.6">
<circle cx="278.5" cy="282.213" r="185.667" fill="url(#paint6_linear_36_285)" fill-opacity="0.7"/>
<circle cx="278.5" cy="282.213" r="185.667" fill="url(#paint7_radial_36_285)" fill-opacity="0.17"/>
<circle cx="278.5" cy="282.213" r="185.376" stroke="url(#paint8_linear_36_285)" stroke-opacity="0.55" stroke-width="0.581051"/>
</g>
<path fill-rule="evenodd" clip-rule="evenodd" d="M326.744 108.003L332.536 105.694L333.825 105.184L329.35 99.0148L322.269 101.834L323.079 102.952L326.744 108.003Z" fill="#777777"/>
<path fill-rule="evenodd" clip-rule="evenodd" d="M435.181 117.83L441.355 118.705L442.727 118.903L441.91 111.325L434.364 110.252L434.511 111.626L435.181 117.83Z" fill="#515151"/>
<path fill-rule="evenodd" clip-rule="evenodd" d="M179.594 78.0666L182.254 72.4274L182.848 71.175L175.368 69.7168L172.113 76.6085L173.469 76.8739L179.594 78.0666Z" fill="#686868"/>
<path fill-rule="evenodd" clip-rule="evenodd" d="M139.983 166.194L140.194 159.963L140.245 158.577L132.798 160.199L132.536 167.816L133.886 167.523L139.983 166.194Z" fill="#515151"/>
<rect y="138" width="557" height="121" fill="url(#paint9_linear_36_285)"/>
</g>
<defs>
<linearGradient id="paint0_linear_36_285" x1="278.5" y1="3.71338" x2="278.5" y2="560.713" gradientUnits="userSpaceOnUse">
<stop stop-color="white" stop-opacity="0.2"/>
<stop offset="1" stop-color="white" stop-opacity="0"/>
</linearGradient>
<radialGradient id="paint1_radial_36_285" cx="0" cy="0" r="1" gradientUnits="userSpaceOnUse" gradientTransform="translate(278.5 87.6639) rotate(90) scale(241.993 183.266)">
<stop stop-color="white"/>
<stop offset="1" stop-color="white" stop-opacity="0"/>
</radialGradient>
<linearGradient id="paint2_linear_36_285" x1="278.5" y1="3.71338" x2="278.5" y2="577.37" gradientUnits="userSpaceOnUse">
<stop stop-color="white"/>
<stop offset="0.505771" stop-color="white" stop-opacity="0.29"/>
<stop offset="1" stop-color="white" stop-opacity="0.5"/>
</linearGradient>
<linearGradient id="paint3_linear_36_285" x1="278.5" y1="50.1299" x2="278.5" y2="514.297" gradientUnits="userSpaceOnUse">
<stop stop-color="white" stop-opacity="0.2"/>
<stop offset="1" stop-color="white" stop-opacity="0"/>
</linearGradient>
<radialGradient id="paint4_radial_36_285" cx="0" cy="0" r="1" gradientUnits="userSpaceOnUse" gradientTransform="translate(278.5 120.089) rotate(90) scale(201.661 152.722)">
<stop stop-color="white"/>
<stop offset="1" stop-color="white" stop-opacity="0"/>
</radialGradient>
<linearGradient id="paint5_linear_36_285" x1="278.5" y1="50.1299" x2="278.5" y2="528.177" gradientUnits="userSpaceOnUse">
<stop stop-color="white"/>
<stop offset="0.505771" stop-color="white" stop-opacity="0.29"/>
<stop offset="1" stop-color="white" stop-opacity="0.5"/>
</linearGradient>
<linearGradient id="paint6_linear_36_285" x1="278.5" y1="96.5466" x2="278.5" y2="467.88" gradientUnits="userSpaceOnUse">
<stop stop-color="white" stop-opacity="0.2"/>
<stop offset="1" stop-color="white" stop-opacity="0"/>
</linearGradient>
<radialGradient id="paint7_radial_36_285" cx="0" cy="0" r="1" gradientUnits="userSpaceOnUse" gradientTransform="translate(278.5 228.223) rotate(90) scale(179.287 185.667)">
<stop stop-color="white"/>
<stop offset="1" stop-color="white" stop-opacity="0"/>
</radialGradient>
<linearGradient id="paint8_linear_36_285" x1="278.5" y1="96.5466" x2="278.5" y2="478.985" gradientUnits="userSpaceOnUse">
<stop stop-color="white"/>
<stop offset="0.505771" stop-color="white" stop-opacity="0.29"/>
<stop offset="1" stop-color="white" stop-opacity="0.5"/>
</linearGradient>
<linearGradient id="paint9_linear_36_285" x1="278.5" y1="138" x2="278.5" y2="259" gradientUnits="userSpaceOnUse">
<stop stop-opacity="0"/>
<stop offset="0.95"/>
</linearGradient>
<clipPath id="clip0_36_285">
<rect width="557" height="259" fill="white"/>
</clipPath>
</defs>
</svg>
