<svg width="1528" height="358" viewBox="0 0 1528 358" fill="none" xmlns="http://www.w3.org/2000/svg">
<path fill-rule="evenodd" clip-rule="evenodd" d="M93.3932 357.698C90.1989 357.325 86.9937 356.6 83.5974 355.479C77.4239 353.445 72.2713 350.708 68.4732 348.551C60.1066 343.801 51.5994 337.843 42.4687 330.344C38.4818 327.066 34.5982 323.626 30.9187 320.113L27.7573 317.106C25.5553 315.155 23.6739 312.969 22.1305 310.614C19.2435 306.306 16.9362 300.555 16.5871 293.024C16.3763 290.573 16.2556 288.104 16.2292 285.643C16.17 280.281 16.5388 274.747 17.3269 269.194C18.9362 257.852 22.4927 247.656 25.4126 240.042C25.6519 239.416 25.8956 238.79 26.1437 238.162C25.3292 236.079 24.5564 233.983 23.8319 231.883C19.6409 219.737 16.8923 207.088 15.6584 194.285C14.361 180.801 14.7298 167.179 16.7561 153.807C17.1821 150.993 17.687 148.177 18.2622 145.373C13.0218 137.783 6.37628 126.98 2.24892 114.102L2.16989 113.863C1.27636 111.119 -0.818052 104.698 0.34112 96.2904C0.771419 93.1885 1.52225 90.091 2.6419 86.8068C4.71436 80.7239 7.43447 75.6493 9.57059 71.9082C14.3236 63.5933 20.2381 55.162 27.6563 46.1332C30.9165 42.1658 34.3216 38.317 37.7837 34.6901L40.8068 31.5091C42.3809 29.7407 44.1152 28.17 45.9813 26.8145C50.4095 23.5062 56.5478 20.7338 64.8552 20.3494C67.5753 20.1143 70.3613 19.9913 73.1494 19.9847H73.3624C78.9365 19.9847 84.6973 20.4482 90.4865 21.3621C99.1737 22.7351 107.136 25.1911 114.19 27.7921C118.893 25.7755 123.725 23.9653 128.586 22.4056C140.733 18.5019 153.363 16.0305 166.129 15.0595C179.499 14.0402 193.108 14.6707 206.254 16.918C209.313 17.4408 212.377 18.0559 215.422 18.7589C225.761 11.661 235.28 6.78197 245.08 3.5373L245.298 3.46261C247.594 2.66297 252.373 1 258.705 1C260.075 1 261.458 1.07908 262.812 1.23725C266.009 1.61071 269.214 2.33565 272.608 3.45382C278.786 5.49025 283.937 8.22746 287.735 10.3869C296.104 15.1364 304.611 21.0941 313.739 28.5939C317.724 31.8672 321.61 35.3096 325.291 38.8244L328.448 41.8274C330.022 43.2224 331.432 44.736 332.672 46.3463C336.653 51.4033 339.759 58.589 339.821 68.7162C340.027 72.3234 340.036 76.0052 339.849 79.6914C339.443 87.7536 338.227 95.4358 336.235 102.523C334.771 107.729 333.024 113.012 331.028 118.272C334.912 128.096 337.838 138.278 339.753 148.636C343.761 170.329 343.313 192.767 338.514 214.276C341.458 218.551 343.957 222.507 346.128 226.336C349.902 232.99 352.896 239.847 355.026 246.712C355.816 249.26 357.904 255.995 356.528 264.62C356.049 267.616 355.263 270.641 354.128 273.851C350.161 285.068 343.985 294.206 338.508 301.891C332.479 310.346 325.838 318.378 318.76 325.765L316.2 328.459C314.606 330.258 312.843 331.844 310.949 333.213C306.53 336.49 300.413 339.234 292.158 339.621C289.436 339.858 286.648 339.977 283.86 339.985H283.64C277.779 339.985 271.71 339.471 265.609 338.459C255.835 336.837 246.911 333.832 239.15 330.792C234.931 332.47 230.632 333.979 226.316 335.295C213.96 339.056 201.144 341.343 188.219 342.09C174.79 342.872 161.161 341.978 147.999 339.465C146.403 339.159 144.807 338.83 143.216 338.476C131.824 346.538 121.595 351.929 111.123 355.398L110.908 355.471C108.612 356.272 103.832 357.933 97.5008 357.933C96.1309 357.933 94.7478 357.854 93.3932 357.698Z" fill="#231F20"/>
<path fill-rule="evenodd" clip-rule="evenodd" d="M123.702 195.086L125.3 257.203L109.86 244.584C92.6301 272.448 87.3435 299.583 95.3787 319.447L98.2635 326.58L91.2272 323.482C75.1327 316.408 60.7814 306.463 48.5749 293.933L47.8329 293.166L47.7099 292.107C46.8274 284.434 47.317 276.139 49.1633 267.462L49.194 267.323C51.9888 256.642 56.1579 245.748 61.5871 234.949C64.9834 228.196 68.9153 221.399 73.2996 214.703L59.8615 203.722L123.702 195.086Z" fill="#F97316"/>
<path fill-rule="evenodd" clip-rule="evenodd" d="M232.508 163.849L230.91 101.732L246.348 114.349C263.58 86.4867 268.866 59.3497 260.831 39.4863L257.947 32.3555L264.983 35.453C281.077 42.5266 295.429 52.4693 307.635 64.9998L308.379 65.7665L308.502 66.8254C309.385 74.501 308.895 82.7939 307.047 91.4712L307.018 91.6118C304.221 102.293 300.052 113.187 294.623 123.986C291.227 130.739 287.295 137.536 282.91 144.229L296.348 155.213L232.508 163.849Z" fill="#F97316"/>
<path fill-rule="evenodd" clip-rule="evenodd" d="M194.275 232.443L256.353 230.844L243.742 246.289C271.589 263.532 298.706 268.822 318.559 260.782L325.686 257.897L322.59 264.938C315.519 281.038 305.582 295.399 293.062 307.615L292.294 308.358L291.235 308.481C283.567 309.364 275.279 308.874 266.605 307.029L266.465 306.998C255.793 304.199 244.904 300.03 234.113 294.597C227.364 291.199 220.572 287.262 213.88 282.875L202.903 296.321L194.275 232.443Z" fill="#F97316"/>
<path fill-rule="evenodd" clip-rule="evenodd" d="M162.733 127.53L100.656 129.129L113.264 113.681C85.4194 96.4387 58.3018 91.1488 38.4488 99.1891L31.3247 102.076L34.418 95.035C41.4872 78.9324 51.4258 64.572 63.9462 52.3556L64.7124 51.6131L65.7706 51.4901C73.4413 50.607 81.729 51.0968 90.403 52.9422L90.5435 52.9751C101.218 55.7716 112.105 59.9433 122.895 65.376C129.644 68.7723 136.436 72.7089 143.128 77.0959L154.105 63.6493L162.733 127.53Z" fill="#F97316"/>
<path fill-rule="evenodd" clip-rule="evenodd" d="M311.418 178.476C311.418 251.829 251.993 311.29 178.688 311.29C105.382 311.29 45.9565 251.829 45.9565 178.476C45.9565 105.125 105.382 45.6621 178.688 45.6621C251.993 45.6621 311.418 105.125 311.418 178.476Z" fill="#FB923C"/>
<path fill-rule="evenodd" clip-rule="evenodd" d="M130.137 131.716C122.407 128.221 116.824 124.699 111.019 120.552C102.154 114.489 94.0798 107.591 87.2367 100.44C70.5868 83.45 61.871 66.08 64.2925 51.8975L59.3178 57.1368C47.2101 69.8848 31.142 92.1779 31.0015 101.877L31.2978 102.9C33.4471 110.319 37.1025 117.777 42.1541 125.068L42.2375 125.187C48.7535 135.769 61.7678 153.036 107.865 173.277L99.7132 188.604L161.924 171.882L139.514 114.229L130.137 131.716Z" fill="#FEFEFE"/>
<path fill-rule="evenodd" clip-rule="evenodd" d="M226.869 228.259C234.601 231.754 240.182 235.276 245.986 239.423C254.854 245.487 262.926 252.382 269.769 259.535C286.421 276.523 295.135 293.897 292.713 308.076L297.69 302.838C309.798 290.09 325.864 267.797 326.007 258.098L325.708 257.075C323.559 249.656 319.906 242.196 314.852 234.905L314.768 234.788C308.255 224.206 295.238 206.939 249.141 186.698L257.293 171.371L195.082 188.093L217.494 245.746L226.869 228.259Z" fill="#FEFEFE"/>
<path fill-rule="evenodd" clip-rule="evenodd" d="M228.328 131.228C231.818 123.491 235.34 117.907 239.485 112.098C245.542 103.228 252.438 95.1479 259.581 88.3005C276.563 71.6378 293.922 62.9187 308.095 65.3418L302.857 60.3616C290.12 48.2463 267.841 32.1701 258.15 32.0273L257.125 32.3261C249.709 34.4768 242.258 38.1322 234.971 43.1893L234.852 43.2727C224.277 49.7928 207.021 62.8154 186.793 108.942L171.476 100.785L188.187 163.035L245.803 140.608L228.328 131.228Z" fill="#FEFEFE"/>
<path fill-rule="evenodd" clip-rule="evenodd" d="M127.878 227.705C124.385 235.442 120.866 241.026 116.721 246.832C110.662 255.705 103.768 263.785 96.6241 270.632C79.6427 287.295 62.2858 296.014 48.1123 293.591L53.3483 298.571C66.0861 310.684 88.365 326.763 98.0555 326.903L99.0808 326.607C106.497 324.456 113.948 320.801 121.235 315.741L121.353 315.66C131.928 309.14 149.184 296.117 169.415 249.991L184.73 258.148L168.019 195.897L110.402 218.322L127.878 227.705Z" fill="#FEFEFE"/>
<path fill-rule="evenodd" clip-rule="evenodd" d="M435.949 288.489H422.86V70.1777H441.56L507.012 254.493V70.1777H520.103V288.489H504.206L435.949 93.879V288.489Z" fill="white" fill-opacity="0.95"/>
<path fill-rule="evenodd" clip-rule="evenodd" d="M617.034 171.226V184.325H557.503V275.391H629.189V288.491H543.167V70.1777H629.189V83.2772H557.503V171.226H617.034Z" fill="white" fill-opacity="0.95"/>
<path fill-rule="evenodd" clip-rule="evenodd" d="M706.48 186.819L662.221 288.489H648.196L697.441 175.279L651.626 70.1777H666.585L707.725 164.051L749.178 70.1777H762.893L717.077 175.279L766.01 288.489H750.737L706.48 186.819Z" fill="white" fill-opacity="0.95"/>
<path fill-rule="evenodd" clip-rule="evenodd" d="M800.291 235.783C800.291 259.172 809.02 277.261 833.016 277.261C857.016 277.261 865.743 259.172 865.743 235.783V70.1777H879.145V235.159C879.145 266.345 866.054 290.36 832.706 290.36C799.356 290.36 785.955 266.345 785.955 235.159V70.1777H800.291V235.783Z" fill="white" fill-opacity="0.95"/>
<path fill-rule="evenodd" clip-rule="evenodd" d="M994.151 122.89V127.567H980.437V121.954C980.437 98.8746 971.71 81.41 948.022 81.41C924.335 81.41 915.609 98.5626 915.609 121.642C915.609 174.66 994.463 175.595 994.463 235.79C994.463 267.285 980.751 290.365 947.398 290.365C914.05 290.365 900.337 267.285 900.337 235.79V224.56H914.05V236.723C914.05 260.115 923.088 276.956 947.088 276.956C971.086 276.956 980.125 260.115 980.125 236.723C980.125 184.33 901.27 183.394 901.27 122.578C901.27 89.8304 915.609 68.6225 947.712 68.3105C980.751 68.3105 994.151 91.3901 994.151 122.89Z" fill="white" fill-opacity="0.95"/>
<path fill-rule="evenodd" clip-rule="evenodd" d="M1088.58 225.179L1111.96 70.1777H1159.65V288.489H1127.23V131.93L1103.54 288.489H1071.13L1045.57 134.111V288.489H1015.65V70.1777H1063.34L1088.58 225.179Z" fill="#FB923C"/>
<path fill-rule="evenodd" clip-rule="evenodd" d="M1214.49 238.285C1214.49 253.877 1221.35 259.804 1232.26 259.804C1243.17 259.804 1250.03 253.877 1250.03 238.285V120.396C1250.03 104.801 1243.17 98.876 1232.26 98.876C1221.35 98.876 1214.49 104.801 1214.49 120.396V238.285ZM1180.21 122.577C1180.21 87.6456 1198.6 67.6855 1232.26 67.6855C1265.92 67.6855 1284.31 87.6456 1284.31 122.577V236.098C1284.31 271.028 1265.92 290.988 1232.26 290.988C1198.6 290.988 1180.21 271.028 1180.21 236.098V122.577Z" fill="#FB923C"/>
<path fill-rule="evenodd" clip-rule="evenodd" d="M1339.16 101.368V257.303H1358.49C1369.39 257.303 1375.94 251.693 1375.94 236.098V122.576C1375.94 106.983 1369.39 101.368 1358.49 101.368H1339.16ZM1304.88 70.1777H1359.11C1393.4 70.1777 1410.23 89.202 1410.23 124.133V234.535C1410.23 269.467 1393.4 288.491 1359.11 288.491H1304.88V70.1777Z" fill="#FB923C"/>
<path fill-rule="evenodd" clip-rule="evenodd" d="M1476.61 67.6855C1509.96 67.6855 1527.1 87.6456 1527.1 122.575V129.437H1494.68V120.393C1494.68 104.798 1488.45 98.8735 1477.54 98.8735C1466.63 98.8735 1460.4 104.798 1460.4 120.393C1460.4 165.302 1527.41 173.723 1527.41 236.098C1527.41 271.028 1509.96 290.988 1476.3 290.988C1442.64 290.988 1425.18 271.028 1425.18 236.098V222.687H1457.6V238.282C1457.6 253.873 1464.45 259.488 1475.36 259.488C1486.27 259.488 1493.13 253.873 1493.13 238.282C1493.13 193.371 1426.12 184.95 1426.12 122.575C1426.12 87.6456 1443.26 67.6855 1476.61 67.6855Z" fill="#FB923C"/>
</svg>
