<svg width="360" height="360" viewBox="0 0 360 360" fill="none" xmlns="http://www.w3.org/2000/svg">
<path fill-rule="evenodd" clip-rule="evenodd" d="M273.354 0.142631C278.749 0.697945 284.649 3.10086 290.25 6.05369C295.976 9.07289 301.962 12.9789 307.65 17.0742C319.028 25.2657 329.668 34.5422 335.399 39.921L336.766 41.2035L337.25 43.0162C343.022 64.6379 336.436 87.24 326.292 109.317C336.783 130.817 342.672 154.983 342.672 180.527C342.672 196.616 340.335 212.158 335.984 226.832C346.384 238.44 354.43 251.884 359.57 267.721L360 269.044L359.857 270.428C359.299 275.832 356.895 281.742 353.944 287.35C350.926 293.085 347.022 299.078 342.93 304.774C334.745 316.167 325.477 326.819 320.104 332.557L318.823 333.926L317.013 334.409C296.622 339.855 275.372 334.253 254.529 325.045C232.37 336.442 207.249 342.874 180.627 342.874C163.173 342.874 146.364 340.109 130.612 334.993C118.629 345.941 104.705 354.345 88.2203 359.579L86.8963 360L85.5165 359.847C80.1269 359.247 74.246 356.794 68.67 353.795C62.9687 350.729 57.0158 346.774 51.3615 342.632C40.0517 334.346 29.4882 324.982 23.8015 319.556L22.4451 318.261L21.9765 316.445C16.3251 294.552 23.2923 271.73 33.8577 249.433C24.0573 228.517 18.5802 205.163 18.5802 180.527C18.5802 164.473 20.9062 148.963 25.2389 134.317C14.2266 122.362 5.74827 108.444 0.427096 91.9356L0 90.6116L0.14597 89.228C0.715553 83.8252 3.13086 77.9201 6.09408 72.3175C9.12389 66.589 13.0395 60.6038 17.1433 54.9165C25.3518 43.5408 34.6412 32.9073 40.0263 27.1805L41.3106 25.8144L43.1211 25.3348C64.1255 19.7706 86.0145 25.9197 107.421 35.6523C129.41 24.478 154.284 18.1798 180.627 18.1797C197.278 18.1797 213.342 20.6975 228.462 25.3709C240.355 14.323 254.21 5.80314 270.653 0.431504L271.973 0L273.354 0.142631ZM116.281 226.816L129.69 234.02L127.069 239.648C121.213 252.219 108.025 272.701 90.897 289.938C77.7291 303.189 61.3945 315.362 43.6023 319.709C48.2329 323.661 53.584 327.991 59.0985 332.031C64.4727 335.968 69.8906 339.547 74.8698 342.225C79.2674 344.591 82.9269 346.034 85.6974 346.593C122.358 334.362 145.455 303.794 163.816 260.07L166.788 252.991L173.306 257.034C174.805 257.963 176.2 258.816 177.494 259.596L163.743 208.227L116.281 226.816ZM274.08 268.63C250.677 293.536 217.468 309.088 180.632 309.088C171.678 309.088 162.939 308.169 154.502 306.42C150.3 312.841 145.804 318.849 140.959 324.39C153.589 327.877 166.891 329.742 180.627 329.742C223.168 329.742 261.542 311.873 288.682 283.219C286.225 280.398 283.606 277.632 280.862 274.935C278.649 272.76 276.378 270.656 274.08 268.63ZM296.826 293.68C288.4 302.364 279.012 310.106 268.835 316.735C283.19 322.162 296.392 324.699 308.594 322.784C307.648 313.006 303.313 303.145 296.826 293.68ZM207.939 193.192L226.848 240.602L233.938 227.114L239.575 229.698C252.167 235.47 272.708 248.53 290.04 265.56C303.365 278.653 315.637 294.926 320.109 312.719C324.019 308.05 328.301 302.657 332.292 297.102C336.181 291.689 339.713 286.234 342.349 281.226C344.677 276.802 346.09 273.125 346.628 270.345C334.145 233.709 303.462 210.798 259.684 192.731L252.596 189.806L256.582 183.245C257.499 181.737 258.339 180.333 259.109 179.031L207.939 193.192ZM41.6692 264.096C35.0208 280.042 31.6408 294.643 33.6421 308.097C44.3134 307.142 55.1126 302.133 65.407 294.684C56.3379 285.497 48.3556 275.232 41.6692 264.096ZM180.632 65.0987C147.943 65.0987 118.435 78.7382 97.4662 100.645C105.737 106.902 113.773 111.979 120.29 115.493L134.793 88.0382L169.493 175.564L75.6717 201.321L81.5105 188.541L81.5141 188.534L81.5183 188.524L81.5303 188.499L81.5652 188.423C81.5937 188.362 81.6327 188.279 81.6829 188.174C81.7834 187.964 81.9286 187.665 82.1232 187.275C82.5125 186.495 83.1001 185.348 83.9259 183.813C84.9489 181.913 86.3384 179.415 88.1692 176.28C80.5686 172.928 73.2875 169.37 66.3807 165.552C65.7463 170.454 65.4172 175.453 65.4172 180.527C65.4172 211.96 77.9581 240.457 98.2994 261.272C104.196 253.422 109.005 245.834 112.384 239.623L85.06 224.943L172.61 190.655L197.809 284.789L185.085 278.871L185.077 278.867L185.043 278.85L184.967 278.815C184.907 278.786 184.824 278.746 184.719 278.696C184.51 278.594 184.213 278.447 183.824 278.25C183.047 277.855 181.906 277.261 180.379 276.425C178.487 275.39 176.002 273.984 172.883 272.133C169.412 279.917 165.727 287.364 161.77 294.414C167.908 295.428 174.208 295.956 180.632 295.956C213.384 295.956 242.942 282.262 263.919 260.279C255.144 253.547 246.552 248.107 239.66 244.41L225.213 271.894L190.334 184.44L284.102 158.49L278.289 171.282L278.286 171.29L278.27 171.324L278.235 171.4C278.206 171.461 278.168 171.544 278.118 171.649C278.018 171.86 277.873 172.159 277.679 172.55C277.292 173.331 276.706 174.479 275.884 176.014C274.865 177.917 273.48 180.418 271.656 183.557C279.805 187.131 287.588 190.942 294.937 195.056C295.534 190.297 295.844 185.449 295.844 180.527C295.844 148.424 282.762 119.383 261.648 98.4605C255.695 106.487 250.858 114.252 247.48 120.584L274.924 135.037L187.659 170.049L161.684 76.127L174.457 81.94L174.465 81.9436L174.5 81.9599L174.575 81.9948C174.636 82.0232 174.719 82.0622 174.824 82.1121C175.034 82.2122 175.333 82.3564 175.723 82.5502C176.503 82.938 177.649 83.5237 179.183 84.3467C181.083 85.3662 183.58 86.7509 186.715 88.5762C190.1 80.8129 193.698 73.3809 197.568 66.3379C192.04 65.522 186.385 65.0987 180.632 65.0987ZM36.0034 144.727C33.1843 156.196 31.688 168.186 31.688 180.527C31.688 221.899 48.4936 259.338 75.6387 286.366C77.66 284.542 79.6521 282.641 81.6078 280.672C84.546 277.716 87.3579 274.655 90.0248 271.561C66.7272 248.286 52.3094 216.095 52.3094 180.527C52.3094 172.946 52.9643 165.517 54.2208 158.296C47.7124 154.092 41.6213 149.588 36.0034 144.727ZM284.15 73.2509C282.036 75.178 279.956 77.1936 277.916 79.2812C275.105 82.1569 272.413 85.1284 269.855 88.1321C293.964 111.505 308.952 144.262 308.952 180.527C308.952 187.99 308.317 195.304 307.098 202.419C313.604 206.688 319.682 211.268 325.275 216.217C328.077 204.781 329.565 192.828 329.565 180.527C329.565 138.417 312.154 100.381 284.15 73.2509ZM39.9806 47.0189C36.0608 51.6795 31.7683 57.0638 27.7661 62.6102C23.8654 68.0158 20.3222 73.4633 17.6761 78.4663C15.3391 82.8849 13.9184 86.559 13.3751 89.3375C25.7829 125.999 56.4185 148.973 100.16 167.13L107.241 170.07L103.242 176.622C102.322 178.129 101.479 179.532 100.707 180.832L151.905 166.777L133.094 119.327L125.977 132.801L120.344 130.205C107.765 124.406 87.25 111.305 69.9531 94.2394C56.6551 81.119 44.4161 64.8204 39.9806 47.0189ZM273.283 13.3965C236.724 25.9313 213.88 56.6891 195.881 100.563L192.966 107.667L186.416 103.678C184.909 102.761 183.507 101.92 182.207 101.15L196.381 152.404L243.688 133.423L230.22 126.331L232.795 120.681C238.547 108.061 251.565 87.4708 268.55 70.0932C281.608 56.7333 297.842 44.4254 315.598 39.9313C310.935 36.0173 305.548 31.7323 300.001 27.7384C294.594 23.8459 289.147 20.3116 284.146 17.6748C279.729 15.346 276.058 13.9329 273.283 13.3965ZM325.653 51.4597C315.112 52.4915 304.478 57.4852 294.351 64.8772C303.448 73.8569 311.491 83.9054 318.276 94.8201C324.612 79.0696 327.731 64.6784 325.653 51.4597ZM180.627 31.312C138.052 31.3121 99.6502 49.2088 72.5066 77.9024C74.6171 80.2726 76.8391 82.6025 79.1503 84.8829C81.7825 87.4799 84.4956 89.9768 87.2405 92.3611C110.64 67.4919 143.826 51.967 180.632 51.967C188.875 51.967 196.937 52.7465 204.748 54.2347C208.906 47.7573 213.362 41.6922 218.172 36.0947C206.177 32.974 193.596 31.312 180.627 31.312ZM93.1544 43.8407C78.0757 37.8836 64.2554 35.0053 51.5164 36.9775C52.49 47.2607 57.2103 57.6423 64.2398 67.565C72.9167 58.5936 82.618 50.6225 93.1544 43.8407Z" fill="#F97316"/>
</svg>
