<svg width="56" height="56" viewBox="0 0 56 56" fill="none" xmlns="http://www.w3.org/2000/svg">
<g clip-path="url(#clip0_1166_1607)">
<path d="M28.6699 46.7156C28.2893 47.0592 27.7104 47.0592 27.3298 46.7156L25.0766 44.6818C14.6942 35.3469 7.83984 29.1703 7.83984 21.6344C7.83984 15.4578 12.7186 10.6404 18.9278 10.6404C22.0344 10.6404 25.0302 11.9102 27.2013 13.964C27.6439 14.3827 28.3558 14.3827 28.7984 13.964C30.9695 11.9102 33.9653 10.6404 37.0718 10.6404C43.2811 10.6404 48.1598 15.4578 48.1598 21.6344C48.1598 29.1703 41.3054 35.3469 30.923 44.6818L28.6699 46.7156Z" fill="#FB923C"/>
<g filter="url(#filter0_f_1166_1607)">
<path d="M27.7594 41.3941C28.325 41.3941 28.8145 41.2322 29.2279 40.9084C29.6412 40.5847 29.9349 40.1638 30.109 39.6458L32.9928 31.0099C33.2551 30.2244 34.3039 30.0799 34.7688 30.7652L35.9177 32.4586C36.1352 32.8039 36.4398 33.0845 36.8314 33.3003C37.223 33.5162 37.6364 33.5541 38.0715 33.5541H49.2211C49.5999 33.5541 49.9461 33.3401 50.1155 33.0013L51.6355 29.9613C51.968 29.2964 51.4845 28.5141 50.7411 28.5141H40.1042C39.7718 28.5141 39.4612 28.3489 39.2753 28.0734L35.0692 21.8396C34.8082 21.4511 34.4709 21.1597 34.0576 20.9654C33.6442 20.7712 33.1982 20.6741 32.7196 20.6741C32.154 20.6741 31.6645 20.8359 31.2511 21.1597C30.8378 21.4834 30.5441 21.9043 30.37 22.4223L27.4919 30.9885C27.2278 31.7746 26.1765 31.9161 25.714 31.2277L24.6266 29.6096C24.4091 29.2642 24.1045 28.9837 23.7129 28.7678C23.3213 28.552 22.9079 28.5141 22.4728 28.5141H11.2572C10.8784 28.5141 10.5321 28.7281 10.3627 29.0669L8.84275 32.1069C8.5103 32.7718 8.99379 33.5541 9.73717 33.5541H20.3748C20.7072 33.5541 21.0179 33.7192 21.2038 33.9948L25.4098 40.2286C25.6709 40.6171 26.0081 40.9084 26.4214 41.1027C26.8348 41.2969 27.2808 41.3941 27.7594 41.3941Z" fill="url(#paint0_linear_1166_1607)"/>
<path d="M27.7594 41.3941C28.325 41.3941 28.8145 41.2322 29.2279 40.9084C29.6412 40.5847 29.9349 40.1638 30.109 39.6458L32.9928 31.0099C33.2551 30.2244 34.3039 30.0799 34.7688 30.7652L35.9177 32.4586C36.1352 32.8039 36.4398 33.0845 36.8314 33.3003C37.223 33.5162 37.6364 33.5541 38.0715 33.5541H49.2211C49.5999 33.5541 49.9461 33.3401 50.1155 33.0013L51.6355 29.9613C51.968 29.2964 51.4845 28.5141 50.7411 28.5141H40.1042C39.7718 28.5141 39.4612 28.3489 39.2753 28.0734L35.0692 21.8396C34.8082 21.4511 34.4709 21.1597 34.0576 20.9654C33.6442 20.7712 33.1982 20.6741 32.7196 20.6741C32.154 20.6741 31.6645 20.8359 31.2511 21.1597C30.8378 21.4834 30.5441 21.9043 30.37 22.4223L27.4919 30.9885C27.2278 31.7746 26.1765 31.9161 25.714 31.2277L24.6266 29.6096C24.4091 29.2642 24.1045 28.9837 23.7129 28.7678C23.3213 28.552 22.9079 28.5141 22.4728 28.5141H11.2572C10.8784 28.5141 10.5321 28.7281 10.3627 29.0669L8.84275 32.1069C8.5103 32.7718 8.99379 33.5541 9.73717 33.5541H20.3748C20.7072 33.5541 21.0179 33.7192 21.2038 33.9948L25.4098 40.2286C25.6709 40.6171 26.0081 40.9084 26.4214 41.1027C26.8348 41.2969 27.2808 41.3941 27.7594 41.3941Z" fill="url(#paint1_linear_1166_1607)"/>
</g>
<g filter="url(#filter1_f_1166_1607)">
<path d="M25.2399 37.1941C25.8055 37.1941 26.295 37.0322 26.7083 36.7085C27.1217 36.3847 27.4154 35.9639 27.5894 35.4459L30.4732 26.8099C30.7356 26.0244 31.7843 25.8799 32.2493 26.5652L33.3982 28.2586C33.6157 28.604 33.9203 28.8845 34.3119 29.1004C34.7035 29.3162 35.1168 29.3541 35.552 29.3541H46.7016C47.0803 29.3541 47.4266 29.1401 47.596 28.8013L49.116 25.7613C49.4484 25.0964 48.9649 24.3141 48.2216 24.3141H37.5847C37.2523 24.3141 36.9417 24.149 36.7557 23.8734L32.5497 17.6396C32.2886 17.2511 31.9514 16.9597 31.5381 16.7655C31.1247 16.5712 30.6787 16.4741 30.2001 16.4741C29.6345 16.4741 29.145 16.636 28.7316 16.9597C28.3183 17.2835 28.0246 17.7044 27.8505 18.2224L24.9724 26.7885C24.7082 27.5747 23.657 27.7161 23.1944 27.0278L22.1071 25.4096C21.8895 25.0643 21.585 24.7837 21.1934 24.5679C20.8018 24.352 20.3884 24.3141 19.9533 24.3141H8.73764C8.35887 24.3141 8.01261 24.5281 7.84322 24.8669L6.32322 27.9069C5.99077 28.5718 6.47426 29.3541 7.21764 29.3541H17.8553C18.1877 29.3541 18.4983 29.5193 18.6842 29.7948L22.8903 36.0286C23.1513 36.4171 23.4885 36.7085 23.9019 36.9027C24.3153 37.097 24.7612 37.1941 25.2399 37.1941Z" fill="black" fill-opacity="0.25"/>
</g>
<path d="M25.5192 37.1941C26.0848 37.1941 26.5743 37.0322 26.9876 36.7085C27.401 36.3847 27.6947 35.9639 27.8687 35.4459L30.7525 26.8099C31.0148 26.0244 32.0636 25.8799 32.5286 26.5652L33.6775 28.2586C33.895 28.604 34.1996 28.8845 34.5912 29.1004C34.9828 29.3162 35.3961 29.3541 35.8312 29.3541H46.9809C47.3596 29.3541 47.7059 29.1401 47.8753 28.8013L49.3953 25.7613C49.7277 25.0964 49.2442 24.3141 48.5009 24.3141H37.864C37.5316 24.3141 37.2209 24.149 37.035 23.8734L32.829 17.6396C32.5679 17.2511 32.2307 16.9597 31.8174 16.7655C31.404 16.5712 30.958 16.4741 30.4794 16.4741C29.9138 16.4741 29.4243 16.636 29.0109 16.9597C28.5975 17.2835 28.3039 17.7044 28.1298 18.2224L25.2517 26.7885C24.9875 27.5747 23.9363 27.7161 23.4737 27.0278L22.3864 25.4096C22.1688 25.0643 21.8642 24.7837 21.4727 24.5679C21.0811 24.352 20.6677 24.3141 20.2326 24.3141H9.01694C8.63817 24.3141 8.2919 24.5281 8.12251 24.8669L6.60251 27.9069C6.27006 28.5718 6.75356 29.3541 7.49694 29.3541H18.1346C18.467 29.3541 18.7776 29.5193 18.9635 29.7948L23.1696 36.0286C23.4306 36.4171 23.7678 36.7085 24.1812 36.9027C24.5945 37.097 25.0405 37.1941 25.5192 37.1941Z" fill="white"/>
<path d="M25.5192 37.1941C26.0848 37.1941 26.5743 37.0322 26.9876 36.7085C27.401 36.3847 27.6947 35.9639 27.8687 35.4459L30.7525 26.8099C31.0148 26.0244 32.0636 25.8799 32.5286 26.5652L33.6775 28.2586C33.895 28.604 34.1996 28.8845 34.5912 29.1004C34.9828 29.3162 35.3961 29.3541 35.8312 29.3541H46.9809C47.3596 29.3541 47.7059 29.1401 47.8753 28.8013L49.3953 25.7613C49.7277 25.0964 49.2442 24.3141 48.5009 24.3141H37.864C37.5316 24.3141 37.2209 24.149 37.035 23.8734L32.829 17.6396C32.5679 17.2511 32.2307 16.9597 31.8174 16.7655C31.404 16.5712 30.958 16.4741 30.4794 16.4741C29.9138 16.4741 29.4243 16.636 29.0109 16.9597C28.5975 17.2835 28.3039 17.7044 28.1298 18.2224L25.2517 26.7885C24.9875 27.5747 23.9363 27.7161 23.4737 27.0278L22.3864 25.4096C22.1688 25.0643 21.8642 24.7837 21.4727 24.5679C21.0811 24.352 20.6677 24.3141 20.2326 24.3141H9.01694C8.63817 24.3141 8.2919 24.5281 8.12251 24.8669L6.60251 27.9069C6.27006 28.5718 6.75356 29.3541 7.49694 29.3541H18.1346C18.467 29.3541 18.7776 29.5193 18.9635 29.7948L23.1696 36.0286C23.4306 36.4171 23.7678 36.7085 24.1812 36.9027C24.5945 37.097 25.0405 37.1941 25.5192 37.1941Z" fill="url(#paint2_linear_1166_1607)"/>
<path d="M25.5192 37.1941C26.0848 37.1941 26.5743 37.0322 26.9876 36.7085C27.401 36.3847 27.6947 35.9639 27.8687 35.4459L30.7525 26.8099C31.0148 26.0244 32.0636 25.8799 32.5286 26.5652L33.6775 28.2586C33.895 28.604 34.1996 28.8845 34.5912 29.1004C34.9828 29.3162 35.3961 29.3541 35.8312 29.3541H46.9809C47.3596 29.3541 47.7059 29.1401 47.8753 28.8013L49.3953 25.7613C49.7277 25.0964 49.2442 24.3141 48.5009 24.3141H37.864C37.5316 24.3141 37.2209 24.149 37.035 23.8734L32.829 17.6396C32.5679 17.2511 32.2307 16.9597 31.8174 16.7655C31.404 16.5712 30.958 16.4741 30.4794 16.4741C29.9138 16.4741 29.4243 16.636 29.0109 16.9597C28.5975 17.2835 28.3039 17.7044 28.1298 18.2224L25.2517 26.7885C24.9875 27.5747 23.9363 27.7161 23.4737 27.0278L22.3864 25.4096C22.1688 25.0643 21.8642 24.7837 21.4727 24.5679C21.0811 24.352 20.6677 24.3141 20.2326 24.3141H9.01694C8.63817 24.3141 8.2919 24.5281 8.12251 24.8669L6.60251 27.9069C6.27006 28.5718 6.75356 29.3541 7.49694 29.3541H18.1346C18.467 29.3541 18.7776 29.5193 18.9635 29.7948L23.1696 36.0286C23.4306 36.4171 23.7678 36.7085 24.1812 36.9027C24.5945 37.097 25.0405 37.1941 25.5192 37.1941Z" fill="url(#paint3_linear_1166_1607)"/>
<path d="M25.5192 37.1941C26.0848 37.1941 26.5743 37.0322 26.9876 36.7085C27.401 36.3847 27.6947 35.9639 27.8687 35.4459L30.7525 26.8099C31.0148 26.0244 32.0636 25.8799 32.5286 26.5652L33.6775 28.2586C33.895 28.604 34.1996 28.8845 34.5912 29.1004C34.9828 29.3162 35.3961 29.3541 35.8312 29.3541H46.9809C47.3596 29.3541 47.7059 29.1401 47.8753 28.8013L49.3953 25.7613C49.7277 25.0964 49.2442 24.3141 48.5009 24.3141H37.864C37.5316 24.3141 37.2209 24.149 37.035 23.8734L32.829 17.6396C32.5679 17.2511 32.2307 16.9597 31.8174 16.7655C31.404 16.5712 30.958 16.4741 30.4794 16.4741C29.9138 16.4741 29.4243 16.636 29.0109 16.9597C28.5975 17.2835 28.3039 17.7044 28.1298 18.2224L25.2517 26.7885C24.9875 27.5747 23.9363 27.7161 23.4737 27.0278L22.3864 25.4096C22.1688 25.0643 21.8642 24.7837 21.4727 24.5679C21.0811 24.352 20.6677 24.3141 20.2326 24.3141H9.01694C8.63817 24.3141 8.2919 24.5281 8.12251 24.8669L6.60251 27.9069C6.27006 28.5718 6.75356 29.3541 7.49694 29.3541H18.1346C18.467 29.3541 18.7776 29.5193 18.9635 29.7948L23.1696 36.0286C23.4306 36.4171 23.7678 36.7085 24.1812 36.9027C24.5945 37.097 25.0405 37.1941 25.5192 37.1941Z" fill="url(#paint4_linear_1166_1607)"/>
</g>
<defs>
<filter id="filter0_f_1166_1607" x="2.73633" y="14.6741" width="55.0059" height="32.72" filterUnits="userSpaceOnUse" color-interpolation-filters="sRGB">
<feFlood flood-opacity="0" result="BackgroundImageFix"/>
<feBlend mode="normal" in="SourceGraphic" in2="BackgroundImageFix" result="shape"/>
<feGaussianBlur stdDeviation="3" result="effect1_foregroundBlur_1166_1607"/>
</filter>
<filter id="filter1_f_1166_1607" x="-6.7832" y="3.47412" width="69.0059" height="46.72" filterUnits="userSpaceOnUse" color-interpolation-filters="sRGB">
<feFlood flood-opacity="0" result="BackgroundImageFix"/>
<feBlend mode="normal" in="SourceGraphic" in2="BackgroundImageFix" result="shape"/>
<feGaussianBlur stdDeviation="6.5" result="effect1_foregroundBlur_1166_1607"/>
</filter>
<linearGradient id="paint0_linear_1166_1607" x1="27.9991" y1="17.4999" x2="28.1391" y2="42.5599" gradientUnits="userSpaceOnUse">
<stop/>
<stop offset="1" stop-opacity="0"/>
</linearGradient>
<linearGradient id="paint1_linear_1166_1607" x1="33.1791" y1="33.8799" x2="23.5191" y2="31.0799" gradientUnits="userSpaceOnUse">
<stop stop-opacity="0"/>
<stop offset="0.390978" stop-opacity="0.5"/>
<stop offset="1" stop-opacity="0"/>
</linearGradient>
<linearGradient id="paint2_linear_1166_1607" x1="24.9094" y1="28.1064" x2="25.6365" y2="35.5583" gradientUnits="userSpaceOnUse">
<stop stop-color="white" stop-opacity="0"/>
<stop offset="1" stop-color="#9099F0"/>
</linearGradient>
<linearGradient id="paint3_linear_1166_1607" x1="49.0828" y1="22.472" x2="51.8091" y2="29.5604" gradientUnits="userSpaceOnUse">
<stop stop-color="white" stop-opacity="0"/>
<stop offset="1" stop-color="#9099F0"/>
</linearGradient>
<linearGradient id="paint4_linear_1166_1607" x1="-0.7179" y1="18.2917" x2="-0.7179" y2="36.1036" gradientUnits="userSpaceOnUse">
<stop stop-color="white" stop-opacity="0"/>
<stop offset="1" stop-color="#9099F0"/>
</linearGradient>
<clipPath id="clip0_1166_1607">
<rect width="56" height="56" fill="white"/>
</clipPath>
</defs>
</svg>
