<svg width="56" height="56" viewBox="0 0 56 56" fill="none" xmlns="http://www.w3.org/2000/svg">
<g clip-path="url(#clip0_1166_1607)">
<path d="M17.1137 20.9751V20.9754C10.9023 21.0209 5.88086 26.1173 5.88086 32.3975C5.88086 38.706 10.9475 43.82 17.1975 43.82C21.0331 43.82 24.4231 41.8939 26.4698 38.9477H29.532C31.5787 41.8939 34.9686 43.82 38.8042 43.82C45.0542 43.82 50.1209 38.706 50.1209 32.3975C50.1209 26.1991 45.2294 21.1539 39.1302 20.9797V20.9751H17.1137Z" fill="#FB923C"/>
<g filter="url(#filter0_f_1166_1607)" style="mix-blend-mode:multiply">
<path d="M35.8528 37.2496C41.7407 42.1009 49.7918 42.055 53.8354 37.1473C57.879 32.2395 56.3839 24.3282 50.496 19.4769C44.6081 14.6256 36.5571 14.6714 32.5135 19.5792C28.4699 24.487 29.9649 32.3983 35.8528 37.2496Z" fill="url(#paint0_linear_1166_1607)"/>
</g>
<g filter="url(#filter1_f_1166_1607)" style="mix-blend-mode:multiply">
<path d="M15.6838 37.2496C21.5717 42.1009 29.6227 42.0551 33.6664 37.1473C37.71 32.2395 36.2149 24.3282 30.327 19.4769C24.4391 14.6256 16.388 14.6714 12.3444 19.5792C8.3008 24.487 9.79589 32.3983 15.6838 37.2496Z" fill="url(#paint1_linear_1166_1607)"/>
</g>
<path d="M39.1279 12.8887C45.2273 13.0627 50.1191 18.1042 50.1191 24.3027C50.119 30.6109 45.0525 35.7244 38.8027 35.7246C34.9679 35.7246 31.581 33.7977 29.5342 30.8525H26.4639C24.417 33.7977 21.0301 35.7246 17.1953 35.7246C10.9456 35.7244 5.87907 30.6109 5.87891 24.3027C5.87891 18.0224 10.9007 12.9281 17.1123 12.8828V12.8799H39.1279V12.8887Z" fill="#FB923C"/>
<path d="M39.1279 12.8887C45.2273 13.0627 50.1191 18.1042 50.1191 24.3027C50.119 30.6109 45.0525 35.7244 38.8027 35.7246C34.9679 35.7246 31.581 33.7977 29.5342 30.8525H26.4639C24.417 33.7977 21.0301 35.7246 17.1953 35.7246C10.9456 35.7244 5.87907 30.6109 5.87891 24.3027C5.87891 18.0224 10.9007 12.9281 17.1123 12.8828V12.8799H39.1279V12.8887Z" fill="url(#paint2_radial_1166_1607)"/>
<path fill-rule="evenodd" clip-rule="evenodd" d="M15.6791 23.7999V20.1599H16.7991V23.7999H20.4391V24.9199H16.7991V28.5599H15.6791V24.9199H12.0391V23.7999H15.6791Z" fill="#1D1D21"/>
<path fill-rule="evenodd" clip-rule="evenodd" d="M30.2398 24.92H25.7598V23.8H30.2398V24.92Z" fill="#1D1D21"/>
<g filter="url(#filter2_f_1166_1607)">
<ellipse cx="40.3296" cy="25.9881" rx="3.07201" ry="3.89122" transform="rotate(-37.8822 40.3296 25.9881)" fill="url(#paint3_linear_1166_1607)"/>
</g>
<circle cx="39.4472" cy="24.36" r="3.08" fill="white"/>
<circle cx="39.4472" cy="24.36" r="3.08" fill="#FB923C"/>
<path d="M28.2793 12.8799L28.2793 6.15991" stroke="#FB923C" stroke-width="4"/>
</g>
<defs>
<filter id="filter0_f_1166_1607" x="19.1279" y="4.75586" width="48.0937" height="47.2146" filterUnits="userSpaceOnUse" color-interpolation-filters="sRGB">
<feFlood flood-opacity="0" result="BackgroundImageFix"/>
<feBlend mode="normal" in="SourceGraphic" in2="BackgroundImageFix" result="shape"/>
<feGaussianBlur stdDeviation="5.55615" result="effect1_foregroundBlur_1166_1607"/>
</filter>
<filter id="filter1_f_1166_1607" x="-1.04199" y="4.75586" width="48.0937" height="47.2148" filterUnits="userSpaceOnUse" color-interpolation-filters="sRGB">
<feFlood flood-opacity="0" result="BackgroundImageFix"/>
<feBlend mode="normal" in="SourceGraphic" in2="BackgroundImageFix" result="shape"/>
<feGaussianBlur stdDeviation="5.55615" result="effect1_foregroundBlur_1166_1607"/>
</filter>
<filter id="filter2_f_1166_1607" x="32.9258" y="18.3833" width="14.8086" height="15.2097" filterUnits="userSpaceOnUse" color-interpolation-filters="sRGB">
<feFlood flood-opacity="0" result="BackgroundImageFix"/>
<feBlend mode="normal" in="SourceGraphic" in2="BackgroundImageFix" result="shape"/>
<feGaussianBlur stdDeviation="2" result="effect1_foregroundBlur_1166_1607"/>
</filter>
<linearGradient id="paint0_linear_1166_1607" x1="33.5099" y1="28.1382" x2="56.3328" y2="43.534" gradientUnits="userSpaceOnUse">
<stop/>
<stop offset="1" stop-color="#1D1D21" stop-opacity="0"/>
</linearGradient>
<linearGradient id="paint1_linear_1166_1607" x1="13.3409" y1="28.1382" x2="36.1638" y2="43.534" gradientUnits="userSpaceOnUse">
<stop/>
<stop offset="1" stop-color="#1D1D21" stop-opacity="0"/>
</linearGradient>
<radialGradient id="paint2_radial_1166_1607" cx="0" cy="0" r="1" gradientTransform="matrix(52.997 8.7469 -16.9389 27.3665 14.2621 18.4433)" gradientUnits="userSpaceOnUse">
<stop offset="0.342523" stop-color="white"/>
<stop offset="0.64903" stop-color="#7D88ED"/>
<stop offset="0.748224" stop-color="white"/>
</radialGradient>
<linearGradient id="paint3_linear_1166_1607" x1="40.1622" y1="23.4574" x2="42.4289" y2="31.17" gradientUnits="userSpaceOnUse">
<stop/>
<stop offset="1" stop-color="#1D1D21" stop-opacity="0"/>
</linearGradient>
<clipPath id="clip0_1166_1607">
<rect width="56" height="56" fill="white"/>
</clipPath>
</defs>
</svg>
