<svg width="56" height="56" viewBox="0 0 56 56" fill="none" xmlns="http://www.w3.org/2000/svg">
<g clip-path="url(#clip0_1185_4599)">
<path d="M6.70508 36.6087L28.2877 22.3887L49.8703 36.6087L28.2877 50.8286L6.70508 36.6087Z" fill="#FB923C"/>
<mask id="mask0_1185_4599" style="mask-type:alpha" maskUnits="userSpaceOnUse" x="6" y="22" width="44" height="29">
<path d="M6.81445 36.6087L28.3971 22.3887L49.9797 36.6087L28.3971 50.8286L6.81445 36.6087Z" fill="#FF8F28"/>
</mask>
<g mask="url(#mask0_1185_4599)">
<g filter="url(#filter0_f_1185_4599)">
<path d="M52.3893 23.8713L33.4764 43.9V43.8996L14.8242 23.8711L52.3893 23.8713Z" fill="url(#paint0_linear_1185_4599)"/>
</g>
</g>
<path d="M28.1406 38.6501L28.1406 5.61011L37.1006 5.61011L37.1006 18.49L46.9004 18.49L28.1406 38.6501Z" fill="url(#paint1_linear_1185_4599)"/>
<path d="M28.1406 38.6499L9.38086 18.4907L19.0889 18.4907L19.0889 5.6001L28.1406 5.6001L28.1406 38.6499Z" fill="url(#paint2_linear_1185_4599)"/>
</g>
<defs>
<filter id="filter0_f_1185_4599" x="10.8242" y="19.8711" width="45.5645" height="28.0288" filterUnits="userSpaceOnUse" color-interpolation-filters="sRGB">
<feFlood flood-opacity="0" result="BackgroundImageFix"/>
<feBlend mode="normal" in="SourceGraphic" in2="BackgroundImageFix" result="shape"/>
<feGaussianBlur stdDeviation="2" result="effect1_foregroundBlur_1185_4599"/>
</filter>
<linearGradient id="paint0_linear_1185_4599" x1="69.1981" y1="47.8857" x2="29.9282" y2="66.7363" gradientUnits="userSpaceOnUse">
<stop stop-color="#1D1D21" stop-opacity="0"/>
<stop offset="1"/>
</linearGradient>
<linearGradient id="paint1_linear_1185_4599" x1="34.982" y1="13.7142" x2="42.8382" y2="23.5627" gradientUnits="userSpaceOnUse">
<stop stop-color="#9099F0"/>
<stop offset="1" stop-color="white"/>
</linearGradient>
<linearGradient id="paint2_linear_1185_4599" x1="16.1214" y1="13.6611" x2="24.0229" y2="23.3999" gradientUnits="userSpaceOnUse">
<stop stop-color="white"/>
<stop offset="1" stop-color="#9099F0"/>
</linearGradient>
<clipPath id="clip0_1185_4599">
<rect width="56" height="56" fill="white"/>
</clipPath>
</defs>
</svg>
