<svg width="56" height="56" viewBox="0 0 56 56" fill="none" xmlns="http://www.w3.org/2000/svg">
<g clip-path="url(#clip0_1166_1599)">
<mask id="mask0_1166_1599" style="mask-type:alpha" maskUnits="userSpaceOnUse" x="9" y="24" width="38" height="26">
<path d="M10.495 38.3364C9.50496 37.6858 9.50496 36.2341 10.495 35.5835L27.0959 24.6744C27.6449 24.3136 28.3559 24.3136 28.9049 24.6744L45.5058 35.5835C46.4958 36.2341 46.4958 37.6858 45.5058 38.3364L28.9049 49.2456C28.3559 49.6064 27.6449 49.6064 27.0959 49.2456L10.495 38.3364Z" fill="url(#paint0_linear_1166_1599)"/>
</mask>
<g mask="url(#mask0_1166_1599)">
<path d="M10.495 38.3364C9.50496 37.6858 9.50496 36.2341 10.495 35.5835L27.0959 24.6744C27.6449 24.3136 28.3559 24.3136 28.9049 24.6744L45.5058 35.5835C46.4958 36.2341 46.4958 37.6858 45.5058 38.3364L28.9049 49.2456C28.3559 49.6064 27.6449 49.6064 27.0959 49.2456L10.495 38.3364Z" fill="#FB923C"/>
<g filter="url(#filter0_f_1166_1599)">
<path d="M15.4684 32.6829C14.4161 31.9914 14.4161 30.4485 15.4684 29.757L31.8808 18.9717C32.4644 18.5882 33.22 18.5882 33.8035 18.9717L50.216 29.757C51.2682 30.4485 51.2682 31.9914 50.216 32.6829L33.8035 43.4682C33.22 43.8517 32.4644 43.8517 31.8808 43.4682L15.4684 32.6829Z" fill="url(#paint1_linear_1166_1599)"/>
</g>
</g>
<mask id="mask1_1166_1599" style="mask-type:alpha" maskUnits="userSpaceOnUse" x="9" y="15" width="38" height="26">
<path d="M10.495 29.3765C9.50496 28.7259 9.50496 27.2741 10.495 26.6235L27.0959 15.7144C27.6449 15.3536 28.3559 15.3536 28.9049 15.7144L45.5058 26.6235C46.4958 27.2741 46.4958 28.7259 45.5058 29.3765L28.9049 40.2856C28.3559 40.6464 27.6449 40.6464 27.0959 40.2856L10.495 29.3765Z" fill="url(#paint2_linear_1166_1599)"/>
</mask>
<g mask="url(#mask1_1166_1599)">
<path d="M10.495 29.3765C9.50496 28.7259 9.50496 27.2741 10.495 26.6235L27.0959 15.7144C27.6449 15.3536 28.3559 15.3536 28.9049 15.7144L45.5058 26.6235C46.4958 27.2741 46.4958 28.7259 45.5058 29.3765L28.9049 40.2856C28.3559 40.6464 27.6449 40.6464 27.0959 40.2856L10.495 29.3765Z" fill="#FB923C"/>
<g filter="url(#filter1_f_1166_1599)">
<path d="M15.4684 23.7229C14.4161 23.0315 14.4161 21.4886 15.4684 20.7971L31.8808 10.0117C32.4644 9.62828 33.22 9.62828 33.8035 10.0117L50.216 20.7971C51.2682 21.4886 51.2682 23.0315 50.216 23.7229L33.8035 34.5083C33.22 34.8917 32.4644 34.8917 31.8808 34.5083L15.4684 23.7229Z" fill="url(#paint3_linear_1166_1599)"/>
</g>
</g>
<path d="M10.495 20.4165C9.50496 19.7659 9.50496 18.3142 10.495 17.6636L27.0959 6.75444C27.6449 6.39364 28.3559 6.39363 28.9049 6.75444L45.5058 17.6636C46.4958 18.3142 46.4958 19.7659 45.5058 20.4165L28.9049 31.3256C28.3559 31.6864 27.6449 31.6864 27.0959 31.3256L10.495 20.4165Z" fill="url(#paint4_linear_1166_1599)"/>
</g>
<defs>
<filter id="filter0_f_1166_1599" x="9.32675" y="13.3311" width="47.0321" height="35.7777" filterUnits="userSpaceOnUse" color-interpolation-filters="sRGB">
<feFlood flood-opacity="0" result="BackgroundImageFix"/>
<feBlend mode="normal" in="SourceGraphic" in2="BackgroundImageFix" result="shape"/>
<feGaussianBlur stdDeviation="2.67647" result="effect1_foregroundBlur_1166_1599"/>
</filter>
<filter id="filter1_f_1166_1599" x="9.32675" y="4.37118" width="47.0321" height="35.7777" filterUnits="userSpaceOnUse" color-interpolation-filters="sRGB">
<feFlood flood-opacity="0" result="BackgroundImageFix"/>
<feBlend mode="normal" in="SourceGraphic" in2="BackgroundImageFix" result="shape"/>
<feGaussianBlur stdDeviation="2.67647" result="effect1_foregroundBlur_1166_1599"/>
</filter>
<linearGradient id="paint0_linear_1166_1599" x1="22.4854" y1="32.7701" x2="31.3915" y2="49.8322" gradientUnits="userSpaceOnUse">
<stop stop-color="white"/>
<stop offset="1" stop-color="#9099F0"/>
</linearGradient>
<linearGradient id="paint1_linear_1166_1599" x1="13.3052" y1="10.5763" x2="32.3679" y2="54.3756" gradientUnits="userSpaceOnUse">
<stop offset="0.46"/>
<stop offset="1" stop-color="#1D1D21" stop-opacity="0"/>
</linearGradient>
<linearGradient id="paint2_linear_1166_1599" x1="22.4854" y1="23.8102" x2="31.3915" y2="40.8722" gradientUnits="userSpaceOnUse">
<stop stop-color="white"/>
<stop offset="1" stop-color="#9099F0"/>
</linearGradient>
<linearGradient id="paint3_linear_1166_1599" x1="13.3052" y1="1.61629" x2="32.3679" y2="45.4157" gradientUnits="userSpaceOnUse">
<stop offset="0.46"/>
<stop offset="1" stop-color="#1D1D21" stop-opacity="0"/>
</linearGradient>
<linearGradient id="paint4_linear_1166_1599" x1="22.4854" y1="14.8502" x2="31.3915" y2="31.9123" gradientUnits="userSpaceOnUse">
<stop stop-color="white"/>
<stop offset="1" stop-color="#9099F0"/>
</linearGradient>
<clipPath id="clip0_1166_1599">
<rect width="56" height="56" fill="white"/>
</clipPath>
</defs>
</svg>
